<?xml version="1.0" encoding="UTF-8" standalone="no"?>
<!-- Created with Inkscape (http://www.inkscape.org/) -->

<svg
   xmlns:dc="http://purl.org/dc/elements/1.1/"
   xmlns:cc="http://creativecommons.org/ns#"
   xmlns:rdf="http://www.w3.org/1999/02/22-rdf-syntax-ns#"
   xmlns:svg="http://www.w3.org/2000/svg"
   xmlns="http://www.w3.org/2000/svg"
   xmlns:sodipodi="http://sodipodi.sourceforge.net/DTD/sodipodi-0.dtd"
   xmlns:inkscape="http://www.inkscape.org/namespaces/inkscape"
   width="744.09448819"
   height="1052.3622047"
   id="svg2"
   version="1.1"
   inkscape:version="0.48.5 r10040"
   sodipodi:docname="New document 1">
  <defs
     id="defs4">
    <marker
       inkscape:stockid="Arrow1Mend"
       orient="auto"
       refY="0.0"
       refX="0.0"
       id="Arrow1Mend"
       style="overflow:visible;">
      <path
         id="path3890"
         d="M 0.0,0.0 L 5.0,-5.0 L -12.5,0.0 L 5.0,5.0 L 0.0,0.0 z "
         style="fill-rule:evenodd;stroke:#000000;stroke-width:1.0pt;"
         transform="scale(0.4) rotate(180) translate(10,0)" />
    </marker>
    <marker
       inkscape:stockid="Arrow1Mstart"
       orient="auto"
       refY="0.0"
       refX="0.0"
       id="Arrow1Mstart"
       style="overflow:visible">
      <path
         id="path3887"
         d="M 0.0,0.0 L 5.0,-5.0 L -12.5,0.0 L 5.0,5.0 L 0.0,0.0 z "
         style="fill-rule:evenodd;stroke:#000000;stroke-width:1.0pt"
         transform="scale(0.4) translate(10,0)" />
    </marker>
  </defs>
  <sodipodi:namedview
     id="base"
     pagecolor="#ffffff"
     bordercolor="#666666"
     borderopacity="1.0"
     inkscape:pageopacity="0.0"
     inkscape:pageshadow="2"
     inkscape:zoom="0.98994949"
     inkscape:cx="6.9451006"
     inkscape:cy="317.96949"
     inkscape:document-units="px"
     inkscape:current-layer="layer1"
     showgrid="true"
     inkscape:window-width="1920"
     inkscape:window-height="1145"
     inkscape:window-x="-2"
     inkscape:window-y="-3"
     inkscape:window-maximized="1">
    <inkscape:grid
       type="xygrid"
       id="grid2985" />
  </sodipodi:namedview>
  <metadata
     id="metadata7">
    <rdf:RDF>
      <cc:Work
         rdf:about="">
        <dc:format>image/svg+xml</dc:format>
        <dc:type
           rdf:resource="http://purl.org/dc/dcmitype/StillImage" />
        <dc:title></dc:title>
      </cc:Work>
    </rdf:RDF>
  </metadata>
  <g
     inkscape:label="Layer 1"
     inkscape:groupmode="layer"
     id="layer1">
    <rect
       style="fill:#cccccc;fill-rule:evenodd;stroke:#000000;stroke-width:1px;stroke-linecap:butt;stroke-linejoin:miter;stroke-opacity:1"
       id="rect2987"
       width="500"
       height="504"
       x="0.5"
       y="547.86218" />
    <path
       style="fill:none;stroke:#323232;stroke-width:2;stroke-linecap:butt;stroke-linejoin:miter;stroke-opacity:1;stroke-miterlimit:4;stroke-dasharray:6, 6;stroke-dashoffset:0"
       d="m 250.5,549.16839 c 0,502.59671 0,502.59671 0,502.59671"
       id="path2989"
       inkscape:connector-curvature="0" />
    <path
       inkscape:connector-curvature="0"
       id="path3759"
       d="m 205.5,548.76547 c 0,502.59673 0,502.59673 0,502.59673"
       style="fill:none;stroke:#323232;stroke-width:2;stroke-linecap:butt;stroke-linejoin:miter;stroke-miterlimit:4;stroke-opacity:1;stroke-dasharray:2, 4;stroke-dashoffset:0" />
    <path
       sodipodi:type="star"
       style="fill:#000000;fill-opacity:1;stroke:#323232;stroke-width:2;stroke-miterlimit:4;stroke-opacity:1;stroke-dasharray:none;stroke-dashoffset:0"
       id="path3763"
       sodipodi:sides="3"
       sodipodi:cx="-320"
       sodipodi:cy="572.36218"
       sodipodi:r1="10"
       sodipodi:r2="5"
       sodipodi:arg1="-1.5707963"
       sodipodi:arg2="-0.52359878"
       inkscape:flatsided="false"
       inkscape:rounded="0"
       inkscape:randomized="0"
       d="m -320,562.36218 4.33013,7.5 4.33012,7.5 -8.66025,0 -8.66025,0 4.33012,-7.5 z"
       inkscape:transform-center-y="-1.552753"
       transform="matrix(0.62110168,0,0,0.62110168,404.75254,291.41775)" />
    <path
       transform="matrix(0.62110168,0,0,0.62110168,404.75254,305.49606)"
       inkscape:transform-center-y="-1.5527479"
       d="m -320,562.36218 4.33013,7.5 4.33012,7.5 -8.66025,0 -8.66025,0 4.33012,-7.5 z"
       inkscape:randomized="0"
       inkscape:rounded="0"
       inkscape:flatsided="false"
       sodipodi:arg2="-0.52359878"
       sodipodi:arg1="-1.5707963"
       sodipodi:r2="5"
       sodipodi:r1="10"
       sodipodi:cy="572.36218"
       sodipodi:cx="-320"
       sodipodi:sides="3"
       id="path3765"
       style="fill:#000000;fill-opacity:1;stroke:#323232;stroke-width:2;stroke-miterlimit:4;stroke-opacity:1;stroke-dasharray:none;stroke-dashoffset:0"
       sodipodi:type="star" />
    <path
       sodipodi:type="star"
       style="fill:#000000;fill-opacity:1;stroke:#323232;stroke-width:2;stroke-miterlimit:4;stroke-opacity:1;stroke-dasharray:none;stroke-dashoffset:0"
       id="path3767"
       sodipodi:sides="3"
       sodipodi:cx="-320"
       sodipodi:cy="572.36218"
       sodipodi:r1="10"
       sodipodi:r2="5"
       sodipodi:arg1="-1.5707963"
       sodipodi:arg2="-0.52359878"
       inkscape:flatsided="false"
       inkscape:rounded="0"
       inkscape:randomized="0"
       d="m -320,562.36218 4.33013,7.5 4.33012,7.5 -8.66025,0 -8.66025,0 4.33012,-7.5 z"
       inkscape:transform-center-y="-1.5527456"
       transform="matrix(0.62110168,0,0,0.62110168,404.75254,319.57437)" />
    <path
       transform="matrix(0.62110168,0,0,0.62110168,404.75254,333.65267)"
       inkscape:transform-center-y="-1.5527505"
       d="m -320,562.36218 4.33013,7.5 4.33012,7.5 -8.66025,0 -8.66025,0 4.33012,-7.5 z"
       inkscape:randomized="0"
       inkscape:rounded="0"
       inkscape:flatsided="false"
       sodipodi:arg2="-0.52359878"
       sodipodi:arg1="-1.5707963"
       sodipodi:r2="5"
       sodipodi:r1="10"
       sodipodi:cy="572.36218"
       sodipodi:cx="-320"
       sodipodi:sides="3"
       id="path3769"
       style="fill:#000000;fill-opacity:1;stroke:#323232;stroke-width:2;stroke-miterlimit:4;stroke-opacity:1;stroke-dasharray:none;stroke-dashoffset:0"
       sodipodi:type="star" />
    <path
       sodipodi:type="star"
       style="fill:#000000;fill-opacity:1;stroke:#323232;stroke-width:2;stroke-miterlimit:4;stroke-opacity:1;stroke-dasharray:none;stroke-dashoffset:0"
       id="path3771"
       sodipodi:sides="3"
       sodipodi:cx="-320"
       sodipodi:cy="572.36218"
       sodipodi:r1="10"
       sodipodi:r2="5"
       sodipodi:arg1="-1.5707963"
       sodipodi:arg2="-0.52359878"
       inkscape:flatsided="false"
       inkscape:rounded="0"
       inkscape:randomized="0"
       d="m -320,562.36218 4.33013,7.5 4.33012,7.5 -8.66025,0 -8.66025,0 4.33012,-7.5 z"
       inkscape:transform-center-y="-1.5527454"
       transform="matrix(0.62110168,0,0,0.62110168,404.75254,347.73098)" />
    <path
       transform="matrix(0.62110168,0,0,0.62110168,404.75254,361.80928)"
       inkscape:transform-center-y="-1.5527503"
       d="m -320,562.36218 4.33013,7.5 4.33012,7.5 -8.66025,0 -8.66025,0 4.33012,-7.5 z"
       inkscape:randomized="0"
       inkscape:rounded="0"
       inkscape:flatsided="false"
       sodipodi:arg2="-0.52359878"
       sodipodi:arg1="-1.5707963"
       sodipodi:r2="5"
       sodipodi:r1="10"
       sodipodi:cy="572.36218"
       sodipodi:cx="-320"
       sodipodi:sides="3"
       id="path3773"
       style="fill:#000000;fill-opacity:1;stroke:#323232;stroke-width:2;stroke-miterlimit:4;stroke-opacity:1;stroke-dasharray:none;stroke-dashoffset:0"
       sodipodi:type="star" />
    <path
       sodipodi:type="star"
       style="fill:#000000;fill-opacity:1;stroke:#323232;stroke-width:2;stroke-miterlimit:4;stroke-opacity:1;stroke-dasharray:none;stroke-dashoffset:0"
       id="path3775"
       sodipodi:sides="3"
       sodipodi:cx="-320"
       sodipodi:cy="572.36218"
       sodipodi:r1="10"
       sodipodi:r2="5"
       sodipodi:arg1="-1.5707963"
       sodipodi:arg2="-0.52359878"
       inkscape:flatsided="false"
       inkscape:rounded="0"
       inkscape:randomized="0"
       d="m -320,562.36218 4.33013,7.5 4.33012,7.5 -8.66025,0 -8.66025,0 4.33012,-7.5 z"
       inkscape:transform-center-y="-1.5527452"
       transform="matrix(0.62110168,0,0,0.62110168,404.75254,375.88759)" />
    <path
       transform="matrix(0.62110168,0,0,0.62110168,404.75254,389.96589)"
       inkscape:transform-center-y="-1.5527501"
       d="m -320,562.36218 4.33013,7.5 4.33012,7.5 -8.66025,0 -8.66025,0 4.33012,-7.5 z"
       inkscape:randomized="0"
       inkscape:rounded="0"
       inkscape:flatsided="false"
       sodipodi:arg2="-0.52359878"
       sodipodi:arg1="-1.5707963"
       sodipodi:r2="5"
       sodipodi:r1="10"
       sodipodi:cy="572.36218"
       sodipodi:cx="-320"
       sodipodi:sides="3"
       id="path3777"
       style="fill:#000000;fill-opacity:1;stroke:#323232;stroke-width:2;stroke-miterlimit:4;stroke-opacity:1;stroke-dasharray:none;stroke-dashoffset:0"
       sodipodi:type="star" />
    <path
       sodipodi:type="star"
       style="fill:#000000;fill-opacity:1;stroke:#323232;stroke-width:2;stroke-miterlimit:4;stroke-opacity:1;stroke-dasharray:none;stroke-dashoffset:0"
       id="path3779"
       sodipodi:sides="3"
       sodipodi:cx="-320"
       sodipodi:cy="572.36218"
       sodipodi:r1="10"
       sodipodi:r2="5"
       sodipodi:arg1="-1.5707963"
       sodipodi:arg2="-0.52359878"
       inkscape:flatsided="false"
       inkscape:rounded="0"
       inkscape:randomized="0"
       d="m -320,562.36218 4.33013,7.5 4.33012,7.5 -8.66025,0 -8.66025,0 4.33012,-7.5 z"
       inkscape:transform-center-y="-1.552745"
       transform="matrix(0.62110168,0,0,0.62110168,404.75254,404.0442)" />
    <path
       transform="matrix(0.62110168,0,0,0.62110168,404.75254,418.1225)"
       inkscape:transform-center-y="-1.5527499"
       d="m -320,562.36218 4.33013,7.5 4.33012,7.5 -8.66025,0 -8.66025,0 4.33012,-7.5 z"
       inkscape:randomized="0"
       inkscape:rounded="0"
       inkscape:flatsided="false"
       sodipodi:arg2="-0.52359878"
       sodipodi:arg1="-1.5707963"
       sodipodi:r2="5"
       sodipodi:r1="10"
       sodipodi:cy="572.36218"
       sodipodi:cx="-320"
       sodipodi:sides="3"
       id="path3781"
       style="fill:#000000;fill-opacity:1;stroke:#323232;stroke-width:2;stroke-miterlimit:4;stroke-opacity:1;stroke-dasharray:none;stroke-dashoffset:0"
       sodipodi:type="star" />
    <path
       sodipodi:type="star"
       style="fill:#000000;fill-opacity:1;stroke:#323232;stroke-width:2;stroke-miterlimit:4;stroke-opacity:1;stroke-dasharray:none;stroke-dashoffset:0"
       id="path3783"
       sodipodi:sides="3"
       sodipodi:cx="-320"
       sodipodi:cy="572.36218"
       sodipodi:r1="10"
       sodipodi:r2="5"
       sodipodi:arg1="-1.5707963"
       sodipodi:arg2="-0.52359878"
       inkscape:flatsided="false"
       inkscape:rounded="0"
       inkscape:randomized="0"
       d="m -320,562.36218 4.33013,7.5 4.33012,7.5 -8.66025,0 -8.66025,0 4.33012,-7.5 z"
       inkscape:transform-center-y="-1.5527448"
       transform="matrix(0.62110168,0,0,0.62110168,404.75254,432.20081)" />
    <path
       transform="matrix(0.62110168,0,0,0.62110168,404.75254,446.27911)"
       inkscape:transform-center-y="-1.5527497"
       d="m -320,562.36218 4.33013,7.5 4.33012,7.5 -8.66025,0 -8.66025,0 4.33012,-7.5 z"
       inkscape:randomized="0"
       inkscape:rounded="0"
       inkscape:flatsided="false"
       sodipodi:arg2="-0.52359878"
       sodipodi:arg1="-1.5707963"
       sodipodi:r2="5"
       sodipodi:r1="10"
       sodipodi:cy="572.36218"
       sodipodi:cx="-320"
       sodipodi:sides="3"
       id="path3785"
       style="fill:#000000;fill-opacity:1;stroke:#323232;stroke-width:2;stroke-miterlimit:4;stroke-opacity:1;stroke-dasharray:none;stroke-dashoffset:0"
       sodipodi:type="star" />
    <path
       sodipodi:type="star"
       style="fill:#000000;fill-opacity:1;stroke:#323232;stroke-width:2;stroke-miterlimit:4;stroke-opacity:1;stroke-dasharray:none;stroke-dashoffset:0"
       id="path3787"
       sodipodi:sides="3"
       sodipodi:cx="-320"
       sodipodi:cy="572.36218"
       sodipodi:r1="10"
       sodipodi:r2="5"
       sodipodi:arg1="-1.5707963"
       sodipodi:arg2="-0.52359878"
       inkscape:flatsided="false"
       inkscape:rounded="0"
       inkscape:randomized="0"
       d="m -320,562.36218 4.33013,7.5 4.33012,7.5 -8.66025,0 -8.66025,0 4.33012,-7.5 z"
       inkscape:transform-center-y="-1.5527546"
       transform="matrix(0.62110168,0,0,0.62110168,404.75254,460.35741)" />
    <path
       transform="matrix(0.62110168,0,0,0.62110168,404.75254,474.43572)"
       inkscape:transform-center-y="-1.5527495"
       d="m -320,562.36218 4.33013,7.5 4.33012,7.5 -8.66025,0 -8.66025,0 4.33012,-7.5 z"
       inkscape:randomized="0"
       inkscape:rounded="0"
       inkscape:flatsided="false"
       sodipodi:arg2="-0.52359878"
       sodipodi:arg1="-1.5707963"
       sodipodi:r2="5"
       sodipodi:r1="10"
       sodipodi:cy="572.36218"
       sodipodi:cx="-320"
       sodipodi:sides="3"
       id="path3789"
       style="fill:#000000;fill-opacity:1;stroke:#323232;stroke-width:2;stroke-miterlimit:4;stroke-opacity:1;stroke-dasharray:none;stroke-dashoffset:0"
       sodipodi:type="star" />
    <path
       sodipodi:type="star"
       style="fill:#000000;fill-opacity:1;stroke:#323232;stroke-width:2;stroke-miterlimit:4;stroke-opacity:1;stroke-dasharray:none;stroke-dashoffset:0"
       id="path3791"
       sodipodi:sides="3"
       sodipodi:cx="-320"
       sodipodi:cy="572.36218"
       sodipodi:r1="10"
       sodipodi:r2="5"
       sodipodi:arg1="-1.5707963"
       sodipodi:arg2="-0.52359878"
       inkscape:flatsided="false"
       inkscape:rounded="0"
       inkscape:randomized="0"
       d="m -320,562.36218 4.33013,7.5 4.33012,7.5 -8.66025,0 -8.66025,0 4.33012,-7.5 z"
       inkscape:transform-center-y="-1.5527544"
       transform="matrix(0.62110168,0,0,0.62110168,404.75254,488.51402)" />
    <path
       transform="matrix(0.62110168,0,0,0.62110168,404.75254,502.59233)"
       inkscape:transform-center-y="-1.5527493"
       d="m -320,562.36218 4.33013,7.5 4.33012,7.5 -8.66025,0 -8.66025,0 4.33012,-7.5 z"
       inkscape:randomized="0"
       inkscape:rounded="0"
       inkscape:flatsided="false"
       sodipodi:arg2="-0.52359878"
       sodipodi:arg1="-1.5707963"
       sodipodi:r2="5"
       sodipodi:r1="10"
       sodipodi:cy="572.36218"
       sodipodi:cx="-320"
       sodipodi:sides="3"
       id="path3793"
       style="fill:#000000;fill-opacity:1;stroke:#323232;stroke-width:2;stroke-miterlimit:4;stroke-opacity:1;stroke-dasharray:none;stroke-dashoffset:0"
       sodipodi:type="star" />
    <path
       sodipodi:type="star"
       style="fill:#000000;fill-opacity:1;stroke:#323232;stroke-width:2;stroke-miterlimit:4;stroke-opacity:1;stroke-dasharray:none;stroke-dashoffset:0"
       id="path3795"
       sodipodi:sides="3"
       sodipodi:cx="-320"
       sodipodi:cy="572.36218"
       sodipodi:r1="10"
       sodipodi:r2="5"
       sodipodi:arg1="-1.5707963"
       sodipodi:arg2="-0.52359878"
       inkscape:flatsided="false"
       inkscape:rounded="0"
       inkscape:randomized="0"
       d="m -320,562.36218 4.33013,7.5 4.33012,7.5 -8.66025,0 -8.66025,0 4.33012,-7.5 z"
       inkscape:transform-center-y="-1.5527542"
       transform="matrix(0.62110168,0,0,0.62110168,404.75254,516.67063)" />
    <path
       transform="matrix(0.62110168,0,0,0.62110168,404.75254,530.74894)"
       inkscape:transform-center-y="-1.5527491"
       d="m -320,562.36218 4.33013,7.5 4.33012,7.5 -8.66025,0 -8.66025,0 4.33012,-7.5 z"
       inkscape:randomized="0"
       inkscape:rounded="0"
       inkscape:flatsided="false"
       sodipodi:arg2="-0.52359878"
       sodipodi:arg1="-1.5707963"
       sodipodi:r2="5"
       sodipodi:r1="10"
       sodipodi:cy="572.36218"
       sodipodi:cx="-320"
       sodipodi:sides="3"
       id="path3797"
       style="fill:#000000;fill-opacity:1;stroke:#323232;stroke-width:2;stroke-miterlimit:4;stroke-opacity:1;stroke-dasharray:none;stroke-dashoffset:0"
       sodipodi:type="star" />
    <path
       sodipodi:type="star"
       style="fill:#000000;fill-opacity:1;stroke:#323232;stroke-width:2;stroke-miterlimit:4;stroke-opacity:1;stroke-dasharray:none;stroke-dashoffset:0"
       id="path3799"
       sodipodi:sides="3"
       sodipodi:cx="-320"
       sodipodi:cy="572.36218"
       sodipodi:r1="10"
       sodipodi:r2="5"
       sodipodi:arg1="-1.5707963"
       sodipodi:arg2="-0.52359878"
       inkscape:flatsided="false"
       inkscape:rounded="0"
       inkscape:randomized="0"
       d="m -320,562.36218 4.33013,7.5 4.33012,7.5 -8.66025,0 -8.66025,0 4.33012,-7.5 z"
       inkscape:transform-center-y="-1.552754"
       transform="matrix(0.62110168,0,0,0.62110168,404.75254,544.82724)" />
    <path
       transform="matrix(0.62110168,0,0,0.62110168,404.75254,558.90555)"
       inkscape:transform-center-y="-1.5527489"
       d="m -320,562.36218 4.33013,7.5 4.33012,7.5 -8.66025,0 -8.66025,0 4.33012,-7.5 z"
       inkscape:randomized="0"
       inkscape:rounded="0"
       inkscape:flatsided="false"
       sodipodi:arg2="-0.52359878"
       sodipodi:arg1="-1.5707963"
       sodipodi:r2="5"
       sodipodi:r1="10"
       sodipodi:cy="572.36218"
       sodipodi:cx="-320"
       sodipodi:sides="3"
       id="path3801"
       style="fill:#000000;fill-opacity:1;stroke:#323232;stroke-width:2;stroke-miterlimit:4;stroke-opacity:1;stroke-dasharray:none;stroke-dashoffset:0"
       sodipodi:type="star" />
    <path
       sodipodi:type="star"
       style="fill:#000000;fill-opacity:1;stroke:#323232;stroke-width:2;stroke-miterlimit:4;stroke-opacity:1;stroke-dasharray:none;stroke-dashoffset:0"
       id="path3803"
       sodipodi:sides="3"
       sodipodi:cx="-320"
       sodipodi:cy="572.36218"
       sodipodi:r1="10"
       sodipodi:r2="5"
       sodipodi:arg1="-1.5707963"
       sodipodi:arg2="-0.52359878"
       inkscape:flatsided="false"
       inkscape:rounded="0"
       inkscape:randomized="0"
       d="m -320,562.36218 4.33013,7.5 4.33012,7.5 -8.66025,0 -8.66025,0 4.33012,-7.5 z"
       inkscape:transform-center-y="-1.5527537"
       transform="matrix(0.62110168,0,0,0.62110168,404.75254,572.98385)" />
    <path
       transform="matrix(0.62110168,0,0,0.62110168,404.75254,587.06216)"
       inkscape:transform-center-y="-1.5527486"
       d="m -320,562.36218 4.33013,7.5 4.33012,7.5 -8.66025,0 -8.66025,0 4.33012,-7.5 z"
       inkscape:randomized="0"
       inkscape:rounded="0"
       inkscape:flatsided="false"
       sodipodi:arg2="-0.52359878"
       sodipodi:arg1="-1.5707963"
       sodipodi:r2="5"
       sodipodi:r1="10"
       sodipodi:cy="572.36218"
       sodipodi:cx="-320"
       sodipodi:sides="3"
       id="path3805"
       style="fill:#000000;fill-opacity:1;stroke:#323232;stroke-width:2;stroke-miterlimit:4;stroke-opacity:1;stroke-dasharray:none;stroke-dashoffset:0"
       sodipodi:type="star" />
    <path
       sodipodi:type="star"
       style="fill:#000000;fill-opacity:1;stroke:#323232;stroke-width:2;stroke-miterlimit:4;stroke-opacity:1;stroke-dasharray:none;stroke-dashoffset:0"
       id="path3807"
       sodipodi:sides="3"
       sodipodi:cx="-320"
       sodipodi:cy="572.36218"
       sodipodi:r1="10"
       sodipodi:r2="5"
       sodipodi:arg1="-1.5707963"
       sodipodi:arg2="-0.52359878"
       inkscape:flatsided="false"
       inkscape:rounded="0"
       inkscape:randomized="0"
       d="m -320,562.36218 4.33013,7.5 4.33012,7.5 -8.66025,0 -8.66025,0 4.33012,-7.5 z"
       inkscape:transform-center-y="-1.5527535"
       transform="matrix(0.62110168,0,0,0.62110168,404.75254,601.14046)" />
    <path
       transform="matrix(0.62110168,0,0,0.62110168,404.75254,601.14046)"
       inkscape:transform-center-y="-1.5527535"
       d="m -320,562.36218 4.33013,7.5 4.33012,7.5 -8.66025,0 -8.66025,0 4.33012,-7.5 z"
       inkscape:randomized="0"
       inkscape:rounded="0"
       inkscape:flatsided="false"
       sodipodi:arg2="-0.52359878"
       sodipodi:arg1="-1.5707963"
       sodipodi:r2="5"
       sodipodi:r1="10"
       sodipodi:cy="572.36218"
       sodipodi:cx="-320"
       sodipodi:sides="3"
       id="path3809"
       style="fill:#000000;fill-opacity:1;stroke:#323232;stroke-width:2;stroke-miterlimit:4;stroke-opacity:1;stroke-dasharray:none;stroke-dashoffset:0"
       sodipodi:type="star" />
    <path
       style="fill:none;stroke:#323232;stroke-width:2;stroke-linecap:butt;stroke-linejoin:miter;stroke-miterlimit:4;stroke-opacity:1;stroke-dasharray:2, 4;stroke-dashoffset:0"
       d="m 205.5,548.76547 c 0,502.59673 0,502.59673 0,502.59673"
       id="path3811"
       inkscape:connector-curvature="0" />
    <path
       inkscape:connector-curvature="0"
       id="path3821"
       d="m 326,548.76547 c 0,502.59673 0,502.59673 0,502.59673"
       style="fill:none;stroke:#323232;stroke-width:2;stroke-linecap:butt;stroke-linejoin:miter;stroke-miterlimit:4;stroke-opacity:1;stroke-dasharray:4,4;stroke-dashoffset:0" />
    <path
       style="fill:none;stroke:#323232;stroke-width:2;stroke-linecap:butt;stroke-linejoin:miter;stroke-miterlimit:4;stroke-opacity:1;stroke-dasharray:2, 4;stroke-dashoffset:0"
       d="m 185.5,548.76547 c 0,502.59673 0,502.59673 0,502.59673"
       id="path3823"
       inkscape:connector-curvature="0" />
    <path
       inkscape:connector-curvature="0"
       id="path3825"
       d="m 145.5,548.76547 c 0,502.59673 0,502.59673 0,502.59673"
       style="fill:none;stroke:#323232;stroke-width:2;stroke-linecap:butt;stroke-linejoin:miter;stroke-miterlimit:4;stroke-opacity:1;stroke-dasharray:2, 4;stroke-dashoffset:0" />
    <path
       style="fill:none;stroke:#323232;stroke-width:2;stroke-linecap:butt;stroke-linejoin:miter;stroke-miterlimit:4;stroke-opacity:1;stroke-dasharray:2, 4;stroke-dashoffset:0"
       d="m 165.5,548.76547 c 0,502.59673 0,502.59673 0,502.59673"
       id="path3827"
       inkscape:connector-curvature="0" />
    <path
       sodipodi:type="arc"
       style="fill:#ff0000;fill-opacity:1;stroke:#323232;stroke-width:2;stroke-miterlimit:4;stroke-opacity:1;stroke-dasharray:4, 4;stroke-dashoffset:0"
       id="path3829"
       sodipodi:cx="-255"
       sodipodi:cy="567.36218"
       sodipodi:rx="5"
       sodipodi:ry="5"
       d="m -250,567.36218 a 5,5 0 1 1 -10,0 5,5 0 1 1 10,0 z"
       transform="translate(582,79)" />
    <path
       transform="translate(582,101)"
       d="m -250,567.36218 a 5,5 0 1 1 -10,0 5,5 0 1 1 10,0 z"
       sodipodi:ry="5"
       sodipodi:rx="5"
       sodipodi:cy="567.36218"
       sodipodi:cx="-255"
       id="path3841"
       style="fill:#ff0000;fill-opacity:1;stroke:#323232;stroke-width:2;stroke-miterlimit:4;stroke-opacity:1;stroke-dasharray:4, 4;stroke-dashoffset:0"
       sodipodi:type="arc" />
    <path
       sodipodi:type="arc"
       style="fill:#ff0000;fill-opacity:1;stroke:#323232;stroke-width:2;stroke-miterlimit:4;stroke-opacity:1;stroke-dasharray:4, 4;stroke-dashoffset:0"
       id="path3843"
       sodipodi:cx="-255"
       sodipodi:cy="567.36218"
       sodipodi:rx="5"
       sodipodi:ry="5"
       d="m -250,567.36218 a 5,5 0 1 1 -10,0 5,5 0 1 1 10,0 z"
       transform="translate(582,121)" />
    <path
       transform="translate(582,141)"
       d="m -250,567.36218 a 5,5 0 1 1 -10,0 5,5 0 1 1 10,0 z"
       sodipodi:ry="5"
       sodipodi:rx="5"
       sodipodi:cy="567.36218"
       sodipodi:cx="-255"
       id="path3845"
       style="fill:#ff0000;fill-opacity:1;stroke:#323232;stroke-width:2;stroke-miterlimit:4;stroke-opacity:1;stroke-dasharray:4, 4;stroke-dashoffset:0"
       sodipodi:type="arc" />
    <path
       sodipodi:type="arc"
       style="fill:#ff0000;fill-opacity:1;stroke:#323232;stroke-width:2;stroke-miterlimit:4;stroke-opacity:1;stroke-dasharray:4, 4;stroke-dashoffset:0"
       id="path3847"
       sodipodi:cx="-255"
       sodipodi:cy="567.36218"
       sodipodi:rx="5"
       sodipodi:ry="5"
       d="m -250,567.36218 a 5,5 0 1 1 -10,0 5,5 0 1 1 10,0 z"
       transform="translate(582,161)" />
    <path
       transform="translate(582,181)"
       d="m -250,567.36218 a 5,5 0 1 1 -10,0 5,5 0 1 1 10,0 z"
       sodipodi:ry="5"
       sodipodi:rx="5"
       sodipodi:cy="567.36218"
       sodipodi:cx="-255"
       id="path3849"
       style="fill:#ff0000;fill-opacity:1;stroke:#323232;stroke-width:2;stroke-miterlimit:4;stroke-opacity:1;stroke-dasharray:4, 4;stroke-dashoffset:0"
       sodipodi:type="arc" />
    <path
       sodipodi:type="arc"
       style="fill:#ff0000;fill-opacity:1;stroke:#323232;stroke-width:2;stroke-miterlimit:4;stroke-opacity:1;stroke-dasharray:4, 4;stroke-dashoffset:0"
       id="path3851"
       sodipodi:cx="-255"
       sodipodi:cy="567.36218"
       sodipodi:rx="5"
       sodipodi:ry="5"
       d="m -250,567.36218 a 5,5 0 1 1 -10,0 5,5 0 1 1 10,0 z"
       transform="translate(582,201)" />
    <path
       transform="translate(582,221)"
       d="m -250,567.36218 a 5,5 0 1 1 -10,0 5,5 0 1 1 10,0 z"
       sodipodi:ry="5"
       sodipodi:rx="5"
       sodipodi:cy="567.36218"
       sodipodi:cx="-255"
       id="path3853"
       style="fill:#ff0000;fill-opacity:1;stroke:#323232;stroke-width:2;stroke-miterlimit:4;stroke-opacity:1;stroke-dasharray:4, 4;stroke-dashoffset:0"
       sodipodi:type="arc" />
    <path
       sodipodi:type="arc"
       style="fill:#ff0000;fill-opacity:1;stroke:#323232;stroke-width:2;stroke-miterlimit:4;stroke-opacity:1;stroke-dasharray:4, 4;stroke-dashoffset:0"
       id="path3855"
       sodipodi:cx="-255"
       sodipodi:cy="567.36218"
       sodipodi:rx="5"
       sodipodi:ry="5"
       d="m -250,567.36218 a 5,5 0 1 1 -10,0 5,5 0 1 1 10,0 z"
       transform="translate(582,241)" />
    <path
       transform="translate(582,259)"
       d="m -250,567.36218 a 5,5 0 1 1 -10,0 5,5 0 1 1 10,0 z"
       sodipodi:ry="5"
       sodipodi:rx="5"
       sodipodi:cy="567.36218"
       sodipodi:cx="-255"
       id="path3857"
       style="fill:#ff0000;fill-opacity:1;stroke:#323232;stroke-width:2;stroke-miterlimit:4;stroke-opacity:1;stroke-dasharray:4, 4;stroke-dashoffset:0"
       sodipodi:type="arc" />
    <path
       sodipodi:type="arc"
       style="fill:#ff0000;fill-opacity:1;stroke:#323232;stroke-width:2;stroke-miterlimit:4;stroke-opacity:1;stroke-dasharray:4, 4;stroke-dashoffset:0"
       id="path3859"
       sodipodi:cx="-255"
       sodipodi:cy="567.36218"
       sodipodi:rx="5"
       sodipodi:ry="5"
       d="m -250,567.36218 a 5,5 0 1 1 -10,0 5,5 0 1 1 10,0 z"
       transform="translate(582,279)" />
    <path
       transform="translate(582,299)"
       d="m -250,567.36218 a 5,5 0 1 1 -10,0 5,5 0 1 1 10,0 z"
       sodipodi:ry="5"
       sodipodi:rx="5"
       sodipodi:cy="567.36218"
       sodipodi:cx="-255"
       id="path3861"
       style="fill:#ff0000;fill-opacity:1;stroke:#323232;stroke-width:2;stroke-miterlimit:4;stroke-opacity:1;stroke-dasharray:4, 4;stroke-dashoffset:0"
       sodipodi:type="arc" />
    <path
       sodipodi:type="arc"
       style="fill:#ff0000;fill-opacity:1;stroke:#323232;stroke-width:2;stroke-miterlimit:4;stroke-opacity:1;stroke-dasharray:4, 4;stroke-dashoffset:0"
       id="path3863"
       sodipodi:cx="-255"
       sodipodi:cy="567.36218"
       sodipodi:rx="5"
       sodipodi:ry="5"
       d="m -250,567.36218 a 5,5 0 1 1 -10,0 5,5 0 1 1 10,0 z"
       transform="translate(582,321)" />
    <path
       transform="translate(582,341)"
       d="m -250,567.36218 a 5,5 0 1 1 -10,0 5,5 0 1 1 10,0 z"
       sodipodi:ry="5"
       sodipodi:rx="5"
       sodipodi:cy="567.36218"
       sodipodi:cx="-255"
       id="path3865"
       style="fill:#ff0000;fill-opacity:1;stroke:#323232;stroke-width:2;stroke-miterlimit:4;stroke-opacity:1;stroke-dasharray:4, 4;stroke-dashoffset:0"
       sodipodi:type="arc" />
    <path
       sodipodi:type="arc"
       style="fill:#ff0000;fill-opacity:1;stroke:#323232;stroke-width:2;stroke-miterlimit:4;stroke-opacity:1;stroke-dasharray:4, 4;stroke-dashoffset:0"
       id="path3867"
       sodipodi:cx="-255"
       sodipodi:cy="567.36218"
       sodipodi:rx="5"
       sodipodi:ry="5"
       d="m -250,567.36218 a 5,5 0 1 1 -10,0 5,5 0 1 1 10,0 z"
       transform="translate(582,361)" />
    <path
       transform="translate(582,381)"
       d="m -250,567.36218 a 5,5 0 1 1 -10,0 5,5 0 1 1 10,0 z"
       sodipodi:ry="5"
       sodipodi:rx="5"
       sodipodi:cy="567.36218"
       sodipodi:cx="-255"
       id="path3869"
       style="fill:#ff0000;fill-opacity:1;stroke:#323232;stroke-width:2;stroke-miterlimit:4;stroke-opacity:1;stroke-dasharray:4, 4;stroke-dashoffset:0"
       sodipodi:type="arc" />
    <path
       sodipodi:type="arc"
       style="fill:#ff0000;fill-opacity:1;stroke:#323232;stroke-width:2;stroke-miterlimit:4;stroke-opacity:1;stroke-dasharray:4, 4;stroke-dashoffset:0"
       id="path3871"
       sodipodi:cx="-255"
       sodipodi:cy="567.36218"
       sodipodi:rx="5"
       sodipodi:ry="5"
       d="m -250,567.36218 a 5,5 0 1 1 -10,0 5,5 0 1 1 10,0 z"
       transform="translate(582,401)" />
    <path
       transform="translate(582,61)"
       d="m -250,567.36218 a 5,5 0 1 1 -10,0 5,5 0 1 1 10,0 z"
       sodipodi:ry="5"
       sodipodi:rx="5"
       sodipodi:cy="567.36218"
       sodipodi:cx="-255"
       id="path3873"
       style="fill:#ff0000;fill-opacity:1;stroke:#323232;stroke-width:2;stroke-miterlimit:4;stroke-opacity:1;stroke-dasharray:4, 4;stroke-dashoffset:0"
       sodipodi:type="arc" />
    <path
       style="fill:none;stroke:#000000;stroke-width:2;stroke-linecap:butt;stroke-linejoin:miter;stroke-opacity:1;stroke-miterlimit:4;stroke-dasharray:none;marker-start:url(#Arrow1Mstart)"
       d="m 330,1002.3622 80,70"
       id="path3875"
       inkscape:connector-curvature="0" />
    <path
       style="fill:none;stroke:#000000;stroke-width:2;stroke-linecap:butt;stroke-linejoin:miter;stroke-opacity:1;stroke-miterlimit:4;stroke-dasharray:none;marker-start:url(#Arrow1Mstart)"
       d="m 200,1042.3622 -20,30 0,0"
       id="path4321"
       inkscape:connector-curvature="0" />
    <path
       inkscape:connector-curvature="0"
       id="path4505"
       d="m 182,1042.3622 -20,30 0,0"
       style="fill:none;stroke:#000000;stroke-width:2;stroke-linecap:butt;stroke-linejoin:miter;stroke-miterlimit:4;stroke-opacity:1;stroke-dasharray:none;marker-start:url(#Arrow1Mstart)" />
    <path
       style="fill:none;stroke:#000000;stroke-width:2;stroke-linecap:butt;stroke-linejoin:miter;stroke-miterlimit:4;stroke-opacity:1;stroke-dasharray:none;marker-start:url(#Arrow1Mstart)"
       d="m 160,1042.3622 -20,30 0,0"
       id="path4507"
       inkscape:connector-curvature="0" />
    <path
       inkscape:connector-curvature="0"
       id="path4509"
       d="m 140,1042.3622 -20,30 0,0"
       style="fill:none;stroke:#000000;stroke-width:2;stroke-linecap:butt;stroke-linejoin:miter;stroke-miterlimit:4;stroke-opacity:1;stroke-dasharray:none;marker-start:url(#Arrow1Mstart)" />
    <path
       style="fill:none;stroke:#000000;stroke-width:2;stroke-linecap:butt;stroke-linejoin:miter;stroke-opacity:1;stroke-miterlimit:4;stroke-dasharray:none"
       d="m 180,1072.3622 -90,0 0,0"
       id="path4511"
       inkscape:connector-curvature="0" />
    <path
       style="fill:none;stroke:#000000;stroke-width:1.5;stroke-linecap:butt;stroke-linejoin:miter;stroke-miterlimit:4;stroke-opacity:1;stroke-dasharray:none;marker-start:url(#Arrow1Mstart);marker-end:url(#Arrow1Mend)"
       d="m -16,552.36218 0,500.00002"
       id="path4513"
       inkscape:connector-curvature="0" />
    <path
       style="fill:none;stroke:#000000;stroke-width:1.5;stroke-linecap:butt;stroke-linejoin:miter;stroke-opacity:1;stroke-miterlimit:4;stroke-dasharray:none;marker-start:url(#Arrow1Mstart);marker-end:url(#Arrow1Mend)"
       d="m 0,532.36218 500,0"
       id="path4883"
       inkscape:connector-curvature="0" />
    <text
       xml:space="preserve"
       style="font-size:24px;font-style:normal;font-weight:normal;line-height:125%;letter-spacing:0px;word-spacing:0px;fill:#000000;fill-opacity:1;stroke:none;font-family:Sans"
       x="-70"
       y="1080.3622"
       id="text5253"
       sodipodi:linespacing="125%"><tspan
         sodipodi:role="line"
         id="tspan5255"
         x="-70"
         y="1080.3622">receiver lines</tspan></text>
    <text
       xml:space="preserve"
       style="font-size:24px;font-style:normal;font-weight:normal;line-height:125%;letter-spacing:0px;word-spacing:0px;fill:#000000;fill-opacity:1;stroke:none;font-family:Sans"
       x="417.51788"
       y="1081.7581"
       id="text5257"
       sodipodi:linespacing="125%"><tspan
         sodipodi:role="line"
         id="tspan5259"
         x="417.51788"
         y="1081.7581">source line</tspan></text>
    <text
       xml:space="preserve"
       style="font-size:24px;font-style:normal;font-weight:normal;line-height:125%;letter-spacing:0px;word-spacing:0px;fill:#000000;fill-opacity:1;stroke:none;font-family:Sans"
       x="208"
       y="526.36218"
       id="text5261"
       sodipodi:linespacing="125%"><tspan
         sodipodi:role="line"
         id="tspan5263"
         x="208"
         y="526.36218"
         style="font-size:20px;font-style:italic;-inkscape-font-specification:Sans Italic">500 mm</tspan></text>
    <text
       sodipodi:linespacing="125%"
       id="text5265"
       y="-22"
       x="-818.36218"
       style="font-size:24px;font-style:normal;font-weight:normal;line-height:125%;letter-spacing:0px;word-spacing:0px;fill:#000000;fill-opacity:1;stroke:none;font-family:Sans"
       xml:space="preserve"
       transform="matrix(0,-1,1,0,0,0)"><tspan
         style="font-size:20px;font-style:italic;-inkscape-font-specification:Sans Italic"
         y="-22"
         x="-818.36218"
         id="tspan5267"
         sodipodi:role="line">504 mm</tspan></text>
  </g>
</svg>
