<?xml version="1.0" encoding="UTF-8" standalone="no"?>
<svg xmlns="http://www.w3.org/2000/svg"
     xmlns:xlink="http://www.w3.org/1999/xlink"
     width="1166px" height="513px" viewBox="0 0 1166 513">
<title>test</title>
<desc>
Creator: GL2PS 1.3.8, (C) 1999-2012 C. Geuzaine
For: Gmsh
CreationDate: Thu Jun  4 06:27:14 2015
</desc>
<defs>
</defs>
<g shape-rendering="crispEdges">
<polygon fill="#0505ff" points="0,205.684 0,196.875 39.7301,253.094"/>
<polygon fill="#0505ff" points="0,196.875 39.7301,196.875 39.7301,253.094"/>
<polygon fill="#0505ff" points="39.7301,253.094 0,253.094 0,205.684"/>
<polygon fill="#0505ff" points="0,261.902 0,253.094 39.7301,309.312"/>
<polygon fill="#0505ff" points="0,253.094 39.7301,253.094 39.7301,309.312"/>
<polygon fill="#0505ff" points="39.7301,309.312 0,309.312 0,261.902"/>
<polygon fill="#0505ff" points="0,318.121 0,309.312 39.7301,365.531"/>
<polygon fill="#0505ff" points="0,309.312 39.7301,309.312 39.7301,365.531"/>
<polygon fill="#0505ff" points="39.7301,365.531 0,365.531 0,318.121"/>
<polygon fill="#0505ff" points="0,374.339 0,365.531 39.7301,421.75"/>
<polygon fill="#0505ff" points="0,365.531 39.7301,365.531 39.7301,421.75"/>
<polygon fill="#0505ff" points="39.7301,421.75 0,421.75 0,374.339"/>
<polygon fill="#0505ff" points="0,430.558 0,421.75 39.7301,477.968"/>
<polygon fill="#0505ff" points="0,421.75 39.7301,421.75 39.7301,477.968"/>
<polygon fill="#0505ff" points="39.7301,477.968 0,477.968 0,430.558"/>
<polygon fill="#0505ff" points="0,486.777 0,477.968 21.9752,513"/>
<polygon fill="#0505ff" points="0,477.968 39.7301,477.968 21.9752,513"/>
<polygon fill="#0505ff" points="39.7301,477.968 39.7301,513 21.9752,513"/>
<polygon fill="#0505ff" points="21.9752,513 0,513 0,486.777"/>
<polygon fill="#0505ff" points="39.7301,196.875 86.6642,196.875 86.6642,253.094"/>
<polygon fill="#0505ff" points="39.7301,196.875 86.6642,253.094 39.7301,253.094"/>
<polygon fill="#0505ff" points="86.6642,196.875 133.598,196.875 133.598,253.094"/>
<polygon fill="#0505ff" points="86.6642,196.875 133.598,253.094 86.6642,253.094"/>
<polygon fill="#0505ff" points="86.6642,253.094 133.598,253.094 133.598,309.312"/>
<polygon fill="#0505ff" points="86.6642,253.094 133.598,309.312 86.6642,309.312"/>
<polygon fill="#0505ff" points="39.7301,253.094 86.6642,253.094 86.6642,309.312"/>
<polygon fill="#0505ff" points="39.7301,253.094 86.6642,309.312 39.7301,309.312"/>
<polygon fill="#0505ff" points="39.7301,309.312 86.6642,309.312 86.6642,365.531"/>
<polygon fill="#0505ff" points="39.7301,309.312 86.6642,365.531 39.7301,365.531"/>
<polygon fill="#0505ff" points="86.6642,309.312 133.598,309.312 133.598,365.531"/>
<polygon fill="#0505ff" points="86.6642,309.312 133.598,365.531 86.6642,365.531"/>
<polygon fill="#0505ff" points="86.6642,365.531 133.598,365.531 133.598,421.75"/>
<polygon fill="#0505ff" points="86.6642,365.531 133.598,421.75 86.6642,421.75"/>
<polygon fill="#0505ff" points="39.7301,365.531 86.6642,365.531 86.6642,421.75"/>
<polygon fill="#0505ff" points="39.7301,365.531 86.6642,421.75 39.7301,421.75"/>
<polygon fill="#0505ff" points="39.7301,421.75 86.6642,421.75 86.6642,477.968"/>
<polygon fill="#0505ff" points="39.7301,421.75 86.6642,477.968 39.7301,477.968"/>
<polygon fill="#0505ff" points="86.6642,421.75 133.598,421.75 133.598,477.968"/>
<polygon fill="#0505ff" points="86.6642,421.75 133.598,477.968 86.6642,477.968"/>
<polygon fill="#0505ff" points="86.6642,477.968 133.598,477.968 115.91,513"/>
<polygon fill="#0505ff" points="133.598,477.968 133.598,513 115.91,513"/>
<polygon fill="#0505ff" points="86.6642,477.968 115.91,513 86.6642,513"/>
<polygon fill="#0505ff" points="39.7301,477.968 86.6642,477.968 68.9761,513"/>
<polygon fill="#0505ff" points="86.6642,477.968 86.6642,513 68.9761,513"/>
<polygon fill="#0505ff" points="39.7301,477.968 68.9761,513 39.7301,513"/>
<polygon fill="#0505ff" points="133.598,196.875 180.354,196.875 180.354,253.094"/>
<polygon fill="#0505ff" points="133.598,196.875 180.354,253.094 133.598,253.094"/>
<polygon fill="#0505ff" points="180.354,196.875 227.111,196.875 227.111,253.094"/>
<polygon fill="#0505ff" points="180.354,196.875 227.111,253.094 180.354,253.094"/>
<polygon fill="#0505ff" points="180.354,253.094 227.111,253.094 227.111,309.312"/>
<polygon fill="#0505ff" points="180.354,253.094 227.111,309.312 180.354,309.312"/>
<polygon fill="#0505ff" points="133.598,253.094 180.354,253.094 180.354,309.312"/>
<polygon fill="#0505ff" points="133.598,253.094 180.354,309.312 133.598,309.312"/>
<polygon fill="#0505ff" points="133.598,309.312 180.354,309.312 180.354,365.531"/>
<polygon fill="#0505ff" points="133.598,309.312 180.354,365.531 133.598,365.531"/>
<polygon fill="#0505ff" points="180.354,309.312 227.111,309.312 227.111,365.531"/>
<polygon fill="#0505ff" points="180.354,309.312 227.111,365.531 180.354,365.531"/>
<polygon fill="#0505ff" points="180.354,365.531 227.111,365.531 227.111,421.75"/>
<polygon fill="#0505ff" points="180.354,365.531 227.111,421.75 180.354,421.75"/>
<polygon fill="#0505ff" points="133.598,365.531 180.354,365.531 180.354,421.75"/>
<polygon fill="#0505ff" points="133.598,365.531 180.354,421.75 133.598,421.75"/>
<polygon fill="#0505ff" points="133.598,421.75 180.354,421.75 180.354,477.968"/>
<polygon fill="#0505ff" points="133.598,421.75 180.354,477.968 133.598,477.968"/>
<polygon fill="#0505ff" points="180.354,421.75 227.111,421.75 227.111,477.968"/>
<polygon fill="#0505ff" points="180.354,421.75 227.111,477.968 180.354,477.968"/>
<polygon fill="#0505ff" points="180.354,477.968 227.111,477.968 209.489,513"/>
<polygon fill="#0505ff" points="227.111,477.968 227.111,513 209.489,513"/>
<polygon fill="#0505ff" points="180.354,477.968 209.489,513 180.354,513"/>
<polygon fill="#0505ff" points="133.598,477.968 180.354,477.968 162.733,513"/>
<polygon fill="#0505ff" points="180.354,477.968 180.354,513 162.733,513"/>
<polygon fill="#0505ff" points="133.598,477.968 162.733,513 133.598,513"/>
<polygon fill="#0505ff" points="227.111,196.875 273.69,196.875 273.69,253.094"/>
<polygon fill="#0505ff" points="227.111,196.875 273.69,253.094 227.111,253.094"/>
<polygon fill="#0505ff" points="273.69,196.875 320.27,196.875 320.27,253.094"/>
<polygon fill="#0505ff" points="273.69,196.875 320.27,253.094 273.69,253.094"/>
<polygon fill="#0505ff" points="273.69,253.094 320.27,253.094 320.27,309.312"/>
<polygon fill="#0505ff" points="273.69,253.094 320.27,309.312 273.69,309.312"/>
<polygon fill="#0505ff" points="227.111,253.094 273.69,253.094 273.69,309.312"/>
<polygon fill="#0505ff" points="227.111,253.094 273.69,309.312 227.111,309.312"/>
<polygon fill="#0505ff" points="227.111,309.312 273.69,309.312 273.69,365.531"/>
<polygon fill="#0505ff" points="227.111,309.312 273.69,365.531 227.111,365.531"/>
<polygon fill="#0505ff" points="273.69,309.312 320.27,309.312 320.27,365.531"/>
<polygon fill="#0505ff" points="273.69,309.312 320.27,365.531 273.69,365.531"/>
<polygon fill="#0505ff" points="273.69,365.531 320.27,365.531 320.27,421.75"/>
<polygon fill="#0505ff" points="273.69,365.531 320.27,421.75 273.69,421.75"/>
<polygon fill="#0505ff" points="227.111,365.531 273.69,365.531 273.69,421.75"/>
<polygon fill="#0505ff" points="227.111,365.531 273.69,421.75 227.111,421.75"/>
<polygon fill="#0505ff" points="227.111,421.75 273.69,421.75 273.69,477.968"/>
<polygon fill="#0505ff" points="227.111,421.75 273.69,477.968 227.111,477.968"/>
<polygon fill="#0505ff" points="273.69,421.75 320.27,421.75 320.27,477.968"/>
<polygon fill="#0505ff" points="273.69,421.75 320.27,477.968 273.69,477.968"/>
<polygon fill="#0505ff" points="273.69,477.968 320.27,477.968 302.716,513"/>
<polygon fill="#0505ff" points="320.27,477.968 320.27,513 302.716,513"/>
<polygon fill="#0505ff" points="273.69,477.968 302.716,513 273.69,513"/>
<polygon fill="#0505ff" points="227.111,477.968 273.69,477.968 256.136,513"/>
<polygon fill="#0505ff" points="273.69,477.968 273.69,513 256.136,513"/>
<polygon fill="#0505ff" points="227.111,477.968 256.136,513 227.111,513"/>
<polygon fill="#0505ff" points="320.27,196.875 366.675,196.875 366.675,253.094"/>
<polygon fill="#0505ff" points="320.27,196.875 366.675,253.094 320.27,253.094"/>
<polygon fill="#0505ff" points="366.675,196.875 413.079,196.875 413.079,253.094"/>
<polygon fill="#0505ff" points="366.675,196.875 413.079,253.094 366.675,253.094"/>
<polygon fill="#0505ff" points="366.675,253.094 413.079,253.094 413.079,309.312"/>
<polygon fill="#0505ff" points="366.675,253.094 413.079,309.312 366.675,309.312"/>
<polygon fill="#0505ff" points="320.27,253.094 366.675,253.094 366.675,309.312"/>
<polygon fill="#0505ff" points="320.27,253.094 366.675,309.312 320.27,309.312"/>
<polygon fill="#0505ff" points="320.27,309.312 366.675,309.312 366.675,365.531"/>
<polygon fill="#0505ff" points="320.27,309.312 366.675,365.531 320.27,365.531"/>
<polygon fill="#0505ff" points="366.675,309.312 413.079,309.312 413.079,365.531"/>
<polygon fill="#0505ff" points="366.675,309.312 413.079,365.531 366.675,365.531"/>
<polygon fill="#0505ff" points="366.675,365.531 413.079,365.531 413.079,421.75"/>
<polygon fill="#0505ff" points="366.675,365.531 413.079,421.75 366.675,421.75"/>
<polygon fill="#0505ff" points="320.27,365.531 366.675,365.531 366.675,421.75"/>
<polygon fill="#0505ff" points="320.27,365.531 366.675,421.75 320.27,421.75"/>
<polygon fill="#0505ff" points="320.27,421.75 366.675,421.75 366.675,477.968"/>
<polygon fill="#0505ff" points="320.27,421.75 366.675,477.968 320.27,477.968"/>
<polygon fill="#0505ff" points="366.675,421.75 413.079,421.75 413.079,477.968"/>
<polygon fill="#0505ff" points="366.675,421.75 413.079,477.968 366.675,477.968"/>
<polygon fill="#0505ff" points="366.675,477.968 413.079,477.968 395.59,513"/>
<polygon fill="#0505ff" points="413.079,477.968 413.079,513 395.59,513"/>
<polygon fill="#0505ff" points="366.675,477.968 395.59,513 366.675,513"/>
<polygon fill="#0505ff" points="320.27,477.968 366.675,477.968 349.186,513"/>
<polygon fill="#0505ff" points="366.675,477.968 366.675,513 349.186,513"/>
<polygon fill="#0505ff" points="320.27,477.968 349.186,513 320.27,513"/>
<polygon fill="#0505ff" points="413.079,196.875 459.308,196.875 459.308,253.094"/>
<polygon fill="#0505ff" points="413.079,196.875 459.308,253.094 413.079,253.094"/>
<polygon fill="#0505ff" points="459.308,196.875 505.536,196.875 505.536,253.094"/>
<polygon fill="#0505ff" points="459.308,196.875 505.536,253.094 459.308,253.094"/>
<polygon fill="#0505ff" points="459.308,253.094 505.536,253.094 505.536,309.312"/>
<polygon fill="#0505ff" points="459.308,253.094 505.536,309.312 459.308,309.312"/>
<polygon fill="#0505ff" points="413.079,253.094 459.308,253.094 459.308,309.312"/>
<polygon fill="#0505ff" points="413.079,253.094 459.308,309.312 413.079,309.312"/>
<polygon fill="#0505ff" points="413.079,309.312 459.308,309.312 459.308,365.531"/>
<polygon fill="#0505ff" points="413.079,309.312 459.308,365.531 413.079,365.531"/>
<polygon fill="#0505ff" points="459.308,309.312 505.536,309.312 505.536,365.531"/>
<polygon fill="#0505ff" points="459.308,309.312 505.536,365.531 459.308,365.531"/>
<polygon fill="#0505ff" points="459.308,365.531 505.536,365.531 505.536,421.75"/>
<polygon fill="#0505ff" points="459.308,365.531 505.536,421.75 459.308,421.75"/>
<polygon fill="#0505ff" points="413.079,365.531 459.308,365.531 459.308,421.75"/>
<polygon fill="#0505ff" points="413.079,365.531 459.308,421.75 413.079,421.75"/>
<polygon fill="#0505ff" points="413.079,421.75 459.308,421.75 459.308,477.968"/>
<polygon fill="#0505ff" points="413.079,421.75 459.308,477.968 413.079,477.968"/>
<polygon fill="#0505ff" points="459.308,421.75 505.536,421.75 505.536,477.968"/>
<polygon fill="#0505ff" points="459.308,421.75 505.536,477.968 459.308,477.968"/>
<polygon fill="#0505ff" points="459.308,477.968 505.536,477.968 488.114,513"/>
<polygon fill="#0505ff" points="505.536,477.968 505.536,513 488.114,513"/>
<polygon fill="#0505ff" points="459.308,477.968 488.114,513 459.308,513"/>
<polygon fill="#0505ff" points="413.079,477.968 459.308,477.968 441.885,513"/>
<polygon fill="#0505ff" points="459.308,477.968 459.308,513 441.885,513"/>
<polygon fill="#0505ff" points="413.079,477.968 441.885,513 413.079,513"/>
<polygon fill="#0505ff" points="505.536,196.875 540.46,196.875 540.46,253.094"/>
<polygon fill="#0505ff" points="505.536,196.875 540.46,253.094 505.536,253.094"/>
<polygon fill="#0505ff" points="540.46,196.875 575.384,196.875 575.384,253.094"/>
<polygon fill="#0505ff" points="540.46,196.875 575.384,253.094 540.46,253.094"/>
<polygon fill="#0505ff" points="540.46,253.094 575.384,253.094 575.384,309.312"/>
<polygon fill="#0505ff" points="540.46,253.094 575.384,309.312 540.46,309.312"/>
<polygon fill="#0505ff" points="505.536,253.094 540.46,253.094 540.46,309.312"/>
<polygon fill="#0505ff" points="505.536,253.094 540.46,309.312 505.536,309.312"/>
<polygon fill="#0505ff" points="505.536,309.312 540.46,309.312 540.46,365.531"/>
<polygon fill="#0505ff" points="505.536,309.312 540.46,365.531 505.536,365.531"/>
<polygon fill="#0505ff" points="540.46,309.312 575.384,309.312 575.384,365.531"/>
<polygon fill="#0505ff" points="540.46,309.312 575.384,365.531 540.46,365.531"/>
<polygon fill="#0505ff" points="540.46,365.531 575.384,365.531 575.384,421.75"/>
<polygon fill="#0505ff" points="540.46,365.531 575.384,421.75 540.46,421.75"/>
<polygon fill="#0505ff" points="505.536,365.531 540.46,365.531 540.46,421.75"/>
<polygon fill="#0505ff" points="505.536,365.531 540.46,421.75 505.536,421.75"/>
<polygon fill="#0505ff" points="505.536,421.75 540.46,421.75 540.46,477.968"/>
<polygon fill="#0505ff" points="505.536,421.75 540.46,477.968 505.536,477.968"/>
<polygon fill="#0505ff" points="540.46,421.75 575.384,421.75 575.384,477.968"/>
<polygon fill="#0505ff" points="540.46,421.75 575.384,477.968 540.46,477.968"/>
<polygon fill="#0505ff" points="540.46,477.968 575.384,477.968 562.222,513"/>
<polygon fill="#0505ff" points="575.384,477.968 575.384,513 562.222,513"/>
<polygon fill="#0505ff" points="540.46,477.968 562.222,513 540.46,513"/>
<polygon fill="#0505ff" points="505.536,477.968 540.46,477.968 527.298,513"/>
<polygon fill="#0505ff" points="540.46,477.968 540.46,513 527.298,513"/>
<polygon fill="#0505ff" points="505.536,477.968 527.298,513 505.536,513"/>
<polygon fill="#0505ff" points="575.384,196.875 610.308,196.875 610.308,253.094"/>
<polygon fill="#0505ff" points="575.384,196.875 610.308,253.094 575.384,253.094"/>
<polygon fill="#0505ff" points="610.308,196.875 645.231,196.875 645.231,253.094"/>
<polygon fill="#0505ff" points="610.308,196.875 645.231,253.094 610.308,253.094"/>
<polygon fill="#0505ff" points="610.308,253.094 645.231,253.094 645.231,309.312"/>
<polygon fill="#0505ff" points="610.308,253.094 645.231,309.312 610.308,309.312"/>
<polygon fill="#0505ff" points="575.384,253.094 610.308,253.094 610.308,309.312"/>
<polygon fill="#0505ff" points="575.384,253.094 610.308,309.312 575.384,309.312"/>
<polygon fill="#0505ff" points="575.384,309.312 610.308,309.312 610.308,365.531"/>
<polygon fill="#0505ff" points="575.384,309.312 610.308,365.531 575.384,365.531"/>
<polygon fill="#0505ff" points="610.308,309.312 645.231,309.312 645.231,365.531"/>
<polygon fill="#0505ff" points="610.308,309.312 645.231,365.531 610.308,365.531"/>
<polygon fill="#0505ff" points="610.308,365.531 645.231,365.531 645.231,421.75"/>
<polygon fill="#0505ff" points="610.308,365.531 645.231,421.75 610.308,421.75"/>
<polygon fill="#0505ff" points="575.384,365.531 610.308,365.531 610.308,421.75"/>
<polygon fill="#0505ff" points="575.384,365.531 610.308,421.75 575.384,421.75"/>
<polygon fill="#0505ff" points="575.384,421.75 610.308,421.75 610.308,477.968"/>
<polygon fill="#0505ff" points="575.384,421.75 610.308,477.968 575.384,477.968"/>
<polygon fill="#0505ff" points="610.308,421.75 645.231,421.75 645.231,477.968"/>
<polygon fill="#0505ff" points="610.308,421.75 645.231,477.968 610.308,477.968"/>
<polygon fill="#0505ff" points="610.308,477.968 645.231,477.968 632.069,513"/>
<polygon fill="#0505ff" points="645.231,477.968 645.231,513 632.069,513"/>
<polygon fill="#0505ff" points="610.308,477.968 632.069,513 610.308,513"/>
<polygon fill="#0505ff" points="575.384,477.968 610.308,477.968 597.146,513"/>
<polygon fill="#0505ff" points="610.308,477.968 610.308,513 597.146,513"/>
<polygon fill="#0505ff" points="575.384,477.968 597.146,513 575.384,513"/>
<polygon fill="#0505ff" points="645.231,196.875 691.443,196.875 691.443,253.094"/>
<polygon fill="#0505ff" points="645.231,196.875 691.443,253.094 645.231,253.094"/>
<polygon fill="#0505ff" points="691.443,196.875 737.655,196.875 737.655,253.094"/>
<polygon fill="#0505ff" points="691.443,196.875 737.655,253.094 691.443,253.094"/>
<polygon fill="#0505ff" points="691.443,253.094 737.655,253.094 737.655,309.312"/>
<polygon fill="#0505ff" points="691.443,253.094 737.655,309.312 691.443,309.312"/>
<polygon fill="#0505ff" points="645.231,253.094 691.443,253.094 691.443,309.312"/>
<polygon fill="#0505ff" points="645.231,253.094 691.443,309.312 645.231,309.312"/>
<polygon fill="#0505ff" points="645.231,309.312 691.443,309.312 691.443,365.531"/>
<polygon fill="#0505ff" points="645.231,309.312 691.443,365.531 645.231,365.531"/>
<polygon fill="#0505ff" points="691.443,309.312 737.655,309.312 737.655,365.531"/>
<polygon fill="#0505ff" points="691.443,309.312 737.655,365.531 691.443,365.531"/>
<polygon fill="#0505ff" points="691.443,365.531 737.655,365.531 737.655,421.75"/>
<polygon fill="#0505ff" points="691.443,365.531 737.655,421.75 691.443,421.75"/>
<polygon fill="#0505ff" points="645.231,365.531 691.443,365.531 691.443,421.75"/>
<polygon fill="#0505ff" points="645.231,365.531 691.443,421.75 645.231,421.75"/>
<polygon fill="#0505ff" points="645.231,421.75 691.443,421.75 691.443,477.968"/>
<polygon fill="#0505ff" points="645.231,421.75 691.443,477.968 645.231,477.968"/>
<polygon fill="#0505ff" points="691.443,421.75 737.655,421.75 737.655,477.968"/>
<polygon fill="#0505ff" points="691.443,421.75 737.655,477.968 691.443,477.968"/>
<polygon fill="#0505ff" points="691.443,477.968 737.655,477.968 720.239,513"/>
<polygon fill="#0505ff" points="737.655,477.968 737.655,513 720.239,513"/>
<polygon fill="#0505ff" points="691.443,477.968 720.239,513 691.443,513"/>
<polygon fill="#0505ff" points="645.231,477.968 691.443,477.968 674.027,513"/>
<polygon fill="#0505ff" points="691.443,477.968 691.443,513 674.027,513"/>
<polygon fill="#0505ff" points="645.231,477.968 674.027,513 645.231,513"/>
<polygon fill="#0505ff" points="737.655,196.875 783.868,196.875 783.868,253.094"/>
<polygon fill="#0505ff" points="737.655,196.875 783.868,253.094 737.655,253.094"/>
<polygon fill="#0505ff" points="783.868,196.875 830.08,196.875 830.08,253.094"/>
<polygon fill="#0505ff" points="783.868,196.875 830.08,253.094 783.868,253.094"/>
<polygon fill="#0505ff" points="783.868,253.094 830.08,253.094 830.08,309.312"/>
<polygon fill="#0505ff" points="783.868,253.094 830.08,309.312 783.868,309.312"/>
<polygon fill="#0505ff" points="737.655,253.094 783.868,253.094 783.868,309.312"/>
<polygon fill="#0505ff" points="737.655,253.094 783.868,309.312 737.655,309.312"/>
<polygon fill="#0505ff" points="737.655,309.312 783.868,309.312 783.868,365.531"/>
<polygon fill="#0505ff" points="737.655,309.312 783.868,365.531 737.655,365.531"/>
<polygon fill="#0505ff" points="783.868,309.312 830.08,309.312 830.08,365.531"/>
<polygon fill="#0505ff" points="783.868,309.312 830.08,365.531 783.868,365.531"/>
<polygon fill="#0505ff" points="783.868,365.531 830.08,365.531 830.08,421.75"/>
<polygon fill="#0505ff" points="783.868,365.531 830.08,421.75 783.868,421.75"/>
<polygon fill="#0505ff" points="737.655,365.531 783.868,365.531 783.868,421.75"/>
<polygon fill="#0505ff" points="737.655,365.531 783.868,421.75 737.655,421.75"/>
<polygon fill="#0505ff" points="737.655,421.75 783.868,421.75 783.868,477.968"/>
<polygon fill="#0505ff" points="737.655,421.75 783.868,477.968 737.655,477.968"/>
<polygon fill="#0505ff" points="783.868,421.75 830.08,421.75 830.08,477.968"/>
<polygon fill="#0505ff" points="783.868,421.75 830.08,477.968 783.868,477.968"/>
<polygon fill="#0505ff" points="783.868,477.968 830.08,477.968 812.664,513"/>
<polygon fill="#0505ff" points="830.08,477.968 830.08,513 812.664,513"/>
<polygon fill="#0505ff" points="783.868,477.968 812.664,513 783.868,513"/>
<polygon fill="#0505ff" points="737.655,477.968 783.868,477.968 766.452,513"/>
<polygon fill="#0505ff" points="783.868,477.968 783.868,513 766.452,513"/>
<polygon fill="#0505ff" points="737.655,477.968 766.452,513 737.655,513"/>
<polygon fill="#0505ff" points="830.08,196.875 876.292,196.875 876.292,253.094"/>
<polygon fill="#0505ff" points="830.08,196.875 876.292,253.094 830.08,253.094"/>
<polygon fill="#0505ff" points="876.292,196.875 922.504,196.875 922.504,253.094"/>
<polygon fill="#0505ff" points="876.292,196.875 922.504,253.094 876.292,253.094"/>
<polygon fill="#0505ff" points="876.292,253.094 922.504,253.094 922.504,309.312"/>
<polygon fill="#0505ff" points="876.292,253.094 922.504,309.312 876.292,309.312"/>
<polygon fill="#0505ff" points="830.08,253.094 876.292,253.094 876.292,309.312"/>
<polygon fill="#0505ff" points="830.08,253.094 876.292,309.312 830.08,309.312"/>
<polygon fill="#0505ff" points="830.08,309.312 876.292,309.312 876.292,365.531"/>
<polygon fill="#0505ff" points="830.08,309.312 876.292,365.531 830.08,365.531"/>
<polygon fill="#0505ff" points="876.292,309.312 922.504,309.312 922.504,365.531"/>
<polygon fill="#0505ff" points="876.292,309.312 922.504,365.531 876.292,365.531"/>
<polygon fill="#0505ff" points="876.292,365.531 922.504,365.531 922.504,421.75"/>
<polygon fill="#0505ff" points="876.292,365.531 922.504,421.75 876.292,421.75"/>
<polygon fill="#0505ff" points="830.08,365.531 876.292,365.531 876.292,421.75"/>
<polygon fill="#0505ff" points="830.08,365.531 876.292,421.75 830.08,421.75"/>
<polygon fill="#0505ff" points="830.08,421.75 876.292,421.75 876.292,477.968"/>
<polygon fill="#0505ff" points="830.08,421.75 876.292,477.968 830.08,477.968"/>
<polygon fill="#0505ff" points="876.292,421.75 922.504,421.75 922.504,477.968"/>
<polygon fill="#0505ff" points="876.292,421.75 922.504,477.968 876.292,477.968"/>
<polygon fill="#0505ff" points="876.292,477.968 922.504,477.968 905.088,513"/>
<polygon fill="#0505ff" points="922.504,477.968 922.504,513 905.088,513"/>
<polygon fill="#0505ff" points="876.292,477.968 905.088,513 876.292,513"/>
<polygon fill="#0505ff" points="830.08,477.968 876.292,477.968 858.876,513"/>
<polygon fill="#0505ff" points="876.292,477.968 876.292,513 858.876,513"/>
<polygon fill="#0505ff" points="830.08,477.968 858.876,513 830.08,513"/>
<polygon fill="#0505ff" points="922.504,196.875 968.717,196.875 968.717,253.094"/>
<polygon fill="#0505ff" points="922.504,196.875 968.717,253.094 922.504,253.094"/>
<polygon fill="#0505ff" points="968.717,196.875 1014.93,196.875 1014.93,253.094"/>
<polygon fill="#0505ff" points="968.717,196.875 1014.93,253.094 968.717,253.094"/>
<polygon fill="#0505ff" points="968.717,253.094 1014.93,253.094 1014.93,309.312"/>
<polygon fill="#0505ff" points="968.717,253.094 1014.93,309.312 968.717,309.312"/>
<polygon fill="#0505ff" points="922.504,253.094 968.717,253.094 968.717,309.312"/>
<polygon fill="#0505ff" points="922.504,253.094 968.717,309.312 922.504,309.312"/>
<polygon fill="#0505ff" points="922.504,309.312 968.717,309.312 968.717,365.531"/>
<polygon fill="#0505ff" points="922.504,309.312 968.717,365.531 922.504,365.531"/>
<polygon fill="#0505ff" points="968.717,309.312 1014.93,309.312 1014.93,365.531"/>
<polygon fill="#0505ff" points="968.717,309.312 1014.93,365.531 968.717,365.531"/>
<polygon fill="#0505ff" points="968.717,365.531 1014.93,365.531 1014.93,421.75"/>
<polygon fill="#0505ff" points="968.717,365.531 1014.93,421.75 968.717,421.75"/>
<polygon fill="#0505ff" points="922.504,365.531 968.717,365.531 968.717,421.75"/>
<polygon fill="#0505ff" points="922.504,365.531 968.717,421.75 922.504,421.75"/>
<polygon fill="#0505ff" points="922.504,421.75 968.717,421.75 968.717,477.968"/>
<polygon fill="#0505ff" points="922.504,421.75 968.717,477.968 922.504,477.968"/>
<polygon fill="#0505ff" points="968.717,421.75 1014.93,421.75 1014.93,477.968"/>
<polygon fill="#0505ff" points="968.717,421.75 1014.93,477.968 968.717,477.968"/>
<polygon fill="#0505ff" points="968.717,477.968 1014.93,477.968 997.512,513"/>
<polygon fill="#0505ff" points="1014.93,477.968 1014.93,513 997.512,513"/>
<polygon fill="#0505ff" points="968.717,477.968 997.512,513 968.717,513"/>
<polygon fill="#0505ff" points="922.504,477.968 968.717,477.968 951.3,513"/>
<polygon fill="#0505ff" points="968.717,477.968 968.717,513 951.3,513"/>
<polygon fill="#0505ff" points="922.504,477.968 951.3,513 922.504,513"/>
<polygon fill="#0505ff" points="1014.93,196.875 1061.14,196.875 1061.14,253.094"/>
<polygon fill="#0505ff" points="1014.93,196.875 1061.14,253.094 1014.93,253.094"/>
<polygon fill="#0505ff" points="1061.14,196.875 1107.35,196.875 1107.35,253.094"/>
<polygon fill="#0505ff" points="1061.14,196.875 1107.35,253.094 1061.14,253.094"/>
<polygon fill="#0505ff" points="1061.14,253.094 1107.35,253.094 1107.35,309.312"/>
<polygon fill="#0505ff" points="1061.14,253.094 1107.35,309.312 1061.14,309.312"/>
<polygon fill="#0505ff" points="1014.93,253.094 1061.14,253.094 1061.14,309.312"/>
<polygon fill="#0505ff" points="1014.93,253.094 1061.14,309.312 1014.93,309.312"/>
<polygon fill="#0505ff" points="1014.93,309.312 1061.14,309.312 1061.14,365.531"/>
<polygon fill="#0505ff" points="1014.93,309.312 1061.14,365.531 1014.93,365.531"/>
<polygon fill="#0505ff" points="1061.14,309.312 1107.35,309.312 1107.35,365.531"/>
<polygon fill="#0505ff" points="1061.14,309.312 1107.35,365.531 1061.14,365.531"/>
<polygon fill="#0505ff" points="1061.14,365.531 1107.35,365.531 1107.35,421.75"/>
<polygon fill="#0505ff" points="1061.14,365.531 1107.35,421.75 1061.14,421.75"/>
<polygon fill="#0505ff" points="1014.93,365.531 1061.14,365.531 1061.14,421.75"/>
<polygon fill="#0505ff" points="1014.93,365.531 1061.14,421.75 1014.93,421.75"/>
<polygon fill="#0505ff" points="1014.93,421.75 1061.14,421.75 1061.14,477.968"/>
<polygon fill="#0505ff" points="1014.93,421.75 1061.14,477.968 1014.93,477.968"/>
<polygon fill="#0505ff" points="1061.14,421.75 1107.35,421.75 1107.35,477.968"/>
<polygon fill="#0505ff" points="1061.14,421.75 1107.35,477.968 1061.14,477.968"/>
<polygon fill="#0505ff" points="1061.14,477.968 1107.35,477.968 1089.94,513"/>
<polygon fill="#0505ff" points="1107.35,477.968 1107.35,513 1089.94,513"/>
<polygon fill="#0505ff" points="1061.14,477.968 1089.94,513 1061.14,513"/>
<polygon fill="#0505ff" points="1014.93,477.968 1061.14,477.968 1043.72,513"/>
<polygon fill="#0505ff" points="1061.14,477.968 1061.14,513 1043.72,513"/>
<polygon fill="#0505ff" points="1014.93,477.968 1043.72,513 1014.93,513"/>
<polygon fill="#0505ff" points="1107.35,196.875 1153.57,196.875 1153.57,253.094"/>
<polygon fill="#0505ff" points="1107.35,196.875 1153.57,253.094 1107.35,253.094"/>
<polygon fill="#0505ff" points="1153.57,196.875 1166,196.875 1166,212.003"/>
<polygon fill="#0505ff" points="1153.57,196.875 1166,212.003 1153.57,253.094"/>
<polygon fill="#0505ff" points="1166,212.003 1166,253.094 1153.57,253.094"/>
<polygon fill="#0505ff" points="1153.57,253.094 1166,253.094 1166,268.221"/>
<polygon fill="#0505ff" points="1153.57,253.094 1166,268.221 1153.57,309.312"/>
<polygon fill="#0505ff" points="1166,268.221 1166,309.312 1153.57,309.312"/>
<polygon fill="#0505ff" points="1107.35,253.094 1153.57,253.094 1153.57,309.312"/>
<polygon fill="#0505ff" points="1107.35,253.094 1153.57,309.312 1107.35,309.312"/>
<polygon fill="#0505ff" points="1107.35,309.312 1153.57,309.312 1153.57,365.531"/>
<polygon fill="#0505ff" points="1107.35,309.312 1153.57,365.531 1107.35,365.531"/>
<polygon fill="#0505ff" points="1153.57,309.312 1166,309.312 1166,324.44"/>
<polygon fill="#0505ff" points="1153.57,309.312 1166,324.44 1153.57,365.531"/>
<polygon fill="#0505ff" points="1166,324.44 1166,365.531 1153.57,365.531"/>
<polygon fill="#0505ff" points="1153.57,365.531 1166,365.531 1166,380.658"/>
<polygon fill="#0505ff" points="1153.57,365.531 1166,380.658 1153.57,421.75"/>
<polygon fill="#0505ff" points="1166,380.658 1166,421.75 1153.57,421.75"/>
<polygon fill="#0505ff" points="1107.35,365.531 1153.57,365.531 1153.57,421.75"/>
<polygon fill="#0505ff" points="1107.35,365.531 1153.57,421.75 1107.35,421.75"/>
<polygon fill="#0505ff" points="1107.35,421.75 1153.57,421.75 1153.57,477.968"/>
<polygon fill="#0505ff" points="1107.35,421.75 1153.57,477.968 1107.35,477.968"/>
<polygon fill="#0505ff" points="1153.57,421.75 1166,421.75 1166,436.877"/>
<polygon fill="#0505ff" points="1153.57,421.75 1166,436.877 1153.57,477.968"/>
<polygon fill="#0505ff" points="1166,436.877 1166,477.968 1153.57,477.968"/>
<polygon fill="#0505ff" points="1153.57,477.968 1166,477.968 1166,493.096"/>
<polygon fill="#0505ff" points="1153.57,477.968 1166,493.096 1153.57,513"/>
<polygon fill="#0505ff" points="1166,493.096 1166,513 1153.57,513"/>
<polygon fill="#0505ff" points="1107.35,477.968 1153.57,477.968 1136.15,513"/>
<polygon fill="#0505ff" points="1153.57,477.968 1153.57,513 1136.15,513"/>
<polygon fill="#0505ff" points="1107.35,477.968 1136.15,513 1107.35,513"/>
<polygon fill="#ffff06" points="482.254,127.028 482.254,103.745 436.219,103.745"/>
<polygon fill="#ffff06" points="482.254,127.028 436.219,103.745 436.219,127.028"/>
<polygon fill="#ffff06" points="482.254,103.745 482.254,80.463 436.219,80.463"/>
<polygon fill="#ffff06" points="482.254,103.745 436.219,80.463 436.219,103.745"/>
<polygon fill="#ffff06" points="436.219,103.745 436.219,80.463 390.182,80.463"/>
<polygon fill="#ffff06" points="436.219,103.745 390.182,80.463 390.182,103.745"/>
<polygon fill="#ffff06" points="436.219,127.028 436.219,103.745 390.182,103.745"/>
<polygon fill="#ffff06" points="436.219,127.028 390.182,103.745 390.182,127.028"/>
<polygon fill="#ffff06" points="390.182,127.028 390.182,103.745 344.146,103.745"/>
<polygon fill="#ffff06" points="390.182,127.028 344.146,103.745 344.146,127.028"/>
<polygon fill="#ffff06" points="390.182,103.745 390.182,80.463 344.146,80.463"/>
<polygon fill="#ffff06" points="390.182,103.745 344.146,80.463 344.146,103.745"/>
<polygon fill="#ffff06" points="344.146,103.745 344.146,80.463 298.111,80.463"/>
<polygon fill="#ffff06" points="344.146,103.745 298.111,80.463 298.111,103.745"/>
<polygon fill="#ffff06" points="344.146,127.028 344.146,103.745 298.111,103.745"/>
<polygon fill="#ffff06" points="344.146,127.028 298.111,103.745 298.111,127.028"/>
<polygon fill="#ffff06" points="298.111,127.028 298.111,103.745 252.075,103.745"/>
<polygon fill="#ffff06" points="298.111,127.028 252.075,103.745 252.075,127.028"/>
<polygon fill="#ffff06" points="298.111,103.745 298.111,80.463 252.075,80.463"/>
<polygon fill="#ffff06" points="298.111,103.745 252.075,80.463 252.075,103.745"/>
<polygon fill="#ffff06" points="252.075,103.745 252.075,80.463 206.04,80.463"/>
<polygon fill="#ffff06" points="252.075,103.745 206.04,80.463 206.04,103.745"/>
<polygon fill="#ffff06" points="252.075,127.028 252.075,103.745 206.04,103.745"/>
<polygon fill="#ffff06" points="252.075,127.028 206.04,103.745 206.04,127.028"/>
<polygon fill="#ffff06" points="206.04,127.028 206.04,103.745 160.003,103.745"/>
<polygon fill="#ffff06" points="206.04,127.028 160.003,103.745 160.003,127.028"/>
<polygon fill="#ffff06" points="206.04,103.745 206.04,80.463 160.003,80.463"/>
<polygon fill="#ffff06" points="206.04,103.745 160.003,80.463 160.003,103.745"/>
<polygon fill="#ffff06" points="160.003,103.745 160.003,80.463 113.968,80.463"/>
<polygon fill="#ffff06" points="160.003,103.745 113.968,80.463 113.968,103.745"/>
<polygon fill="#ffff06" points="160.003,127.028 160.003,103.745 113.968,103.745"/>
<polygon fill="#ffff06" points="160.003,127.028 113.968,103.745 113.968,127.028"/>
<polygon fill="#ffff06" points="113.968,127.028 113.968,103.745 67.9323,103.745"/>
<polygon fill="#ffff06" points="113.968,127.028 67.9323,103.745 67.9323,127.028"/>
<polygon fill="#ffff06" points="113.968,103.745 113.968,80.463 67.9323,80.463"/>
<polygon fill="#ffff06" points="113.968,103.745 67.9323,80.463 67.9323,103.745"/>
<polygon fill="#ffff06" points="67.9323,103.745 67.9323,80.463 21.8967,80.463"/>
<polygon fill="#ffff06" points="67.9323,103.745 21.8967,80.463 21.8967,103.745"/>
<polygon fill="#ffff06" points="67.9323,127.028 67.9323,103.745 21.8967,103.745"/>
<polygon fill="#ffff06" points="67.9323,127.028 21.8967,103.745 21.8967,127.028"/>
<polygon fill="#ffff06" points="21.8967,127.028 21.8967,103.745 0,115.954"/>
<polygon fill="#ffff06" points="21.8967,103.745 0,103.745 0,115.954"/>
<polygon fill="#ffff06" points="21.8967,127.028 0,115.954 0,127.028"/>
<polygon fill="#ffff06" points="21.8967,103.745 21.8967,80.463 0,92.6713"/>
<polygon fill="#ffff06" points="21.8967,80.463 0,80.463 0,92.6713"/>
<polygon fill="#ffff06" points="21.8967,103.745 0,92.6713 0,103.745"/>
<polygon fill="#ffff06" points="668.514,127.028 668.514,103.745 621.949,103.745"/>
<polygon fill="#ffff06" points="668.514,127.028 621.949,103.745 621.949,127.028"/>
<polygon fill="#ffff06" points="668.514,103.745 668.514,80.463 621.949,80.463"/>
<polygon fill="#ffff06" points="668.514,103.745 621.949,80.463 621.949,103.745"/>
<polygon fill="#ffff06" points="621.949,103.745 621.949,80.463 575.384,80.463"/>
<polygon fill="#ffff06" points="621.949,103.745 575.384,80.463 575.384,103.745"/>
<polygon fill="#ffff06" points="621.949,127.028 621.949,103.745 575.384,103.745"/>
<polygon fill="#ffff06" points="621.949,127.028 575.384,103.745 575.384,127.028"/>
<polygon fill="#ffff06" points="575.384,127.028 575.384,103.745 528.819,103.745"/>
<polygon fill="#ffff06" points="575.384,127.028 528.819,103.745 528.819,127.028"/>
<polygon fill="#ffff06" points="575.384,103.745 575.384,80.463 528.819,80.463"/>
<polygon fill="#ffff06" points="575.384,103.745 528.819,80.463 528.819,103.745"/>
<polygon fill="#ffff06" points="528.819,103.745 528.819,80.463 482.254,80.463"/>
<polygon fill="#ffff06" points="528.819,103.745 482.254,80.463 482.254,103.745"/>
<polygon fill="#ffff06" points="528.819,127.028 528.819,103.745 482.254,103.745"/>
<polygon fill="#ffff06" points="528.819,127.028 482.254,103.745 482.254,127.028"/>
<polygon fill="#ffff06" points="1166,99.2405 1166,80.463 1128.87,80.463"/>
<polygon fill="#ffff06" points="1166,103.745 1166,99.2405 1128.87,103.745"/>
<polygon fill="#ffff06" points="1166,99.2405 1128.87,80.463 1128.87,103.745"/>
<polygon fill="#ffff06" points="1166,122.523 1166,103.745 1128.87,103.745"/>
<polygon fill="#ffff06" points="1166,127.028 1166,122.523 1128.87,127.028"/>
<polygon fill="#ffff06" points="1166,122.523 1128.87,103.745 1128.87,127.028"/>
<polygon fill="#ffff06" points="1128.87,127.028 1128.87,103.745 1082.84,103.745"/>
<polygon fill="#ffff06" points="1128.87,127.028 1082.84,103.745 1082.84,127.028"/>
<polygon fill="#ffff06" points="1128.87,103.745 1128.87,80.463 1082.84,80.463"/>
<polygon fill="#ffff06" points="1128.87,103.745 1082.84,80.463 1082.84,103.745"/>
<polygon fill="#ffff06" points="1082.84,103.745 1082.84,80.463 1036.8,80.463"/>
<polygon fill="#ffff06" points="1082.84,103.745 1036.8,80.463 1036.8,103.745"/>
<polygon fill="#ffff06" points="1082.84,127.028 1082.84,103.745 1036.8,103.745"/>
<polygon fill="#ffff06" points="1082.84,127.028 1036.8,103.745 1036.8,127.028"/>
<polygon fill="#ffff06" points="1036.8,127.028 1036.8,103.745 990.764,103.745"/>
<polygon fill="#ffff06" points="1036.8,127.028 990.764,103.745 990.764,127.028"/>
<polygon fill="#ffff06" points="1036.8,103.745 1036.8,80.463 990.764,80.463"/>
<polygon fill="#ffff06" points="1036.8,103.745 990.764,80.463 990.764,103.745"/>
<polygon fill="#ffff06" points="990.764,103.745 990.764,80.463 944.729,80.463"/>
<polygon fill="#ffff06" points="990.764,103.745 944.729,80.463 944.729,103.745"/>
<polygon fill="#ffff06" points="990.764,127.028 990.764,103.745 944.729,103.745"/>
<polygon fill="#ffff06" points="990.764,127.028 944.729,103.745 944.729,127.028"/>
<polygon fill="#ffff06" points="944.729,127.028 944.729,103.745 898.692,103.745"/>
<polygon fill="#ffff06" points="944.729,127.028 898.692,103.745 898.692,127.028"/>
<polygon fill="#ffff06" points="944.729,103.745 944.729,80.463 898.692,80.463"/>
<polygon fill="#ffff06" points="944.729,103.745 898.692,80.463 898.692,103.745"/>
<polygon fill="#ffff06" points="898.692,103.745 898.692,80.463 852.657,80.463"/>
<polygon fill="#ffff06" points="898.692,103.745 852.657,80.463 852.657,103.745"/>
<polygon fill="#ffff06" points="898.692,127.028 898.692,103.745 852.657,103.745"/>
<polygon fill="#ffff06" points="898.692,127.028 852.657,103.745 852.657,127.028"/>
<polygon fill="#ffff06" points="852.657,127.028 852.657,103.745 806.621,103.745"/>
<polygon fill="#ffff06" points="852.657,127.028 806.621,103.745 806.621,127.028"/>
<polygon fill="#ffff06" points="852.657,103.745 852.657,80.463 806.621,80.463"/>
<polygon fill="#ffff06" points="852.657,103.745 806.621,80.463 806.621,103.745"/>
<polygon fill="#ffff06" points="806.621,103.745 806.621,80.463 760.586,80.463"/>
<polygon fill="#ffff06" points="806.621,103.745 760.586,80.463 760.586,103.745"/>
<polygon fill="#ffff06" points="806.621,127.028 806.621,103.745 760.586,103.745"/>
<polygon fill="#ffff06" points="806.621,127.028 760.586,103.745 760.586,127.028"/>
<polygon fill="#ffff06" points="760.586,127.028 760.586,103.745 714.549,103.745"/>
<polygon fill="#ffff06" points="760.586,127.028 714.549,103.745 714.549,127.028"/>
<polygon fill="#ffff06" points="760.586,103.745 760.586,80.463 714.549,80.463"/>
<polygon fill="#ffff06" points="760.586,103.745 714.549,80.463 714.549,103.745"/>
<polygon fill="#ffff06" points="714.549,103.745 714.549,80.463 668.514,80.463"/>
<polygon fill="#ffff06" points="714.549,103.745 668.514,80.463 668.514,103.745"/>
<polygon fill="#ffff06" points="714.549,127.028 714.549,103.745 668.514,103.745"/>
<polygon fill="#ffff06" points="714.549,127.028 668.514,103.745 668.514,127.028"/>
<polygon fill="#0606ff" points="320.27,196.875 366.675,196.875 374.51,173.593"/>
<polygon fill="#0606ff" points="320.27,196.875 374.51,173.593 355.227,161.951"/>
<polygon fill="#0606ff" points="366.675,196.875 413.079,196.875 401.631,161.951"/>
<polygon fill="#0606ff" points="366.675,196.875 401.631,161.951 374.51,173.593"/>
<polygon fill="#0606ff" points="355.227,161.951 374.51,173.593 401.631,161.951"/>
<polygon fill="#0606ff" points="355.227,161.951 401.631,161.951 390.182,127.028"/>
<polygon fill="#0606ff" points="320.27,196.875 355.227,161.951 336.188,150.311"/>
<polygon fill="#0606ff" points="320.27,196.875 336.188,150.311 309.191,161.951"/>
<polygon fill="#0606ff" points="355.227,161.951 390.182,127.028 344.146,127.028"/>
<polygon fill="#0606ff" points="355.227,161.951 344.146,127.028 336.188,150.311"/>
<polygon fill="#0606ff" points="309.191,161.951 336.188,150.311 344.146,127.028"/>
<polygon fill="#0606ff" points="309.191,161.951 344.146,127.028 298.111,127.028"/>
<polygon fill="#0606ff" points="320.27,196.875 309.191,161.951 281.83,173.593"/>
<polygon fill="#0606ff" points="320.27,196.875 281.83,173.593 273.69,196.875"/>
<polygon fill="#0606ff" points="309.191,161.951 298.111,127.028 262.611,161.951"/>
<polygon fill="#0606ff" points="309.191,161.951 262.611,161.951 281.83,173.593"/>
<polygon fill="#0606ff" points="273.69,196.875 281.83,173.593 262.611,161.951"/>
<polygon fill="#0606ff" points="273.69,196.875 262.611,161.951 227.111,196.875"/>
<polygon fill="#0606ff" points="227.111,196.875 262.611,161.951 243.754,150.311"/>
<polygon fill="#0606ff" points="227.111,196.875 243.754,150.311 216.575,161.951"/>
<polygon fill="#0606ff" points="262.611,161.951 298.111,127.028 252.075,127.028"/>
<polygon fill="#0606ff" points="262.611,161.951 252.075,127.028 243.754,150.311"/>
<polygon fill="#0606ff" points="216.575,161.951 243.754,150.311 252.075,127.028"/>
<polygon fill="#0606ff" points="216.575,161.951 252.075,127.028 206.04,127.028"/>
<polygon fill="#0606ff" points="227.111,196.875 216.575,161.951 188.916,173.593"/>
<polygon fill="#0606ff" points="227.111,196.875 188.916,173.593 180.354,196.875"/>
<polygon fill="#0606ff" points="216.575,161.951 206.04,127.028 169.818,161.951"/>
<polygon fill="#0606ff" points="216.575,161.951 169.818,161.951 188.916,173.593"/>
<polygon fill="#0606ff" points="180.354,196.875 188.916,173.593 169.818,161.951"/>
<polygon fill="#0606ff" points="180.354,196.875 169.818,161.951 133.598,196.875"/>
<polygon fill="#0606ff" points="39.7301,196.875 86.6642,196.875 95.7652,173.593"/>
<polygon fill="#0606ff" points="39.7301,196.875 95.7652,173.593 76.8492,161.951"/>
<polygon fill="#0606ff" points="86.6642,196.875 133.598,196.875 123.783,161.951"/>
<polygon fill="#0606ff" points="86.6642,196.875 123.783,161.951 95.7652,173.593"/>
<polygon fill="#0606ff" points="76.8492,161.951 95.7652,173.593 123.783,161.951"/>
<polygon fill="#0606ff" points="76.8492,161.951 123.783,161.951 113.968,127.028"/>
<polygon fill="#0606ff" points="39.7301,196.875 76.8492,161.951 58.5315,150.311"/>
<polygon fill="#0606ff" points="39.7301,196.875 58.5315,150.311 30.8131,161.951"/>
<polygon fill="#0606ff" points="76.8492,161.951 113.968,127.028 67.9323,127.028"/>
<polygon fill="#0606ff" points="76.8492,161.951 67.9323,127.028 58.5315,150.311"/>
<polygon fill="#0606ff" points="30.8131,161.951 58.5315,150.311 67.9323,127.028"/>
<polygon fill="#0606ff" points="30.8131,161.951 67.9323,127.028 21.8967,127.028"/>
<polygon fill="#0606ff" points="39.7301,196.875 30.8131,161.951 2.37799,173.593"/>
<polygon fill="#0606ff" points="39.7301,196.875 2.37799,173.593 0,196.875"/>
<polygon fill="#0606ff" points="2.37799,173.593 0,179.266 0,196.875"/>
<polygon fill="#0606ff" points="30.8131,161.951 21.8967,127.028 0,161.951"/>
<polygon fill="#0606ff" points="21.8967,127.028 0,147.049 0,161.951"/>
<polygon fill="#0606ff" points="30.8131,161.951 0,161.951 2.37799,173.593"/>
<polygon fill="#0606ff" points="0,161.951 0,172.111 2.37799,173.593"/>
<polygon fill="#0606ff" points="2.37799,173.593 0,172.111 0,179.266"/>
<polygon fill="#0606ff" points="21.8967,127.028 0,127.028 0,147.049"/>
<polygon fill="#0606ff" points="413.079,196.875 459.308,196.875 466.957,173.593"/>
<polygon fill="#0606ff" points="413.079,196.875 466.957,173.593 447.667,161.951"/>
<polygon fill="#0606ff" points="459.308,196.875 505.536,196.875 493.895,161.951"/>
<polygon fill="#0606ff" points="459.308,196.875 493.895,161.951 466.957,173.593"/>
<polygon fill="#0606ff" points="447.667,161.951 466.957,173.593 493.895,161.951"/>
<polygon fill="#0606ff" points="447.667,161.951 493.895,161.951 482.254,127.028"/>
<polygon fill="#0606ff" points="413.079,196.875 447.667,161.951 428.505,150.311"/>
<polygon fill="#0606ff" points="413.079,196.875 428.505,150.311 401.631,161.951"/>
<polygon fill="#0606ff" points="447.667,161.951 482.254,127.028 436.219,127.028"/>
<polygon fill="#0606ff" points="447.667,161.951 436.219,127.028 428.505,150.311"/>
<polygon fill="#0606ff" points="401.631,161.951 428.505,150.311 436.219,127.028"/>
<polygon fill="#0606ff" points="401.631,161.951 436.219,127.028 390.182,127.028"/>
<polygon fill="#0606ff" points="133.598,196.875 169.818,161.951 151.202,150.311"/>
<polygon fill="#0606ff" points="133.598,196.875 151.202,150.311 123.783,161.951"/>
<polygon fill="#0606ff" points="169.818,161.951 206.04,127.028 160.003,127.028"/>
<polygon fill="#0606ff" points="169.818,161.951 160.003,127.028 151.202,150.311"/>
<polygon fill="#0606ff" points="123.783,161.951 151.202,150.311 160.003,127.028"/>
<polygon fill="#0606ff" points="123.783,161.951 160.003,127.028 113.968,127.028"/>
<polygon fill="#0606ff" points="1107.35,196.875 1153.57,196.875 1145.33,173.593"/>
<polygon fill="#0606ff" points="1107.35,196.875 1145.33,173.593 1118.11,161.951"/>
<polygon fill="#0606ff" points="1153.57,196.875 1166,196.875 1164.32,161.951"/>
<polygon fill="#0606ff" points="1166,196.875 1166,163.603 1164.32,161.951"/>
<polygon fill="#0606ff" points="1153.57,196.875 1164.32,161.951 1145.33,173.593"/>
<polygon fill="#0606ff" points="1118.11,161.951 1145.33,173.593 1164.32,161.951"/>
<polygon fill="#0606ff" points="1118.11,161.951 1164.32,161.951 1128.87,127.028"/>
<polygon fill="#0606ff" points="1107.35,196.875 1118.11,161.951 1091.01,150.311"/>
<polygon fill="#0606ff" points="1107.35,196.875 1091.01,150.311 1072.08,161.951"/>
<polygon fill="#0606ff" points="1118.11,161.951 1128.87,127.028 1082.84,127.028"/>
<polygon fill="#0606ff" points="1118.11,161.951 1082.84,127.028 1091.01,150.311"/>
<polygon fill="#0606ff" points="1072.08,161.951 1091.01,150.311 1082.84,127.028"/>
<polygon fill="#0606ff" points="1072.08,161.951 1082.84,127.028 1036.8,127.028"/>
<polygon fill="#0606ff" points="1107.35,196.875 1072.08,161.951 1053.03,173.593"/>
<polygon fill="#0606ff" points="1107.35,196.875 1053.03,173.593 1061.14,196.875"/>
<polygon fill="#0606ff" points="1072.08,161.951 1036.8,127.028 1025.86,161.951"/>
<polygon fill="#0606ff" points="1072.08,161.951 1025.86,161.951 1053.03,173.593"/>
<polygon fill="#0606ff" points="1061.14,196.875 1053.03,173.593 1025.86,161.951"/>
<polygon fill="#0606ff" points="1061.14,196.875 1025.86,161.951 1014.93,196.875"/>
<polygon fill="#0606ff" points="922.504,196.875 968.717,196.875 960.72,173.593"/>
<polygon fill="#0606ff" points="922.504,196.875 960.72,173.593 933.616,161.951"/>
<polygon fill="#0606ff" points="968.717,196.875 1014.93,196.875 979.828,161.951"/>
<polygon fill="#0606ff" points="968.717,196.875 979.828,161.951 960.72,173.593"/>
<polygon fill="#0606ff" points="933.616,161.951 960.72,173.593 979.828,161.951"/>
<polygon fill="#0606ff" points="933.616,161.951 979.828,161.951 944.729,127.028"/>
<polygon fill="#0606ff" points="922.504,196.875 933.616,161.951 906.63,150.311"/>
<polygon fill="#0606ff" points="922.504,196.875 906.63,150.311 887.58,161.951"/>
<polygon fill="#0606ff" points="933.616,161.951 944.729,127.028 898.692,127.028"/>
<polygon fill="#0606ff" points="933.616,161.951 898.692,127.028 906.63,150.311"/>
<polygon fill="#0606ff" points="887.58,161.951 906.63,150.311 898.692,127.028"/>
<polygon fill="#0606ff" points="887.58,161.951 898.692,127.028 852.657,127.028"/>
<polygon fill="#0606ff" points="922.504,196.875 887.58,161.951 868.413,173.593"/>
<polygon fill="#0606ff" points="922.504,196.875 868.413,173.593 876.292,196.875"/>
<polygon fill="#0606ff" points="887.58,161.951 852.657,127.028 841.368,161.951"/>
<polygon fill="#0606ff" points="887.58,161.951 841.368,161.951 868.413,173.593"/>
<polygon fill="#0606ff" points="876.292,196.875 868.413,173.593 841.368,161.951"/>
<polygon fill="#0606ff" points="876.292,196.875 841.368,161.951 830.08,196.875"/>
<polygon fill="#0606ff" points="830.08,196.875 841.368,161.951 814.441,150.311"/>
<polygon fill="#0606ff" points="830.08,196.875 814.441,150.311 795.332,161.951"/>
<polygon fill="#0606ff" points="841.368,161.951 852.657,127.028 806.621,127.028"/>
<polygon fill="#0606ff" points="841.368,161.951 806.621,127.028 814.441,150.311"/>
<polygon fill="#0606ff" points="795.332,161.951 814.441,150.311 806.621,127.028"/>
<polygon fill="#0606ff" points="795.332,161.951 806.621,127.028 760.586,127.028"/>
<polygon fill="#0606ff" points="830.08,196.875 795.332,161.951 776.107,173.593"/>
<polygon fill="#0606ff" points="830.08,196.875 776.107,173.593 783.868,196.875"/>
<polygon fill="#0606ff" points="795.332,161.951 760.586,127.028 749.12,161.951"/>
<polygon fill="#0606ff" points="795.332,161.951 749.12,161.951 776.107,173.593"/>
<polygon fill="#0606ff" points="783.868,196.875 776.107,173.593 749.12,161.951"/>
<polygon fill="#0606ff" points="783.868,196.875 749.12,161.951 737.655,196.875"/>
<polygon fill="#0606ff" points="1166,163.603 1166,160.917 1164.32,161.951"/>
<polygon fill="#0606ff" points="1164.32,161.951 1166,160.917 1166,156.42"/>
<polygon fill="#0606ff" points="1164.32,161.951 1166,156.42 1128.87,127.028"/>
<polygon fill="#0606ff" points="1166,156.42 1166,127.028 1128.87,127.028"/>
<polygon fill="#0606ff" points="645.231,196.875 691.443,196.875 683.8,173.593"/>
<polygon fill="#0606ff" points="645.231,196.875 683.8,173.593 656.872,161.951"/>
<polygon fill="#0606ff" points="691.443,196.875 737.655,196.875 703.085,161.951"/>
<polygon fill="#0606ff" points="691.443,196.875 703.085,161.951 683.8,173.593"/>
<polygon fill="#0606ff" points="656.872,161.951 683.8,173.593 703.085,161.951"/>
<polygon fill="#0606ff" points="656.872,161.951 703.085,161.951 668.514,127.028"/>
<polygon fill="#0606ff" points="737.655,196.875 749.12,161.951 722.252,150.311"/>
<polygon fill="#0606ff" points="737.655,196.875 722.252,150.311 703.085,161.951"/>
<polygon fill="#0606ff" points="749.12,161.951 760.586,127.028 714.549,127.028"/>
<polygon fill="#0606ff" points="749.12,161.951 714.549,127.028 722.252,150.311"/>
<polygon fill="#0606ff" points="703.085,161.951 722.252,150.311 714.549,127.028"/>
<polygon fill="#0606ff" points="703.085,161.951 714.549,127.028 668.514,127.028"/>
<polygon fill="#0606ff" points="1014.93,196.875 1025.86,161.951 998.819,150.311"/>
<polygon fill="#0606ff" points="1014.93,196.875 998.819,150.311 979.828,161.951"/>
<polygon fill="#0606ff" points="1025.86,161.951 1036.8,127.028 990.764,127.028"/>
<polygon fill="#0606ff" points="1025.86,161.951 990.764,127.028 998.819,150.311"/>
<polygon fill="#0606ff" points="979.828,161.951 998.819,150.311 990.764,127.028"/>
<polygon fill="#0606ff" points="979.828,161.951 990.764,127.028 944.729,127.028"/>
<polygon fill="#ffff06" points="575.384,196.875 610.308,196.875 598.666,173.593"/>
<polygon fill="#ffff06" points="575.384,196.875 598.666,173.593 575.384,161.951"/>
<polygon fill="#ffff06" points="610.308,196.875 645.231,196.875 610.308,161.951"/>
<polygon fill="#ffff06" points="610.308,196.875 610.308,161.951 598.666,173.593"/>
<polygon fill="#ffff06" points="575.384,161.951 598.666,173.593 610.308,161.951"/>
<polygon fill="#ffff06" points="575.384,161.951 610.308,161.951 575.384,127.028"/>
<polygon fill="#ffff06" points="575.384,196.875 575.384,161.951 552.101,173.593"/>
<polygon fill="#ffff06" points="575.384,196.875 552.101,173.593 540.46,196.875"/>
<polygon fill="#ffff06" points="575.384,161.951 575.384,127.028 540.46,161.951"/>
<polygon fill="#ffff06" points="575.384,161.951 540.46,161.951 552.101,173.593"/>
<polygon fill="#ffff06" points="540.46,196.875 552.101,173.593 540.46,161.951"/>
<polygon fill="#ffff06" points="540.46,196.875 540.46,161.951 505.536,196.875"/>
<polygon fill="#ffff06" points="645.231,196.875 656.872,161.951 629.71,150.311"/>
<polygon fill="#ffff06" points="645.231,196.875 629.71,150.311 610.308,161.951"/>
<polygon fill="#ffff06" points="656.872,161.951 668.514,127.028 621.949,127.028"/>
<polygon fill="#ffff06" points="656.872,161.951 621.949,127.028 629.71,150.311"/>
<polygon fill="#ffff06" points="610.308,161.951 629.71,150.311 621.949,127.028"/>
<polygon fill="#ffff06" points="610.308,161.951 621.949,127.028 575.384,127.028"/>
<polygon fill="#ffff06" points="505.536,196.875 540.46,161.951 521.058,150.311"/>
<polygon fill="#ffff06" points="505.536,196.875 521.058,150.311 493.895,161.951"/>
<polygon fill="#ffff06" points="540.46,161.951 575.384,127.028 528.819,127.028"/>
<polygon fill="#ffff06" points="540.46,161.951 528.819,127.028 521.058,150.311"/>
<polygon fill="#ffff06" points="493.895,161.951 521.058,150.311 528.819,127.028"/>
<polygon fill="#ffff06" points="493.895,161.951 528.819,127.028 482.254,127.028"/>
<polyline fill="none" stroke="#000000" stroke-width="1" points="0,196.875 505.536,196.875 482.254,127.028 0,127.028"/>
<polyline fill="none" stroke="#000000" stroke-width="1" points="645.231,196.875 1166,196.875"/>
<polyline fill="none" stroke="#000000" stroke-width="1" points="1166,127.028 668.514,127.028 645.231,196.875"/>
<polyline fill="none" stroke="#000000" stroke-width="1" points="505.536,196.875 645.231,196.875"/>
<polyline fill="none" stroke="#000000" stroke-width="1" points="668.514,127.028 482.254,127.028"/>
<polyline fill="none" stroke="#000000" stroke-width="1" points="505.536,196.875 505.536,513"/>
<polyline fill="none" stroke="#000000" stroke-width="1" points="645.231,196.875 645.231,513"/>
<polyline fill="none" stroke="#000000" stroke-width="1" points="0,80.463 482.254,80.463"/>
<polyline fill="none" stroke="#000000" stroke-width="1" points="482.254,127.028 482.254,80.463 668.514,80.463"/>
<polyline fill="none" stroke="#000000" stroke-width="1" points="668.514,127.028 668.514,80.463 1166,80.463"/>
<polyline fill="none" stroke="#000000" stroke-width="1" points="0,196.875 39.7301,196.875 39.7301,253.094 0,253.094"/>
<polyline fill="none" stroke="#000000" stroke-width="1" points="39.7301,253.094 39.7301,309.312 0,309.312"/>
<polyline fill="none" stroke="#000000" stroke-width="1" points="39.7301,309.312 39.7301,365.531 0,365.531"/>
<polyline fill="none" stroke="#000000" stroke-width="1" points="39.7301,365.531 39.7301,421.75 0,421.75"/>
<polyline fill="none" stroke="#000000" stroke-width="1" points="39.7301,421.75 39.7301,477.968 0,477.968"/>
<polyline fill="none" stroke="#000000" stroke-width="1" points="39.7301,477.968 39.7301,513"/>
<polyline fill="none" stroke="#000000" stroke-width="1" points="39.7301,196.875 86.6642,196.875 86.6642,253.094 39.7301,253.094"/>
<polyline fill="none" stroke="#000000" stroke-width="1" points="86.6642,196.875 133.598,196.875 133.598,253.094 86.6642,253.094"/>
<polyline fill="none" stroke="#000000" stroke-width="1" points="133.598,253.094 133.598,309.312 86.6642,309.312 86.6642,253.094"/>
<polyline fill="none" stroke="#000000" stroke-width="1" points="86.6642,309.312 39.7301,309.312"/>
<polyline fill="none" stroke="#000000" stroke-width="1" points="86.6642,309.312 86.6642,365.531 39.7301,365.531"/>
<polyline fill="none" stroke="#000000" stroke-width="1" points="133.598,309.312 133.598,365.531 86.6642,365.531"/>
<polyline fill="none" stroke="#000000" stroke-width="1" points="133.598,365.531 133.598,421.75 86.6642,421.75 86.6642,365.531"/>
<polyline fill="none" stroke="#000000" stroke-width="1" points="86.6642,421.75 39.7301,421.75"/>
<polyline fill="none" stroke="#000000" stroke-width="1" points="86.6642,421.75 86.6642,477.968 39.7301,477.968"/>
<polyline fill="none" stroke="#000000" stroke-width="1" points="133.598,421.75 133.598,477.968 86.6642,477.968"/>
<polyline fill="none" stroke="#000000" stroke-width="1" points="133.598,477.968 133.598,513"/>
<polyline fill="none" stroke="#000000" stroke-width="1" points="86.6642,513 86.6642,477.968"/>
<polyline fill="none" stroke="#000000" stroke-width="1" points="133.598,196.875 180.354,196.875 180.354,253.094 133.598,253.094"/>
<polyline fill="none" stroke="#000000" stroke-width="1" points="180.354,196.875 227.111,196.875 227.111,253.094 180.354,253.094"/>
<polyline fill="none" stroke="#000000" stroke-width="1" points="227.111,253.094 227.111,309.312 180.354,309.312 180.354,253.094"/>
<polyline fill="none" stroke="#000000" stroke-width="1" points="180.354,309.312 133.598,309.312"/>
<polyline fill="none" stroke="#000000" stroke-width="1" points="180.354,309.312 180.354,365.531 133.598,365.531"/>
<polyline fill="none" stroke="#000000" stroke-width="1" points="227.111,309.312 227.111,365.531 180.354,365.531"/>
<polyline fill="none" stroke="#000000" stroke-width="1" points="227.111,365.531 227.111,421.75 180.354,421.75 180.354,365.531"/>
<polyline fill="none" stroke="#000000" stroke-width="1" points="180.354,421.75 133.598,421.75"/>
<polyline fill="none" stroke="#000000" stroke-width="1" points="180.354,421.75 180.354,477.968 133.598,477.968"/>
<polyline fill="none" stroke="#000000" stroke-width="1" points="227.111,421.75 227.111,477.968 180.354,477.968"/>
<polyline fill="none" stroke="#000000" stroke-width="1" points="227.111,477.968 227.111,513"/>
<polyline fill="none" stroke="#000000" stroke-width="1" points="180.354,513 180.354,477.968"/>
<polyline fill="none" stroke="#000000" stroke-width="1" points="227.111,196.875 273.69,196.875 273.69,253.094 227.111,253.094"/>
<polyline fill="none" stroke="#000000" stroke-width="1" points="273.69,196.875 320.27,196.875 320.27,253.094 273.69,253.094"/>
<polyline fill="none" stroke="#000000" stroke-width="1" points="320.27,253.094 320.27,309.312 273.69,309.312 273.69,253.094"/>
<polyline fill="none" stroke="#000000" stroke-width="1" points="273.69,309.312 227.111,309.312"/>
<polyline fill="none" stroke="#000000" stroke-width="1" points="273.69,309.312 273.69,365.531 227.111,365.531"/>
<polyline fill="none" stroke="#000000" stroke-width="1" points="320.27,309.312 320.27,365.531 273.69,365.531"/>
<polyline fill="none" stroke="#000000" stroke-width="1" points="320.27,365.531 320.27,421.75 273.69,421.75 273.69,365.531"/>
<polyline fill="none" stroke="#000000" stroke-width="1" points="273.69,421.75 227.111,421.75"/>
<polyline fill="none" stroke="#000000" stroke-width="1" points="273.69,421.75 273.69,477.968 227.111,477.968"/>
<polyline fill="none" stroke="#000000" stroke-width="1" points="320.27,421.75 320.27,477.968 273.69,477.968"/>
<polyline fill="none" stroke="#000000" stroke-width="1" points="320.27,477.968 320.27,513"/>
<polyline fill="none" stroke="#000000" stroke-width="1" points="273.69,513 273.69,477.968"/>
<polyline fill="none" stroke="#000000" stroke-width="1" points="320.27,196.875 366.675,196.875 366.675,253.094 320.27,253.094"/>
<polyline fill="none" stroke="#000000" stroke-width="1" points="366.675,196.875 413.079,196.875 413.079,253.094 366.675,253.094"/>
<polyline fill="none" stroke="#000000" stroke-width="1" points="413.079,253.094 413.079,309.312 366.675,309.312 366.675,253.094"/>
<polyline fill="none" stroke="#000000" stroke-width="1" points="366.675,309.312 320.27,309.312"/>
<polyline fill="none" stroke="#000000" stroke-width="1" points="366.675,309.312 366.675,365.531 320.27,365.531"/>
<polyline fill="none" stroke="#000000" stroke-width="1" points="413.079,309.312 413.079,365.531 366.675,365.531"/>
<polyline fill="none" stroke="#000000" stroke-width="1" points="413.079,365.531 413.079,421.75 366.675,421.75 366.675,365.531"/>
<polyline fill="none" stroke="#000000" stroke-width="1" points="366.675,421.75 320.27,421.75"/>
<polyline fill="none" stroke="#000000" stroke-width="1" points="366.675,421.75 366.675,477.968 320.27,477.968"/>
<polyline fill="none" stroke="#000000" stroke-width="1" points="413.079,421.75 413.079,477.968 366.675,477.968"/>
<polyline fill="none" stroke="#000000" stroke-width="1" points="413.079,477.968 413.079,513"/>
<polyline fill="none" stroke="#000000" stroke-width="1" points="366.675,513 366.675,477.968"/>
<polyline fill="none" stroke="#000000" stroke-width="1" points="413.079,196.875 459.308,196.875 459.308,253.094 413.079,253.094"/>
<polyline fill="none" stroke="#000000" stroke-width="1" points="459.308,196.875 505.536,196.875 505.536,253.094 459.308,253.094"/>
<polyline fill="none" stroke="#000000" stroke-width="1" points="505.536,253.094 505.536,309.312 459.308,309.312 459.308,253.094"/>
<polyline fill="none" stroke="#000000" stroke-width="1" points="459.308,309.312 413.079,309.312"/>
<polyline fill="none" stroke="#000000" stroke-width="1" points="459.308,309.312 459.308,365.531 413.079,365.531"/>
<polyline fill="none" stroke="#000000" stroke-width="1" points="505.536,309.312 505.536,365.531 459.308,365.531"/>
<polyline fill="none" stroke="#000000" stroke-width="1" points="505.536,365.531 505.536,421.75 459.308,421.75 459.308,365.531"/>
<polyline fill="none" stroke="#000000" stroke-width="1" points="459.308,421.75 413.079,421.75"/>
<polyline fill="none" stroke="#000000" stroke-width="1" points="459.308,421.75 459.308,477.968 413.079,477.968"/>
<polyline fill="none" stroke="#000000" stroke-width="1" points="505.536,421.75 505.536,477.968 459.308,477.968"/>
<polyline fill="none" stroke="#000000" stroke-width="1" points="505.536,477.968 505.536,513"/>
<polyline fill="none" stroke="#000000" stroke-width="1" points="459.308,513 459.308,477.968"/>
<polyline fill="none" stroke="#000000" stroke-width="1" points="505.536,196.875 540.46,196.875 540.46,253.094 505.536,253.094 505.536,196.875"/>
<polyline fill="none" stroke="#000000" stroke-width="1" points="540.46,196.875 575.384,196.875 575.384,253.094 540.46,253.094"/>
<polyline fill="none" stroke="#000000" stroke-width="1" points="575.384,253.094 575.384,309.312 540.46,309.312 540.46,253.094"/>
<polyline fill="none" stroke="#000000" stroke-width="1" points="540.46,309.312 505.536,309.312 505.536,253.094"/>
<polyline fill="none" stroke="#000000" stroke-width="1" points="540.46,309.312 540.46,365.531 505.536,365.531 505.536,309.312"/>
<polyline fill="none" stroke="#000000" stroke-width="1" points="575.384,309.312 575.384,365.531 540.46,365.531"/>
<polyline fill="none" stroke="#000000" stroke-width="1" points="575.384,365.531 575.384,421.75 540.46,421.75 540.46,365.531"/>
<polyline fill="none" stroke="#000000" stroke-width="1" points="540.46,421.75 505.536,421.75 505.536,365.531"/>
<polyline fill="none" stroke="#000000" stroke-width="1" points="540.46,421.75 540.46,477.968 505.536,477.968 505.536,421.75"/>
<polyline fill="none" stroke="#000000" stroke-width="1" points="575.384,421.75 575.384,477.968 540.46,477.968"/>
<polyline fill="none" stroke="#000000" stroke-width="1" points="575.384,477.968 575.384,513"/>
<polyline fill="none" stroke="#000000" stroke-width="1" points="540.46,513 540.46,477.968"/>
<polyline fill="none" stroke="#000000" stroke-width="1" points="505.536,513 505.536,477.968"/>
<polyline fill="none" stroke="#000000" stroke-width="1" points="575.384,196.875 610.308,196.875 610.308,253.094 575.384,253.094"/>
<polyline fill="none" stroke="#000000" stroke-width="1" points="610.308,196.875 645.231,196.875 645.231,253.094 610.308,253.094"/>
<polyline fill="none" stroke="#000000" stroke-width="1" points="645.231,253.094 645.231,309.312 610.308,309.312 610.308,253.094"/>
<polyline fill="none" stroke="#000000" stroke-width="1" points="610.308,309.312 575.384,309.312"/>
<polyline fill="none" stroke="#000000" stroke-width="1" points="610.308,309.312 610.308,365.531 575.384,365.531"/>
<polyline fill="none" stroke="#000000" stroke-width="1" points="645.231,309.312 645.231,365.531 610.308,365.531"/>
<polyline fill="none" stroke="#000000" stroke-width="1" points="645.231,365.531 645.231,421.75 610.308,421.75 610.308,365.531"/>
<polyline fill="none" stroke="#000000" stroke-width="1" points="610.308,421.75 575.384,421.75"/>
<polyline fill="none" stroke="#000000" stroke-width="1" points="610.308,421.75 610.308,477.968 575.384,477.968"/>
<polyline fill="none" stroke="#000000" stroke-width="1" points="645.231,421.75 645.231,477.968 610.308,477.968"/>
<polyline fill="none" stroke="#000000" stroke-width="1" points="645.231,477.968 645.231,513"/>
<polyline fill="none" stroke="#000000" stroke-width="1" points="610.308,513 610.308,477.968"/>
<polyline fill="none" stroke="#000000" stroke-width="1" points="645.231,196.875 691.443,196.875 691.443,253.094 645.231,253.094 645.231,196.875"/>
<polyline fill="none" stroke="#000000" stroke-width="1" points="691.443,196.875 737.655,196.875 737.655,253.094 691.443,253.094"/>
<polyline fill="none" stroke="#000000" stroke-width="1" points="737.655,253.094 737.655,309.312 691.443,309.312 691.443,253.094"/>
<polyline fill="none" stroke="#000000" stroke-width="1" points="691.443,309.312 645.231,309.312 645.231,253.094"/>
<polyline fill="none" stroke="#000000" stroke-width="1" points="691.443,309.312 691.443,365.531 645.231,365.531 645.231,309.312"/>
<polyline fill="none" stroke="#000000" stroke-width="1" points="737.655,309.312 737.655,365.531 691.443,365.531"/>
<polyline fill="none" stroke="#000000" stroke-width="1" points="737.655,365.531 737.655,421.75 691.443,421.75 691.443,365.531"/>
<polyline fill="none" stroke="#000000" stroke-width="1" points="691.443,421.75 645.231,421.75 645.231,365.531"/>
<polyline fill="none" stroke="#000000" stroke-width="1" points="691.443,421.75 691.443,477.968 645.231,477.968 645.231,421.75"/>
<polyline fill="none" stroke="#000000" stroke-width="1" points="737.655,421.75 737.655,477.968 691.443,477.968"/>
<polyline fill="none" stroke="#000000" stroke-width="1" points="737.655,477.968 737.655,513"/>
<polyline fill="none" stroke="#000000" stroke-width="1" points="691.443,513 691.443,477.968"/>
<polyline fill="none" stroke="#000000" stroke-width="1" points="645.231,513 645.231,477.968"/>
<polyline fill="none" stroke="#000000" stroke-width="1" points="737.655,196.875 783.868,196.875 783.868,253.094 737.655,253.094"/>
<polyline fill="none" stroke="#000000" stroke-width="1" points="783.868,196.875 830.08,196.875 830.08,253.094 783.868,253.094"/>
<polyline fill="none" stroke="#000000" stroke-width="1" points="830.08,253.094 830.08,309.312 783.868,309.312 783.868,253.094"/>
<polyline fill="none" stroke="#000000" stroke-width="1" points="783.868,309.312 737.655,309.312"/>
<polyline fill="none" stroke="#000000" stroke-width="1" points="783.868,309.312 783.868,365.531 737.655,365.531"/>
<polyline fill="none" stroke="#000000" stroke-width="1" points="830.08,309.312 830.08,365.531 783.868,365.531"/>
<polyline fill="none" stroke="#000000" stroke-width="1" points="830.08,365.531 830.08,421.75 783.868,421.75 783.868,365.531"/>
<polyline fill="none" stroke="#000000" stroke-width="1" points="783.868,421.75 737.655,421.75"/>
<polyline fill="none" stroke="#000000" stroke-width="1" points="783.868,421.75 783.868,477.968 737.655,477.968"/>
<polyline fill="none" stroke="#000000" stroke-width="1" points="830.08,421.75 830.08,477.968 783.868,477.968"/>
<polyline fill="none" stroke="#000000" stroke-width="1" points="830.08,477.968 830.08,513"/>
<polyline fill="none" stroke="#000000" stroke-width="1" points="783.868,513 783.868,477.968"/>
<polyline fill="none" stroke="#000000" stroke-width="1" points="830.08,196.875 876.292,196.875 876.292,253.094 830.08,253.094"/>
<polyline fill="none" stroke="#000000" stroke-width="1" points="876.292,196.875 922.504,196.875 922.504,253.094 876.292,253.094"/>
<polyline fill="none" stroke="#000000" stroke-width="1" points="922.504,253.094 922.504,309.312 876.292,309.312 876.292,253.094"/>
<polyline fill="none" stroke="#000000" stroke-width="1" points="876.292,309.312 830.08,309.312"/>
<polyline fill="none" stroke="#000000" stroke-width="1" points="876.292,309.312 876.292,365.531 830.08,365.531"/>
<polyline fill="none" stroke="#000000" stroke-width="1" points="922.504,309.312 922.504,365.531 876.292,365.531"/>
<polyline fill="none" stroke="#000000" stroke-width="1" points="922.504,365.531 922.504,421.75 876.292,421.75 876.292,365.531"/>
<polyline fill="none" stroke="#000000" stroke-width="1" points="876.292,421.75 830.08,421.75"/>
<polyline fill="none" stroke="#000000" stroke-width="1" points="876.292,421.75 876.292,477.968 830.08,477.968"/>
<polyline fill="none" stroke="#000000" stroke-width="1" points="922.504,421.75 922.504,477.968 876.292,477.968"/>
<polyline fill="none" stroke="#000000" stroke-width="1" points="922.504,477.968 922.504,513"/>
<polyline fill="none" stroke="#000000" stroke-width="1" points="876.292,513 876.292,477.968"/>
<polyline fill="none" stroke="#000000" stroke-width="1" points="922.504,196.875 968.717,196.875 968.717,253.094 922.504,253.094"/>
<polyline fill="none" stroke="#000000" stroke-width="1" points="968.717,196.875 1014.93,196.875 1014.93,253.094 968.717,253.094"/>
<polyline fill="none" stroke="#000000" stroke-width="1" points="1014.93,253.094 1014.93,309.312 968.717,309.312 968.717,253.094"/>
<polyline fill="none" stroke="#000000" stroke-width="1" points="968.717,309.312 922.504,309.312"/>
<polyline fill="none" stroke="#000000" stroke-width="1" points="968.717,309.312 968.717,365.531 922.504,365.531"/>
<polyline fill="none" stroke="#000000" stroke-width="1" points="1014.93,309.312 1014.93,365.531 968.717,365.531"/>
<polyline fill="none" stroke="#000000" stroke-width="1" points="1014.93,365.531 1014.93,421.75 968.717,421.75 968.717,365.531"/>
<polyline fill="none" stroke="#000000" stroke-width="1" points="968.717,421.75 922.504,421.75"/>
<polyline fill="none" stroke="#000000" stroke-width="1" points="968.717,421.75 968.717,477.968 922.504,477.968"/>
<polyline fill="none" stroke="#000000" stroke-width="1" points="1014.93,421.75 1014.93,477.968 968.717,477.968"/>
<polyline fill="none" stroke="#000000" stroke-width="1" points="1014.93,477.968 1014.93,513"/>
<polyline fill="none" stroke="#000000" stroke-width="1" points="968.717,513 968.717,477.968"/>
<polyline fill="none" stroke="#000000" stroke-width="1" points="1014.93,196.875 1061.14,196.875 1061.14,253.094 1014.93,253.094"/>
<polyline fill="none" stroke="#000000" stroke-width="1" points="1061.14,196.875 1107.35,196.875 1107.35,253.094 1061.14,253.094"/>
<polyline fill="none" stroke="#000000" stroke-width="1" points="1107.35,253.094 1107.35,309.312 1061.14,309.312 1061.14,253.094"/>
<polyline fill="none" stroke="#000000" stroke-width="1" points="1061.14,309.312 1014.93,309.312"/>
<polyline fill="none" stroke="#000000" stroke-width="1" points="1061.14,309.312 1061.14,365.531 1014.93,365.531"/>
<polyline fill="none" stroke="#000000" stroke-width="1" points="1107.35,309.312 1107.35,365.531 1061.14,365.531"/>
<polyline fill="none" stroke="#000000" stroke-width="1" points="1107.35,365.531 1107.35,421.75 1061.14,421.75 1061.14,365.531"/>
<polyline fill="none" stroke="#000000" stroke-width="1" points="1061.14,421.75 1014.93,421.75"/>
<polyline fill="none" stroke="#000000" stroke-width="1" points="1061.14,421.75 1061.14,477.968 1014.93,477.968"/>
<polyline fill="none" stroke="#000000" stroke-width="1" points="1107.35,421.75 1107.35,477.968 1061.14,477.968"/>
<polyline fill="none" stroke="#000000" stroke-width="1" points="1107.35,477.968 1107.35,513"/>
<polyline fill="none" stroke="#000000" stroke-width="1" points="1061.14,513 1061.14,477.968"/>
<polyline fill="none" stroke="#000000" stroke-width="1" points="1107.35,196.875 1153.57,196.875 1153.57,253.094 1107.35,253.094"/>
<polyline fill="none" stroke="#000000" stroke-width="1" points="1153.57,196.875 1166,196.875"/>
<polyline fill="none" stroke="#000000" stroke-width="1" points="1166,253.094 1153.57,253.094"/>
<polyline fill="none" stroke="#000000" stroke-width="1" points="1166,309.312 1153.57,309.312 1153.57,253.094"/>
<polyline fill="none" stroke="#000000" stroke-width="1" points="1153.57,309.312 1107.35,309.312"/>
<polyline fill="none" stroke="#000000" stroke-width="1" points="1153.57,309.312 1153.57,365.531 1107.35,365.531"/>
<polyline fill="none" stroke="#000000" stroke-width="1" points="1166,365.531 1153.57,365.531"/>
<polyline fill="none" stroke="#000000" stroke-width="1" points="1166,421.75 1153.57,421.75 1153.57,365.531"/>
<polyline fill="none" stroke="#000000" stroke-width="1" points="1153.57,421.75 1107.35,421.75"/>
<polyline fill="none" stroke="#000000" stroke-width="1" points="1153.57,421.75 1153.57,477.968 1107.35,477.968"/>
<polyline fill="none" stroke="#000000" stroke-width="1" points="1166,477.968 1153.57,477.968"/>
<polyline fill="none" stroke="#000000" stroke-width="1" points="1153.57,513 1153.57,477.968"/>
<polyline fill="none" stroke="#060606" stroke-width="1" points="482.254,127.028 482.254,103.745 436.219,103.745 436.219,127.028 482.254,127.028"/>
<polyline fill="none" stroke="#060606" stroke-width="1" points="482.254,103.745 482.254,80.463 436.219,80.463 436.219,103.745"/>
<polyline fill="none" stroke="#060606" stroke-width="1" points="436.219,80.463 390.182,80.463 390.182,103.745 436.219,103.745"/>
<polyline fill="none" stroke="#060606" stroke-width="1" points="390.182,103.745 390.182,127.028 436.219,127.028"/>
<polyline fill="none" stroke="#060606" stroke-width="1" points="390.182,103.745 344.146,103.745 344.146,127.028 390.182,127.028"/>
<polyline fill="none" stroke="#060606" stroke-width="1" points="390.182,80.463 344.146,80.463 344.146,103.745"/>
<polyline fill="none" stroke="#060606" stroke-width="1" points="344.146,80.463 298.111,80.463 298.111,103.745 344.146,103.745"/>
<polyline fill="none" stroke="#060606" stroke-width="1" points="298.111,103.745 298.111,127.028 344.146,127.028"/>
<polyline fill="none" stroke="#060606" stroke-width="1" points="298.111,103.745 252.075,103.745 252.075,127.028 298.111,127.028"/>
<polyline fill="none" stroke="#060606" stroke-width="1" points="298.111,80.463 252.075,80.463 252.075,103.745"/>
<polyline fill="none" stroke="#060606" stroke-width="1" points="252.075,80.463 206.04,80.463 206.04,103.745 252.075,103.745"/>
<polyline fill="none" stroke="#060606" stroke-width="1" points="206.04,103.745 206.04,127.028 252.075,127.028"/>
<polyline fill="none" stroke="#060606" stroke-width="1" points="206.04,103.745 160.003,103.745 160.003,127.028 206.04,127.028"/>
<polyline fill="none" stroke="#060606" stroke-width="1" points="206.04,80.463 160.003,80.463 160.003,103.745"/>
<polyline fill="none" stroke="#060606" stroke-width="1" points="160.003,80.463 113.968,80.463 113.968,103.745 160.003,103.745"/>
<polyline fill="none" stroke="#060606" stroke-width="1" points="113.968,103.745 113.968,127.028 160.003,127.028"/>
<polyline fill="none" stroke="#060606" stroke-width="1" points="113.968,103.745 67.9323,103.745 67.9323,127.028 113.968,127.028"/>
<polyline fill="none" stroke="#060606" stroke-width="1" points="113.968,80.463 67.9323,80.463 67.9323,103.745"/>
<polyline fill="none" stroke="#060606" stroke-width="1" points="67.9323,80.463 21.8967,80.463 21.8967,103.745 67.9323,103.745"/>
<polyline fill="none" stroke="#060606" stroke-width="1" points="21.8967,103.745 21.8967,127.028 67.9323,127.028"/>
<polyline fill="none" stroke="#060606" stroke-width="1" points="21.8967,103.745 0,103.745"/>
<polyline fill="none" stroke="#060606" stroke-width="1" points="0,127.028 21.8967,127.028"/>
<polyline fill="none" stroke="#060606" stroke-width="1" points="21.8967,80.463 0,80.463"/>
<polyline fill="none" stroke="#060606" stroke-width="1" points="668.514,127.028 668.514,103.745 621.949,103.745 621.949,127.028 668.514,127.028"/>
<polyline fill="none" stroke="#060606" stroke-width="1" points="668.514,103.745 668.514,80.463 621.949,80.463 621.949,103.745"/>
<polyline fill="none" stroke="#060606" stroke-width="1" points="621.949,80.463 575.384,80.463 575.384,103.745 621.949,103.745"/>
<polyline fill="none" stroke="#060606" stroke-width="1" points="575.384,103.745 575.384,127.028 621.949,127.028"/>
<polyline fill="none" stroke="#060606" stroke-width="1" points="575.384,103.745 528.819,103.745 528.819,127.028 575.384,127.028"/>
<polyline fill="none" stroke="#060606" stroke-width="1" points="575.384,80.463 528.819,80.463 528.819,103.745"/>
<polyline fill="none" stroke="#060606" stroke-width="1" points="528.819,80.463 482.254,80.463 482.254,103.745 528.819,103.745"/>
<polyline fill="none" stroke="#060606" stroke-width="1" points="482.254,103.745 482.254,127.028 528.819,127.028"/>
<polyline fill="none" stroke="#060606" stroke-width="1" points="1166,80.463 1128.87,80.463 1128.87,103.745 1166,103.745"/>
<polyline fill="none" stroke="#060606" stroke-width="1" points="1128.87,103.745 1128.87,127.028 1166,127.028"/>
<polyline fill="none" stroke="#060606" stroke-width="1" points="1128.87,103.745 1082.84,103.745 1082.84,127.028 1128.87,127.028"/>
<polyline fill="none" stroke="#060606" stroke-width="1" points="1128.87,80.463 1082.84,80.463 1082.84,103.745"/>
<polyline fill="none" stroke="#060606" stroke-width="1" points="1082.84,80.463 1036.8,80.463 1036.8,103.745 1082.84,103.745"/>
<polyline fill="none" stroke="#060606" stroke-width="1" points="1036.8,103.745 1036.8,127.028 1082.84,127.028"/>
<polyline fill="none" stroke="#060606" stroke-width="1" points="1036.8,103.745 990.764,103.745 990.764,127.028 1036.8,127.028"/>
<polyline fill="none" stroke="#060606" stroke-width="1" points="1036.8,80.463 990.764,80.463 990.764,103.745"/>
<polyline fill="none" stroke="#060606" stroke-width="1" points="990.764,80.463 944.729,80.463 944.729,103.745 990.764,103.745"/>
<polyline fill="none" stroke="#060606" stroke-width="1" points="944.729,103.745 944.729,127.028 990.764,127.028"/>
<polyline fill="none" stroke="#060606" stroke-width="1" points="944.729,103.745 898.692,103.745 898.692,127.028 944.729,127.028"/>
<polyline fill="none" stroke="#060606" stroke-width="1" points="944.729,80.463 898.692,80.463 898.692,103.745"/>
<polyline fill="none" stroke="#060606" stroke-width="1" points="898.692,80.463 852.657,80.463 852.657,103.745 898.692,103.745"/>
<polyline fill="none" stroke="#060606" stroke-width="1" points="852.657,103.745 852.657,127.028 898.692,127.028"/>
<polyline fill="none" stroke="#060606" stroke-width="1" points="852.657,103.745 806.621,103.745 806.621,127.028 852.657,127.028"/>
<polyline fill="none" stroke="#060606" stroke-width="1" points="852.657,80.463 806.621,80.463 806.621,103.745"/>
<polyline fill="none" stroke="#060606" stroke-width="1" points="806.621,80.463 760.586,80.463 760.586,103.745 806.621,103.745"/>
<polyline fill="none" stroke="#060606" stroke-width="1" points="760.586,103.745 760.586,127.028 806.621,127.028"/>
<polyline fill="none" stroke="#060606" stroke-width="1" points="760.586,103.745 714.549,103.745 714.549,127.028 760.586,127.028"/>
<polyline fill="none" stroke="#060606" stroke-width="1" points="760.586,80.463 714.549,80.463 714.549,103.745"/>
<polyline fill="none" stroke="#060606" stroke-width="1" points="714.549,80.463 668.514,80.463 668.514,103.745 714.549,103.745"/>
<polyline fill="none" stroke="#060606" stroke-width="1" points="668.514,103.745 668.514,127.028 714.549,127.028"/>
<polyline fill="none" stroke="#060606" stroke-width="1" points="320.27,196.875 366.675,196.875 374.51,173.593 355.227,161.951 320.27,196.875"/>
<polyline fill="none" stroke="#060606" stroke-width="1" points="366.675,196.875 413.079,196.875 401.631,161.951 374.51,173.593"/>
<polyline fill="none" stroke="#060606" stroke-width="1" points="401.631,161.951 390.182,127.028 355.227,161.951 336.188,150.311 309.191,161.951 320.27,196.875"/>
<polyline fill="none" stroke="#060606" stroke-width="1" points="390.182,127.028 344.146,127.028 336.188,150.311"/>
<polyline fill="none" stroke="#060606" stroke-width="1" points="344.146,127.028 298.111,127.028 309.191,161.951 281.83,173.593 273.69,196.875 320.27,196.875"/>
<polyline fill="none" stroke="#060606" stroke-width="1" points="298.111,127.028 262.611,161.951 281.83,173.593"/>
<polyline fill="none" stroke="#060606" stroke-width="1" points="262.611,161.951 227.111,196.875 273.69,196.875"/>
<polyline fill="none" stroke="#060606" stroke-width="1" points="262.611,161.951 243.754,150.311 216.575,161.951 227.111,196.875"/>
<polyline fill="none" stroke="#060606" stroke-width="1" points="298.111,127.028 252.075,127.028 243.754,150.311"/>
<polyline fill="none" stroke="#060606" stroke-width="1" points="252.075,127.028 206.04,127.028 216.575,161.951 188.916,173.593 180.354,196.875 227.111,196.875"/>
<polyline fill="none" stroke="#060606" stroke-width="1" points="206.04,127.028 169.818,161.951 188.916,173.593"/>
<polyline fill="none" stroke="#060606" stroke-width="1" points="169.818,161.951 133.598,196.875 180.354,196.875"/>
<polyline fill="none" stroke="#060606" stroke-width="1" points="39.7301,196.875 86.6642,196.875 95.7652,173.593 76.8492,161.951 39.7301,196.875"/>
<polyline fill="none" stroke="#060606" stroke-width="1" points="86.6642,196.875 133.598,196.875 123.783,161.951 95.7652,173.593"/>
<polyline fill="none" stroke="#060606" stroke-width="1" points="123.783,161.951 113.968,127.028 76.8492,161.951 58.5315,150.311 30.8131,161.951 39.7301,196.875"/>
<polyline fill="none" stroke="#060606" stroke-width="1" points="113.968,127.028 67.9323,127.028 58.5315,150.311"/>
<polyline fill="none" stroke="#060606" stroke-width="1" points="67.9323,127.028 21.8967,127.028 30.8131,161.951 2.37799,173.593 0,179.266"/>
<polyline fill="none" stroke="#060606" stroke-width="1" points="0,196.875 39.7301,196.875"/>
<polyline fill="none" stroke="#060606" stroke-width="1" points="21.8967,127.028 0,147.049"/>
<polyline fill="none" stroke="#060606" stroke-width="1" points="0,172.111 2.37799,173.593"/>
<polyline fill="none" stroke="#060606" stroke-width="1" points="21.8967,127.028 0,127.028"/>
<polyline fill="none" stroke="#060606" stroke-width="1" points="413.079,196.875 459.308,196.875 466.957,173.593 447.667,161.951 413.079,196.875"/>
<polyline fill="none" stroke="#060606" stroke-width="1" points="459.308,196.875 505.536,196.875 493.895,161.951 466.957,173.593"/>
<polyline fill="none" stroke="#060606" stroke-width="1" points="493.895,161.951 482.254,127.028 447.667,161.951 428.505,150.311 401.631,161.951"/>
<polyline fill="none" stroke="#060606" stroke-width="1" points="482.254,127.028 436.219,127.028 428.505,150.311"/>
<polyline fill="none" stroke="#060606" stroke-width="1" points="436.219,127.028 390.182,127.028"/>
<polyline fill="none" stroke="#060606" stroke-width="1" points="169.818,161.951 151.202,150.311 123.783,161.951"/>
<polyline fill="none" stroke="#060606" stroke-width="1" points="206.04,127.028 160.003,127.028 151.202,150.311"/>
<polyline fill="none" stroke="#060606" stroke-width="1" points="160.003,127.028 113.968,127.028"/>
<polyline fill="none" stroke="#060606" stroke-width="1" points="1107.35,196.875 1153.57,196.875 1145.33,173.593 1118.11,161.951 1107.35,196.875"/>
<polyline fill="none" stroke="#060606" stroke-width="1" points="1153.57,196.875 1166,196.875"/>
<polyline fill="none" stroke="#060606" stroke-width="1" points="1166,163.603 1164.32,161.951 1145.33,173.593"/>
<polyline fill="none" stroke="#060606" stroke-width="1" points="1164.32,161.951 1128.87,127.028 1118.11,161.951 1091.01,150.311 1072.08,161.951 1107.35,196.875"/>
<polyline fill="none" stroke="#060606" stroke-width="1" points="1128.87,127.028 1082.84,127.028 1091.01,150.311"/>
<polyline fill="none" stroke="#060606" stroke-width="1" points="1082.84,127.028 1036.8,127.028 1072.08,161.951 1053.03,173.593 1061.14,196.875 1107.35,196.875"/>
<polyline fill="none" stroke="#060606" stroke-width="1" points="1036.8,127.028 1025.86,161.951 1053.03,173.593"/>
<polyline fill="none" stroke="#060606" stroke-width="1" points="1025.86,161.951 1014.93,196.875 1061.14,196.875"/>
<polyline fill="none" stroke="#060606" stroke-width="1" points="922.504,196.875 968.717,196.875 960.72,173.593 933.616,161.951 922.504,196.875"/>
<polyline fill="none" stroke="#060606" stroke-width="1" points="968.717,196.875 1014.93,196.875 979.828,161.951 960.72,173.593"/>
<polyline fill="none" stroke="#060606" stroke-width="1" points="979.828,161.951 944.729,127.028 933.616,161.951 906.63,150.311 887.58,161.951 922.504,196.875"/>
<polyline fill="none" stroke="#060606" stroke-width="1" points="944.729,127.028 898.692,127.028 906.63,150.311"/>
<polyline fill="none" stroke="#060606" stroke-width="1" points="898.692,127.028 852.657,127.028 887.58,161.951 868.413,173.593 876.292,196.875 922.504,196.875"/>
<polyline fill="none" stroke="#060606" stroke-width="1" points="852.657,127.028 841.368,161.951 868.413,173.593"/>
<polyline fill="none" stroke="#060606" stroke-width="1" points="841.368,161.951 830.08,196.875 876.292,196.875"/>
<polyline fill="none" stroke="#060606" stroke-width="1" points="841.368,161.951 814.441,150.311 795.332,161.951 830.08,196.875"/>
<polyline fill="none" stroke="#060606" stroke-width="1" points="852.657,127.028 806.621,127.028 814.441,150.311"/>
<polyline fill="none" stroke="#060606" stroke-width="1" points="806.621,127.028 760.586,127.028 795.332,161.951 776.107,173.593 783.868,196.875 830.08,196.875"/>
<polyline fill="none" stroke="#060606" stroke-width="1" points="760.586,127.028 749.12,161.951 776.107,173.593"/>
<polyline fill="none" stroke="#060606" stroke-width="1" points="749.12,161.951 737.655,196.875 783.868,196.875"/>
<polyline fill="none" stroke="#060606" stroke-width="1" points="1166,160.917 1164.32,161.951"/>
<polyline fill="none" stroke="#060606" stroke-width="1" points="1166,127.028 1128.87,127.028"/>
<polyline fill="none" stroke="#060606" stroke-width="1" points="645.231,196.875 691.443,196.875 683.8,173.593 656.872,161.951 645.231,196.875"/>
<polyline fill="none" stroke="#060606" stroke-width="1" points="691.443,196.875 737.655,196.875 703.085,161.951 683.8,173.593"/>
<polyline fill="none" stroke="#060606" stroke-width="1" points="703.085,161.951 668.514,127.028 656.872,161.951"/>
<polyline fill="none" stroke="#060606" stroke-width="1" points="749.12,161.951 722.252,150.311 703.085,161.951"/>
<polyline fill="none" stroke="#060606" stroke-width="1" points="760.586,127.028 714.549,127.028 722.252,150.311"/>
<polyline fill="none" stroke="#060606" stroke-width="1" points="714.549,127.028 668.514,127.028"/>
<polyline fill="none" stroke="#060606" stroke-width="1" points="1025.86,161.951 998.819,150.311 979.828,161.951"/>
<polyline fill="none" stroke="#060606" stroke-width="1" points="1036.8,127.028 990.764,127.028 998.819,150.311"/>
<polyline fill="none" stroke="#060606" stroke-width="1" points="990.764,127.028 944.729,127.028"/>
<polyline fill="none" stroke="#060606" stroke-width="1" points="575.384,196.875 610.308,196.875 598.666,173.593 575.384,161.951 575.384,196.875"/>
<polyline fill="none" stroke="#060606" stroke-width="1" points="610.308,196.875 645.231,196.875 610.308,161.951 598.666,173.593"/>
<polyline fill="none" stroke="#060606" stroke-width="1" points="610.308,161.951 575.384,127.028 575.384,161.951 552.101,173.593 540.46,196.875 575.384,196.875"/>
<polyline fill="none" stroke="#060606" stroke-width="1" points="575.384,127.028 540.46,161.951 552.101,173.593"/>
<polyline fill="none" stroke="#060606" stroke-width="1" points="540.46,161.951 505.536,196.875 540.46,196.875"/>
<polyline fill="none" stroke="#060606" stroke-width="1" points="645.231,196.875 656.872,161.951 629.71,150.311 610.308,161.951"/>
<polyline fill="none" stroke="#060606" stroke-width="1" points="656.872,161.951 668.514,127.028 621.949,127.028 629.71,150.311"/>
<polyline fill="none" stroke="#060606" stroke-width="1" points="621.949,127.028 575.384,127.028"/>
<polyline fill="none" stroke="#060606" stroke-width="1" points="540.46,161.951 521.058,150.311 493.895,161.951 505.536,196.875"/>
<polyline fill="none" stroke="#060606" stroke-width="1" points="575.384,127.028 528.819,127.028 521.058,150.311"/>
<polyline fill="none" stroke="#060606" stroke-width="1" points="528.819,127.028 482.254,127.028 493.895,161.951"/>
</g>
</svg>
