<?xml version="1.0" encoding="UTF-8" standalone="no"?>
<!-- Created with Inkscape (http://www.inkscape.org/) -->

<svg
   xmlns:dc="http://purl.org/dc/elements/1.1/"
   xmlns:cc="http://creativecommons.org/ns#"
   xmlns:rdf="http://www.w3.org/1999/02/22-rdf-syntax-ns#"
   xmlns:svg="http://www.w3.org/2000/svg"
   xmlns="http://www.w3.org/2000/svg"
   xmlns:sodipodi="http://sodipodi.sourceforge.net/DTD/sodipodi-0.dtd"
   xmlns:inkscape="http://www.inkscape.org/namespaces/inkscape"
   id="svg4855"
   version="1.1"
   inkscape:version="0.48.5 r10040"
   width="1761.25"
   height="453.75"
   xml:space="preserve"
   sodipodi:docname="panel_bialt_model.svg"><metadata
     id="metadata4861"><rdf:RDF><cc:Work
         rdf:about=""><dc:format>image/svg+xml</dc:format><dc:type
           rdf:resource="http://purl.org/dc/dcmitype/StillImage" /><dc:title /></cc:Work></rdf:RDF></metadata><defs
     id="defs4859"><clipPath
       clipPathUnits="userSpaceOnUse"
       id="clipPath4999"><path
         d="m 6366.6,28.1289 7588.28,0 0,3161.8 -7588.28,0 0,-3161.8 z"
         id="path5001" /></clipPath></defs><sodipodi:namedview
     pagecolor="#ffffff"
     bordercolor="#666666"
     borderopacity="1"
     objecttolerance="10"
     gridtolerance="10"
     guidetolerance="10"
     inkscape:pageopacity="0"
     inkscape:pageshadow="2"
     inkscape:window-width="1920"
     inkscape:window-height="1145"
     id="namedview4857"
     showgrid="true"
     inkscape:zoom="1.748758"
     inkscape:cx="880.625"
     inkscape:cy="226.875"
     inkscape:window-x="-2"
     inkscape:window-y="-3"
     inkscape:window-maximized="1"
     inkscape:current-layer="g4941"><inkscape:grid
       type="xygrid"
       id="grid7880" /></sodipodi:namedview><g
     id="g4863"
     inkscape:groupmode="layer"
     inkscape:label="ink_ext_XXXXXX"
     transform="matrix(1.25,0,0,-1.25,0,453.75)"><g
       id="g4865"
       transform="scale(0.1,0.1)"><path
         d="m 4311.307,2538.9876 972.8151,0 L 5423.1097,2400 5840,2400 l 138.9613,138.9876 972.8407,0 0,208.4353 -2640.495,0 0,-208.4353 z"
         style="fill:#e1e100;fill-opacity:1;fill-rule:nonzero;stroke:none"
         id="path4867"
         inkscape:connector-curvature="0" /><path
         d="m 4311.307,2538.9876 972.8151,0 L 5423.1097,2400 5840,2400 l 138.9613,138.9876 972.8407,0 0,208.4353 -2640.495,0 0,-208.4353 z"
         style="fill:none;stroke:#000000;stroke-width:6.94858932;stroke-linecap:butt;stroke-linejoin:miter;stroke-miterlimit:4;stroke-opacity:1;stroke-dasharray:none"
         id="path4869"
         inkscape:connector-curvature="0" /><path
         d="m 4311.307,2538.9876 972.8151,0 L 5423.1097,2400 5840,2400 l 138.9613,138.9876 972.8407,0 0,-1459.2183 -2640.495,0 0,1459.2183 z"
         style="fill:#0000ff;fill-opacity:1;fill-rule:nonzero;stroke:none"
         id="path4871"
         inkscape:connector-curvature="0" /><path
         d="m 4311.307,2538.9876 972.8151,0 L 5423.1097,2400 5840,2400 l 138.9613,138.9876 972.8407,0 0,-1459.2256 -2640.495,0 0,1459.2256 z"
         style="fill:none;stroke:#000000;stroke-width:6.94858932;stroke-linecap:butt;stroke-linejoin:miter;stroke-miterlimit:4;stroke-opacity:1;stroke-dasharray:none"
         id="path4873"
         inkscape:connector-curvature="0" /><path
         d="m 5423.1097,2400 0,555.9307"
         style="fill:none;stroke:#000000;stroke-width:6.94858932;stroke-linecap:butt;stroke-linejoin:miter;stroke-miterlimit:4;stroke-opacity:1;stroke-dasharray:6.94858958, 6.94858958;stroke-dashoffset:0"
         id="path4875"
         inkscape:connector-curvature="0" /><path
         d="m 5840,2400 0,555.9307"
         style="fill:none;stroke:#000000;stroke-width:6.94858932;stroke-linecap:butt;stroke-linejoin:miter;stroke-miterlimit:4;stroke-opacity:1;stroke-dasharray:6.94858958, 6.94858958;stroke-dashoffset:0"
         id="path4877"
         inkscape:connector-curvature="0" /><path
         d="m 5423.1097,2955.9307 416.8903,0"
         style="fill:none;stroke:#000000;stroke-width:6.94858932;stroke-linecap:butt;stroke-linejoin:miter;stroke-miterlimit:4;stroke-opacity:1;stroke-dasharray:none"
         id="path4879"
         inkscape:connector-curvature="0" /><path
         d="m 5450.8769,2955.9043 13.8803,13.9067 -48.6041,-13.9067 48.6041,-13.8869 -13.8803,13.8869 z"
         style="fill:#000000;fill-opacity:1;fill-rule:evenodd;stroke:none"
         id="path4881"
         inkscape:connector-curvature="0" /><path
         d="m 5450.8769,2955.9307 13.8803,13.8803 -48.6041,-13.8803 48.6041,-13.9133 -13.8803,13.9133 z"
         style="fill:none;stroke:#000000;stroke-width:3.47431445;stroke-linecap:butt;stroke-linejoin:miter;stroke-miterlimit:4;stroke-opacity:1;stroke-dasharray:none"
         id="path4883"
         inkscape:connector-curvature="0" /><path
         d="m 5812.2328,2955.9043 -13.9132,-13.8869 48.6041,13.8869 -48.6041,13.9067 13.9132,-13.9067 z"
         style="fill:#000000;fill-opacity:1;fill-rule:evenodd;stroke:none"
         id="path4885"
         inkscape:connector-curvature="0" /><path
         d="m 5812.2328,2955.9307 -13.9132,-13.9133 48.6041,13.9133 -48.6041,13.8803 13.9132,-13.8803 z"
         style="fill:none;stroke:#000000;stroke-width:3.47431445;stroke-linecap:butt;stroke-linejoin:miter;stroke-miterlimit:4;stroke-opacity:1;stroke-dasharray:none"
         id="path4887"
         inkscape:connector-curvature="0" /><path
         d="m 5284.1221,2538.9876 0,555.9043"
         style="fill:none;stroke:#000000;stroke-width:6.94858932;stroke-linecap:butt;stroke-linejoin:miter;stroke-miterlimit:4;stroke-opacity:1;stroke-dasharray:6.94858958, 6.94858958;stroke-dashoffset:0"
         id="path4895"
         inkscape:connector-curvature="0" /><path
         d="m 5978.9613,2538.9876 0,555.9043"
         style="fill:none;stroke:#000000;stroke-width:6.94858932;stroke-linecap:butt;stroke-linejoin:miter;stroke-miterlimit:4;stroke-opacity:1;stroke-dasharray:6.94858958, 6.94858958;stroke-dashoffset:0"
         id="path4897"
         inkscape:connector-curvature="0" /><path
         d="m 5284.1221,3094.8919 694.8392,0"
         style="fill:none;stroke:#000000;stroke-width:6.94858932;stroke-linecap:butt;stroke-linejoin:miter;stroke-miterlimit:4;stroke-opacity:1;stroke-dasharray:none"
         id="path4899"
         inkscape:connector-curvature="0" /><path
         d="m 5311.942,3094.8919 13.854,13.9067 -48.6305,-13.9067 48.6305,-13.9067 -13.854,13.9067 z"
         style="fill:#000000;fill-opacity:1;fill-rule:evenodd;stroke:none"
         id="path4901"
         inkscape:connector-curvature="0" /><path
         d="m 5311.942,3094.8919 13.854,13.9067 -48.6305,-13.9067 48.6305,-13.9067 -13.854,13.9067 z"
         style="fill:none;stroke:#000000;stroke-width:3.47431445;stroke-linecap:butt;stroke-linejoin:miter;stroke-miterlimit:4;stroke-opacity:1;stroke-dasharray:none"
         id="path4903"
         inkscape:connector-curvature="0" /><path
         d="m 5951.1941,3094.8919 -13.8869,-13.9067 48.6041,13.9067 -48.6041,13.9067 13.8869,-13.9067 z"
         style="fill:#000000;fill-opacity:1;fill-rule:evenodd;stroke:none"
         id="path4905"
         inkscape:connector-curvature="0" /><path
         d="m 5951.1941,3094.8919 -13.8869,-13.9067 48.6041,13.9067 -48.6041,13.9067 13.8869,-13.9067 z"
         style="fill:none;stroke:#000000;stroke-width:3.47431445;stroke-linecap:butt;stroke-linejoin:miter;stroke-miterlimit:4;stroke-opacity:1;stroke-dasharray:none"
         id="path4907"
         inkscape:connector-curvature="0" /><g
         id="g4909"
         transform="matrix(6.5939661,0,0,6.5939661,3753.307,805.8991)"><text
           transform="matrix(1,0,0,-1,263.129,351.03)"
           id="text4911"><tspan
             style="font-size:14.75300026px;font-style:italic;font-variant:normal;font-weight:normal;writing-mode:lr-tb;fill:#000000;fill-opacity:1;fill-rule:nonzero;stroke:none;font-family:Sans;-inkscape-font-specification:Sans Italic"
             sodipodi:role="line"
             id="tspan4913"
             x="0"
             y="0">8 mm</tspan></text>
</g><path
         d="m 6951.802,2747.4229 138.9613,0"
         style="fill:none;stroke:#000000;stroke-width:6.94858932;stroke-linecap:butt;stroke-linejoin:miter;stroke-miterlimit:4;stroke-opacity:1;stroke-dasharray:6.94858958, 6.94858958;stroke-dashoffset:0"
         id="path4915"
         inkscape:connector-curvature="0" /><path
         d="m 6951.802,2538.9876 138.9613,0"
         style="fill:none;stroke:#000000;stroke-width:6.94858932;stroke-linecap:butt;stroke-linejoin:miter;stroke-miterlimit:4;stroke-opacity:1;stroke-dasharray:6.94858958, 6.94858958;stroke-dashoffset:0"
         id="path4917"
         inkscape:connector-curvature="0" /><path
         d="m 5840,2400 1250.7633,0"
         style="fill:none;stroke:#000000;stroke-width:6.94858932;stroke-linecap:butt;stroke-linejoin:miter;stroke-miterlimit:4;stroke-opacity:1;stroke-dasharray:6.94858958, 6.94858958;stroke-dashoffset:0"
         id="path4919"
         inkscape:connector-curvature="0" /><path
         d="m 7090.7633,2747.4229 0,-208.4353"
         style="fill:none;stroke:#000000;stroke-width:6.94858932;stroke-linecap:butt;stroke-linejoin:miter;stroke-miterlimit:4;stroke-opacity:1;stroke-dasharray:none"
         id="path4921"
         inkscape:connector-curvature="0" /><path
         d="m 7090.7633,2719.6821 13.9133,-13.9133 -13.9133,48.6041 -13.8803,-48.6041 13.8803,13.9133 z"
         style="fill:#000000;fill-opacity:1;fill-rule:evenodd;stroke:none"
         id="path4923"
         inkscape:connector-curvature="0" /><path
         d="m 7090.7633,2719.6821 13.9133,-13.9133 -13.9133,48.6041 -13.8803,-48.6041 13.8803,13.9133 z"
         style="fill:none;stroke:#000000;stroke-width:3.47431445;stroke-linecap:butt;stroke-linejoin:miter;stroke-miterlimit:4;stroke-opacity:1;stroke-dasharray:none"
         id="path4925"
         inkscape:connector-curvature="0" /><path
         d="m 7090.7633,2566.8076 -13.8803,13.8868 13.8803,-48.6568 13.9133,48.6568 -13.9133,-13.8868 z"
         style="fill:#000000;fill-opacity:1;fill-rule:evenodd;stroke:none"
         id="path4927"
         inkscape:connector-curvature="0" /><path
         d="m 7090.7633,2566.8076 -13.8803,13.8868 13.8803,-48.6568 13.9133,48.6568 -13.9133,-13.8868 z"
         style="fill:none;stroke:#000000;stroke-width:3.47431445;stroke-linecap:butt;stroke-linejoin:miter;stroke-miterlimit:4;stroke-opacity:1;stroke-dasharray:none"
         id="path4929"
         inkscape:connector-curvature="0" /><path
         d="m 7090.7633,2400 0,138.9876"
         style="fill:none;stroke:#000000;stroke-width:6.94858932;stroke-linecap:butt;stroke-linejoin:miter;stroke-miterlimit:4;stroke-opacity:1;stroke-dasharray:none"
         id="path4931"
         inkscape:connector-curvature="0" /><path
         d="m 7090.7633,2427.8199 -13.8803,13.9067 13.8803,-48.6569 13.9133,48.6569 -13.9133,-13.9067 z"
         style="fill:#000000;fill-opacity:1;fill-rule:evenodd;stroke:none"
         id="path4933"
         inkscape:connector-curvature="0" /><path
         d="m 7090.7633,2427.8199 -13.8803,13.9067 13.8803,-48.6569 13.9133,48.6569 -13.9133,-13.9067 z"
         style="fill:none;stroke:#000000;stroke-width:3.47431445;stroke-linecap:butt;stroke-linejoin:miter;stroke-miterlimit:4;stroke-opacity:1;stroke-dasharray:none"
         id="path4935"
         inkscape:connector-curvature="0" /><path
         d="m 7090.7633,2511.2006 13.9133,-13.9132 -13.9133,48.6568 -13.8803,-48.6568 13.8803,13.9132 z"
         style="fill:#000000;fill-opacity:1;fill-rule:evenodd;stroke:none"
         id="path4937"
         inkscape:connector-curvature="0" /><path
         d="m 7090.7633,2511.194 13.9133,-13.9066 -13.9133,48.6568 -13.8803,-48.6568 13.8803,13.9066 z"
         style="fill:none;stroke:#000000;stroke-width:3.47431445;stroke-linecap:butt;stroke-linejoin:miter;stroke-miterlimit:4;stroke-opacity:1;stroke-dasharray:none"
         id="path4939"
         inkscape:connector-curvature="0" /><g
         id="g4941"
         transform="matrix(6.5939661,0,0,6.5939661,3785.307,821.8991)"><text
           transform="matrix(1,0,0,-1,511.823,270.942)"
           id="text4943"><tspan
             style="font-size:14.75300026px;font-variant:normal;font-weight:normal;writing-mode:lr-tb;fill:#000000;fill-opacity:1;fill-rule:nonzero;stroke:none;font-family:Time Roman;-inkscape-font-specification:TimesNewRomanPSMT"
             x="0 7.3765001 11.06475 22.542583"
             y="0"
             sodipodi:role="line"
             id="tspan4945">3 mm</tspan><tspan
             style="font-size:14.75300026px;font-variant:normal;font-weight:normal;writing-mode:lr-tb;fill:#000000;fill-opacity:1;fill-rule:nonzero;stroke:none;font-family:Time Roman;-inkscape-font-specification:TimesNewRomanPSMT"
             x="0 7.3765001 11.06475 22.542583"
             y="25.291"
             sodipodi:role="line"
             id="tspan4947">2 mm</tspan></text>
</g><path
         d="m 4311.307,2538.9876 -138.9935,0"
         style="fill:none;stroke:#000000;stroke-width:6.94858932;stroke-linecap:butt;stroke-linejoin:miter;stroke-miterlimit:4;stroke-opacity:1;stroke-dasharray:6.94858958, 6.94858958;stroke-dashoffset:0"
         id="path4949"
         inkscape:connector-curvature="0" /><path
         d="m 4311.307,1079.762 -138.9935,0"
         style="fill:none;stroke:#000000;stroke-width:6.94858932;stroke-linecap:butt;stroke-linejoin:miter;stroke-miterlimit:4;stroke-opacity:1;stroke-dasharray:6.94858958, 6.94858958;stroke-dashoffset:0"
         id="path4951"
         inkscape:connector-curvature="0" /><path
         d="m 4172.3135,2538.9876 0,-1459.2256"
         style="fill:none;stroke:#000000;stroke-width:6.94858932;stroke-linecap:butt;stroke-linejoin:miter;stroke-miterlimit:4;stroke-opacity:1;stroke-dasharray:none"
         id="path4953"
         inkscape:connector-curvature="0" /><path
         d="m 4172.3135,2511.2006 13.9145,-13.9132 -13.9145,48.6568 -13.8553,-48.6568 13.8553,13.9132 z"
         style="fill:#000000;fill-opacity:1;fill-rule:evenodd;stroke:none"
         id="path4955"
         inkscape:connector-curvature="0" /><path
         d="m 4172.3135,2511.194 13.9145,-13.9066 -13.9145,48.6568 -13.8553,-48.6568 13.8553,13.9066 z"
         style="fill:none;stroke:#000000;stroke-width:3.47431445;stroke-linecap:butt;stroke-linejoin:miter;stroke-miterlimit:4;stroke-opacity:1;stroke-dasharray:none"
         id="path4957"
         inkscape:connector-curvature="0" /><path
         d="m 4144.5469,1079.7693 -13.8809,-13.8599 48.6048,13.8599 -48.6048,13.9067 13.8809,-13.9067 z"
         style="fill:#000000;fill-opacity:1;fill-rule:evenodd;stroke:none"
         id="path4959"
         inkscape:connector-curvature="0" /><path
         d="m 4144.5469,1079.762 -13.8809,-13.8526 48.6048,13.8526 -48.6048,13.8882 13.8809,-13.8882 z"
         style="fill:none;stroke:#000000;stroke-width:3.47431445;stroke-linecap:butt;stroke-linejoin:miter;stroke-miterlimit:4;stroke-opacity:1;stroke-dasharray:none"
         id="path4961"
         inkscape:connector-curvature="0" /><g
         id="g4963"
         transform="matrix(6.5939661,0,0,6.5939661,3785.307,821.8991)"><text
           transform="matrix(1,0,0,-1,-0.316797,155.026)"
           id="text4965"><tspan
             style="font-size:14.75300026px;font-variant:normal;font-weight:normal;writing-mode:lr-tb;fill:#000000;fill-opacity:1;fill-rule:nonzero;stroke:none;font-family:Time Roman;-inkscape-font-specification:TimesNewRomanPSMT"
             x="0 7.3765001 14.753 22.129499 25.817751 37.295586"
             y="0"
             sodipodi:role="line"
             id="tspan4967">200 mm</tspan></text>
</g><path
         d="m 4311.307,1079.762 0,-138.9348"
         style="fill:none;stroke:#000000;stroke-width:6.94858932;stroke-linecap:butt;stroke-linejoin:miter;stroke-miterlimit:4;stroke-opacity:1;stroke-dasharray:6.94858958, 6.94858958;stroke-dashoffset:0"
         id="path4969"
         inkscape:connector-curvature="0" /><path
         d="m 6951.802,1079.762 0,-138.9348"
         style="fill:none;stroke:#000000;stroke-width:6.94858932;stroke-linecap:butt;stroke-linejoin:miter;stroke-miterlimit:4;stroke-opacity:1;stroke-dasharray:6.94858958, 6.94858958;stroke-dashoffset:0"
         id="path4971"
         inkscape:connector-curvature="0" /><path
         d="m 4311.307,940.8272 2640.495,0"
         style="fill:none;stroke:#000000;stroke-width:6.94858932;stroke-linecap:butt;stroke-linejoin:miter;stroke-miterlimit:4;stroke-opacity:1;stroke-dasharray:none"
         id="path4973"
         inkscape:connector-curvature="0" /><path
         d="m 4339.0946,940.8272 13.914,13.8605 -48.6589,-13.8605 48.6589,-13.906 -13.914,13.906 z"
         style="fill:#000000;fill-opacity:1;fill-rule:evenodd;stroke:none"
         id="path4975"
         inkscape:connector-curvature="0" /><path
         d="m 4339.0946,940.8272 13.914,13.8605 -48.6589,-13.8605 48.6589,-13.906 -13.914,13.906 z"
         style="fill:none;stroke:#000000;stroke-width:3.47431445;stroke-linecap:butt;stroke-linejoin:miter;stroke-miterlimit:4;stroke-opacity:1;stroke-dasharray:none"
         id="path4977"
         inkscape:connector-curvature="0" /><path
         d="m 6924.0085,940.8272 -13.9067,-13.906 48.6569,13.906 -48.6569,13.8605 13.9067,-13.8605 z"
         style="fill:#000000;fill-opacity:1;fill-rule:evenodd;stroke:none"
         id="path4979"
         inkscape:connector-curvature="0" /><path
         d="m 6924.0085,940.8272 -13.9067,-13.906 48.6569,13.906 -48.6569,13.8605 13.9067,-13.8605 z"
         style="fill:none;stroke:#000000;stroke-width:3.47431445;stroke-linecap:butt;stroke-linejoin:miter;stroke-miterlimit:4;stroke-opacity:1;stroke-dasharray:none"
         id="path4981"
         inkscape:connector-curvature="0" /><g
         id="g4983"
         transform="matrix(6.5939661,0,0,6.5939661,3785.307,821.8991)"><text
           transform="matrix(1,0,0,-1,256.807,1.17305)"
           id="text4985"><tspan
             style="font-size:14.75300026px;font-variant:normal;font-weight:normal;writing-mode:lr-tb;fill:#000000;fill-opacity:1;fill-rule:nonzero;stroke:none;font-family:Time Roman;-inkscape-font-specification:TimesNewRomanPSMT"
             x="0 7.3765001 14.753 22.129499 25.817751 37.295586"
             y="0"
             sodipodi:role="line"
             id="tspan4987">300 mm</tspan></text>
<text
           transform="matrix(1,0,0,-1,90.309,273.04905)"
           id="text4989"><tspan
             style="font-size:14.75300026px;font-variant:normal;font-weight:bold;writing-mode:lr-tb;fill:#000000;fill-opacity:1;fill-rule:nonzero;stroke:none;font-family:Time Roman;-inkscape-font-specification:TimesNewRomanPS-BoldMT"
             x="0 9.0140829 16.390583 23.767082 27.455334 35.658001 43.860668 50.175114"
             y="0"
             sodipodi:role="line"
             id="tspan4991">F50 pure</tspan><tspan
             style="font-size:14.75300026px;font-variant:normal;font-weight:bold;writing-mode:lr-tb;fill:#000000;fill-opacity:1;fill-rule:nonzero;stroke:none;font-family:Time Roman;-inkscape-font-specification:TimesNewRomanPS-BoldMT"
             x="0 9.840251 20.491917 30.332169 34.020416 41.396919 48.773418 56.149918"
             y="229.72501"
             sodipodi:role="line"
             id="tspan4993">LAB 1000</tspan></text>
</g><g
         transform="matrix(6.5939661,0,0,6.5939661,3785.307,661.8991)"
         id="g4159"><text
           id="text4161"
           transform="scale(1,-1)"
           x="258.27609"
           y="-351.03"><tspan
             y="-351.03"
             x="258.27609"
             id="tspan4163"
             sodipodi:role="line"
             style="font-size:14.75300026px;font-style:italic;font-variant:normal;font-weight:normal;writing-mode:lr-tb;fill:#000000;fill-opacity:1;fill-rule:nonzero;stroke:none;font-family:Sans;-inkscape-font-specification:Sans Italic">6 mm</tspan></text>
</g></g></g></svg>