<?xml version="1.0" encoding="UTF-8" standalone="no"?>
<!-- Created with Inkscape (http://www.inkscape.org/) -->

<svg
   xmlns:dc="http://purl.org/dc/elements/1.1/"
   xmlns:cc="http://creativecommons.org/ns#"
   xmlns:rdf="http://www.w3.org/1999/02/22-rdf-syntax-ns#"
   xmlns:svg="http://www.w3.org/2000/svg"
   xmlns="http://www.w3.org/2000/svg"
   xmlns:sodipodi="http://sodipodi.sourceforge.net/DTD/sodipodi-0.dtd"
   xmlns:inkscape="http://www.inkscape.org/namespaces/inkscape"
   id="svg4277"
   version="1.1"
   inkscape:version="0.48.5 r10040"
   width="743.75"
   height="1052.5"
   xml:space="preserve"
   sodipodi:docname="srccomp.ps"><metadata
     id="metadata4283"><rdf:RDF><cc:Work
         rdf:about=""><dc:format>image/svg+xml</dc:format><dc:type
           rdf:resource="http://purl.org/dc/dcmitype/StillImage" /><dc:title></dc:title></cc:Work></rdf:RDF></metadata><defs
     id="defs4281"><clipPath
       clipPathUnits="userSpaceOnUse"
       id="clipPath4293"><path
         d="m 1080,1080 3600,0 0,1080 -3600,0 0,-1080 z"
         id="path4295" /></clipPath></defs><sodipodi:namedview
     pagecolor="#ffffff"
     bordercolor="#666666"
     borderopacity="1"
     objecttolerance="10"
     gridtolerance="10"
     guidetolerance="10"
     inkscape:pageopacity="0"
     inkscape:pageshadow="2"
     inkscape:window-width="640"
     inkscape:window-height="480"
     id="namedview4279"
     showgrid="false"
     inkscape:zoom="0.22422803"
     inkscape:cx="371.875"
     inkscape:cy="526.25"
     inkscape:window-x="1072"
     inkscape:window-y="556"
     inkscape:window-maximized="0"
     inkscape:current-layer="g4285" /><g
     id="g4285"
     inkscape:groupmode="layer"
     inkscape:label="ink_ext_XXXXXX"
     transform="matrix(1.25,0,0,-1.25,0,1052.5)"><g
       id="g4287"
       transform="scale(0.1,0.1)"><g
         id="g4289"><g
           id="g4291"
           clip-path="url(#clipPath4293)"><path
             d="m 1080,1826.8 340,0 1.8,0.1 3.6,0 1.8,0.1 3.6,0 1.8,0.1 1.8,0.1 1.8,0.1 1.8,0.1 1.8,0.1"
             style="fill:none;stroke:#ff0000;stroke-opacity:1;stroke-width:10;stroke-linecap:butt;stroke-linejoin:bevel;stroke-miterlimit:10;stroke-dasharray:none"
             id="path4297" /><path
             d="m 1439.8,1827.5 1.8,0.1 1.8,0.2 1.8,0.2 1.8,0.2 1.8,0.3 1.8,0.3 1.8,0.3 1.8,0.4 1.8,0.5 1.8,0.5 1.8,0.7 1.8,0.7 1.8,0.8 1.8,0.9 1.8,1.1 1.8,1.2 1.8,1.3 1.8,1.6 1.8,1.7 1.8,1.9 1.8,2.2 1.8,2.4 1.8,2.7 1.8,3 1.8,3.3 1.8,3.7 1.8,4 1.8,4.4 1.8,4.8 1.8,5.3 1.8,5.7 1.8,6.1 1.8,6.7 1.8,7.1 1.8,7.7 1.8,8.1 1.8,8.7 1.8,9.2 1.8,9.7 1.8,10.1 1.8,10.7 1.8,11 1.8,11.4 1.8,11.8 1.8,12.1 1.8,12.2 1.8,12.4 1.8,12.4 1.8,12.4 1.8,12.2 1.8,12.1 1.8,11 1.8,11 1.8,11 1.8,9 1.8,9 1.8,7 1.8,6 1.8,4 1.8,3 1.8,1 1.8,-1 1.8,-3 1.8,-5 1.8,-8 1.8,-10 1.8,-13 1.8,-16 1.8,-18 1.8,-20.7 1.8,-23.6 1.8,-26.3 1.8,-29 1.8,-31.5 1.8,-34 1.8,-36.2 1.8,-38.4 1.7,-40.2 1.8,-41.9 1.8,-43.3 1.8,-44.4 1.8,-45.2 1.8,-45.7 1.8,-45.8 1.8,-45.5 1.8,-44.9 1.8,-43.8 1.8,-42.5 1.8,-40.8 1.8,-38.6 1.8,-36.1 1.8,-33.3 1.8,-30.2 1.8,-26.82 1.8,-23.13 1.8,-19.24 1.8,-15.16 1.8,-10.93 1.8,-6.61 1.8,-2.21 1.8,2.21 1.8,6.61 1.8,10.93 1.8,15.16 1.8,19.24 1.8,23.13 1.8,26.82 1.8,30.2 1.8,33.3 1.8,36.1 1.8,38.6 1.8,40.8 1.8,42.5 1.8,43.8 1.8,44.9 1.8,45.5 1.8,45.8 1.8,45.7 1.8,45.2 1.8,44.4 1.8,43.3 1.8,41.9 1.8,40.2 1.8,38.4 1.8,36.2 1.8,34 1.8,31.5 1.8,29 1.8,26.3 1.8,23.6 1.8,20.7 1.8,18 1.8,16 1.8,13 1.8,10 1.8,8 1.8,5 1.8,3 1.8,1 1.8,-1 1.8,-3 1.8,-4 1.8,-6 1.8,-7 1.8,-9 1.8,-9 1.8,-11 1.8,-11 1.8,-11 1.8,-12.1 1.8,-12.2 1.8,-12.4 1.8,-12.4 1.8,-12.4 1.8,-12.2 1.8,-12.1 1.8,-11.8 1.8,-11.4 1.8,-11 1.8,-10.7 1.8,-10.1 1.8,-9.7 1.8,-9.2 1.8,-8.7 1.8,-8.1 1.8,-7.7 1.8,-7.1 1.8,-6.7 1.8,-6.1 1.8,-5.7 1.8,-5.3 1.8,-4.8 1.8,-4.4 1.8,-4 1.8,-3.7 1.8,-3.3 1.8,-3 1.8,-2.7 1.8,-2.4 1.8,-2.2 1.8,-1.9 1.8,-1.7 1.8,-1.6 1.8,-1.3 1.8,-1.2 1.8,-1.1 1.8,-0.9 1.8,-0.8 1.8,-0.7 1.7,-0.7 1.8,-0.5 1.8,-0.5 1.8,-0.4 1.8,-0.3 1.8,-0.3 1.8,-0.3 1.8,-0.2 1.8,-0.2 1.8,-0.2 1.8,-0.1"
             style="fill:none;stroke:#ff0000;stroke-opacity:1;stroke-width:10;stroke-linecap:butt;stroke-linejoin:bevel;stroke-miterlimit:10;stroke-dasharray:none"
             id="path4299" /><path
             d="m 1799.6,1827.5 1.8,-0.1 1.8,-0.1 1.8,-0.1 1.8,-0.1 1.8,-0.1 3.6,0 1.8,-0.1 3.6,0 1.8,-0.1 339.6,0"
             style="fill:none;stroke:#ff0000;stroke-opacity:1;stroke-width:10;stroke-linecap:butt;stroke-linejoin:bevel;stroke-miterlimit:10;stroke-dasharray:none"
             id="path4301" /><path
             d="m 2159,1826.8 360,0"
             style="fill:none;stroke:#ff0000;stroke-opacity:1;stroke-width:10;stroke-linecap:butt;stroke-linejoin:bevel;stroke-miterlimit:10;stroke-dasharray:none"
             id="path4303" /><path
             d="m 2519,1826.8 360,0"
             style="fill:none;stroke:#ff0000;stroke-opacity:1;stroke-width:10;stroke-linecap:butt;stroke-linejoin:bevel;stroke-miterlimit:10;stroke-dasharray:none"
             id="path4305" /><path
             d="m 2879,1826.8 360,0"
             style="fill:none;stroke:#ff0000;stroke-opacity:1;stroke-width:10;stroke-linecap:butt;stroke-linejoin:bevel;stroke-miterlimit:10;stroke-dasharray:none"
             id="path4307" /><path
             d="m 3239,1826.8 360,0"
             style="fill:none;stroke:#ff0000;stroke-opacity:1;stroke-width:10;stroke-linecap:butt;stroke-linejoin:bevel;stroke-miterlimit:10;stroke-dasharray:none"
             id="path4309" /><path
             d="m 3599,1826.8 360,0"
             style="fill:none;stroke:#ff0000;stroke-opacity:1;stroke-width:10;stroke-linecap:butt;stroke-linejoin:bevel;stroke-miterlimit:10;stroke-dasharray:none"
             id="path4311" /><path
             d="m 3959,1826.8 359,0"
             style="fill:none;stroke:#ff0000;stroke-opacity:1;stroke-width:10;stroke-linecap:butt;stroke-linejoin:bevel;stroke-miterlimit:10;stroke-dasharray:none"
             id="path4313" /><path
             d="m 4318,1826.8 360,0"
             style="fill:none;stroke:#ff0000;stroke-opacity:1;stroke-width:10;stroke-linecap:butt;stroke-linejoin:bevel;stroke-miterlimit:10;stroke-dasharray:none"
             id="path4315" /><path
             d="m 4678,1826.8 360,0"
             style="fill:none;stroke:#ff0000;stroke-opacity:1;stroke-width:10;stroke-linecap:butt;stroke-linejoin:bevel;stroke-miterlimit:10;stroke-dasharray:none"
             id="path4317" /><path
             d="m 1080,1827.1 16.19,0 1.8,0.1 14.39,0 1.8,0.1 7.2,0 1.8,0.1 7.19,0 1.8,0.1 3.6,0 1.8,0.1 5.4,0 1.8,0.1 3.6,0 1.79,0.1 5.4,0 1.8,0.1 3.6,0 1.8,0.1 3.6,0 1.8,0.1 3.59,0 1.8,0.1 3.6,0 1.8,0.1 3.55,0 1.8,0.1 3.6,0 1.8,0.1 3.6,0 1.8,0.1 3.6,0 1.8,0.1 1.8,0 1.8,0.1 3.6,0 1.8,0.1 3.6,0 1.8,0.1 3.6,0 1.8,0.1 3.6,0 1.8,0.1 3.6,0 1.8,0.1 3.6,0 1.8,0.1 3.6,0 1.8,0.1 3.6,0 1.8,0.1 5.4,0 1.8,0.1 5.4,0 1.8,0.1 5.4,0 1.8,0.1 7.2,0 1.8,0.1 10.8,0 1.8,0.1 14.4,0 1.8,0.1 43.2,0 1.8,0.1 10.8,0 1.8,0.1 1.8,0 1.8,0.1 1.8,0 1.8,0.1 1.8,0 1.8,0.1 1.8,0.1 1.8,0.1 1.7,0.1 1.8,0.1 1.8,0.1 1.8,0.2 1.8,0.1 1.8,0.2 1.8,0.2 1.8,0.2 1.8,0.2 1.8,0.3 1.8,0.2 1.8,0.3 1.8,0.3 1.8,0.4 1.8,0.3 1.8,0.4 1.8,0.4 1.8,0.4 1.8,0.4 1.8,0.5 1.8,0.5 1.8,0.5 1.8,0.5 1.8,0.5 1.8,0.6 1.8,0.6 1.8,0.6 1.8,0.7 1.8,0.7 1.8,0.6 1.8,0.7 1.8,0.8 1.8,0.7 1.8,0.8"
             style="fill:none;stroke:#0000ff;stroke-opacity:1;stroke-width:10;stroke-linecap:butt;stroke-linejoin:bevel;stroke-miterlimit:10;stroke-dasharray:none"
             id="path4319" /><path
             d="m 1439.8,1845 1.8,0.7 1.8,0.8 1.8,0.8 1.8,0.8 1.8,0.8 1.8,0.9 1.8,0.8 1.8,0.8 1.8,0.9 1.8,0.8 1.8,0.9 1.8,0.8 1.8,0.9 1.8,0.8 1.8,0.9 1.8,0.8 1.8,0.9 1.8,0.8 1.8,0.9 1.8,0.9 1.8,0.9 1.8,0.9 1.8,0.9 1.8,0.9 1.8,1 1.8,0.9 1.8,1 1.8,1.1 1.8,1.1 1.8,1.1 1.8,1.1 1.8,1.2 1.8,1.3 1.8,1.4 1.8,1.4 1.8,1.5 1.8,1.6 1.8,1.7 1.8,1.8 1.8,1.9 1.8,2 1.8,2.2 1.8,2.3 1.8,2.5 1.8,2.6 1.8,2.7 1.8,3 1.8,3.1 1.8,3.3 1.8,3.5 1.8,3.7 1.8,3.9 1.8,4 1.8,4.3 1.8,4.4 1.8,4.7 1.8,4.8 1.8,4.9 1.8,5.1 1.8,5.3 1.8,5.3 1.8,5.5 1.8,5.5 1.8,5.5 1.8,5.6 1.8,5.5 1.8,5.4 1.8,5.3 1.8,5.1 1.8,4.9 1.8,4.6 1.8,4.3 1.8,3.8 1.8,3.4 1.8,2.9 1.8,2.2 1.8,1.6 1.7,0.7 1.8,0 1.8,-1 1.8,-2 1.8,-3 1.8,-4.2 1.8,-5.4 1.8,-6.7 1.8,-8 1.8,-9.5 1.8,-10.9 1.8,-12.3 1.8,-14 1.8,-15.4 1.8,-17.1 1.8,-18.6 1.8,-20.2 1.8,-21.7 1.8,-23.3 1.8,-24.7 1.8,-26.1 1.8,-27.4 1.8,-28.7 1.8,-29.8 1.8,-30.9 1.8,-31.7 1.8,-32.4 1.8,-33.1 1.8,-33.4 1.8,-33.7 1.8,-33.8 1.8,-33.6 1.8,-33.3 1.8,-32.7 1.8,-32 1.8,-31 1.8,-29.9 1.8,-28.5 1.8,-27 1.8,-25.2 1.8,-23.3 1.8,-21.2 1.8,-18.96 1.8,-16.58 1.8,-14.06 1.8,-11.45 1.8,-8.73 1.8,-5.95 1.8,-3.12 1.8,-0.25 1.8,2.62 1.8,5.48 1.8,8.31 1.8,11.09 1.8,13.78 1.8,16.4 1.8,18.89 1.8,21.27 1.8,23.46 1.8,25.6 1.8,27.4 1.8,29.1 1.8,30.7 1.8,31.9 1.8,33.1 1.8,33.9 1.8,34.7 1.8,35 1.8,35.4 1.8,35.3 1.8,35.2 1.8,34.9 1.8,34.3 1.8,33.6 1.8,32.7 1.8,31.7 1.8,30.6 1.8,29.3 1.8,27.8 1.8,26.5 1.8,24.8 1.8,23.3 1.8,21.7 1.8,19.9 1.8,18.4 1.8,16.6 1.8,15.1 1.8,13.4 1.8,11.9 1.8,10.4 1.8,8.9 1.8,7.6 1.8,6.4 1.8,5.2 1.8,4.1 1.8,3.3 1.8,2 1.8,1 1.8,1 3.6,0 1.8,-1 1.8,-1 1.8,-1 1.8,-1 1.8,-1.6 1.8,-1.5 1.8,-1.5 1.8,-1.4 1.8,-1.2 1.8,-1.1 1.8,-0.9 1.7,-0.8 1.8,-0.5 1.8,-0.3 1.8,-0.1 1.8,0.1 1.8,0.3 1.8,0.5 1.8,0.6 1.8,0.8 1.8,0.9 1.8,0.9"
             style="fill:none;stroke:#0000ff;stroke-opacity:1;stroke-width:10;stroke-linecap:butt;stroke-linejoin:bevel;stroke-miterlimit:10;stroke-dasharray:none"
             id="path4321" /><path
             d="m 1799.6,2074.2 1.8,1 1.8,1 1.8,1 1.8,0.9 1.8,0.9 1.8,0.7 1.8,0.3 1.8,1 3.6,0 1.8,-1 1.8,-0.7 1.8,-1.1 1.8,-1.5 1.8,-1.8 1.8,-2.3 1.8,-2.7 1.8,-3.1 1.8,-3.6 1.8,-4 1.8,-4.5 1.8,-5 1.8,-5.4 1.8,-5.9 1.8,-6.3 1.8,-6.8 1.8,-7.1 1.8,-7.6 1.8,-8 1.8,-8.3 1.8,-8.7 1.8,-9 1.8,-9.2 1.8,-9.5 1.8,-9.7 1.8,-9.9 1.8,-10.1 1.8,-10.1 1.8,-10.2 1.8,-10.2 1.8,-10.3 1.8,-10.1 1.8,-10.1 1.8,-9.9 1.8,-9.7 1.8,-9.5 1.8,-9.3 1.8,-8.9 1.8,-8.7 1.8,-8.3 1.8,-7.9 1.8,-7.5 1.8,-7.1 1.8,-6.6 1.8,-6.1 1.8,-5.7 1.8,-5.2 1.8,-4.6 1.8,-4.2 1.8,-3.6 1.8,-3.1 1.8,-2.6 1.8,-2.1 1.8,-1.6 1.8,-1.1 1.8,-0.7 1.8,-0.2 1.8,0.3 1.8,0.6 1.8,1.1 1.8,1.4 1.8,1.8 1.8,2.1 1.8,2.4 1.8,2.6 1.8,2.9 1.8,3.2 1.8,3.3 1.8,3.5 1.8,3.6 1.8,3.7 1.8,3.8 1.8,3.9 1.8,4 1.8,4 1.8,4 1.8,3.9 1.8,4 1.8,3.9 1.8,3.9 1.8,3.8 1.8,3.7 1.8,3.6 1.8,3.6 1.8,3.4 1.8,3.3 1.8,3.3 1.8,3.1 1.8,3 1.8,2.9 1.7,2.7 1.8,2.7 1.8,2.5 1.8,2.4 1.8,2.4 1.8,2.2 1.8,2.1 1.8,2.1 1.8,1.9 1.8,1.9 1.8,1.8 1.8,1.7 1.8,1.7 1.8,1.6 1.8,1.6 1.8,1.5 1.8,1.6 1.8,1.4 1.8,1.5 1.8,1.5 1.8,1.4 1.8,1.5 1.8,1.5 1.8,1.4 1.8,1.5 1.8,1.5 1.8,1.5 1.8,1.5 1.8,1.6 1.8,1.5 1.8,1.6 1.8,1.5 1.8,1.6 1.8,1.6 1.8,1.6 1.8,1.5 1.8,1.6 1.8,1.5 1.8,1.5 1.8,1.4 1.8,1.4 1.8,1.4 1.8,1.2 1.8,1.2 1.8,1.2 1.8,1 1.8,0.9 1.8,0.8 1.8,0.7 1.8,0.6 1.8,0.5 1.8,0.3 1.8,0.1 1.8,0 1.8,-0.2 1.5,-0.3 2,-0.5 2,-0.7 2,-0.8 1,-1.1 2,-1.2 2,-1.4 2,-1.6 2,-1.8 1,-1.9 2,-2.2 2,-2.3 2,-2.6 2,-2.7 1,-2.9 2,-3 2,-3.2 2,-3.4 2,-3.6 1,-3.7 2,-3.8 2,-4 2,-4.1 2,-4.2 1,-4.4 2,-4.4 2,-4.5 2,-4.7 2,-4.7 1,-4.7 2,-4.9 2,-4.8 2,-4.9 2,-4.9 1,-5 2,-4.9 2,-4.9 2,-4.9 2,-4.8 1,-4.9 2,-4.7 2,-4.7 2,-4.6 2,-4.5 1,-4.5"
             style="fill:none;stroke:#0000ff;stroke-opacity:1;stroke-width:10;stroke-linecap:butt;stroke-linejoin:bevel;stroke-miterlimit:10;stroke-dasharray:none"
             id="path4323" /><path
             d="m 2159,1758.5 2,-4.3 2,-4.2 2,-4.1 2,-3.9 1,-3.8 2,-3.7 2,-3.5 2,-3.3 2,-3.2 1,-3 2,-2.8 2,-2.6 2,-2.4 2,-2.3 1,-2 2,-1.9 2,-1.6 2,-1.4 2,-1.3 1,-1 2,-0.8 2,-0.6 2,-0.4 2,-0.2 1,0 2,0.3 2,0.4 2,0.6 2,0.8 1,1.1 2,1.2 2,1.4 2,1.6 2,1.7 1,2 2,2.1 2,2.3 2,2.4 2,2.6 1,2.7 2,2.9 2,3 2,3.2 2,3.3 1,3.4 2,3.4 2,3.6 2,3.7 2,3.8 1,3.8 2,3.9 2,4 2,4 2,4 1,4.1 2,4.1 2,4.1 2,4.2 2,4.1 1,4.1 2,4.1 2,4.1 2,4 2,4 1,4 2,3.8 2,3.9 2,3.7 2,3.7 1,3.6 2,3.5 2,3.4 2,3.3 2,3.1 1,3.1 2,3 2,2.8 2,2.8 2,2.6 1,2.4 2,2.4 2,2.2 2,2.1 2,1.9 1,1.8 2,1.7 2,1.5 2,1.5 2,1.2 1,1.2 2,1 2,0.9 2,0.8 2,0.6 1,0.5 2,0.4 2,0.3 2,0.1 2,0.1 1,-0.1 2,-0.1 2,-0.3 2,-0.4 2,-0.4 1,-0.6 2,-0.6 2,-0.8 2,-0.8 2,-0.9 1,-1 2,-1 2,-1.1 2,-1.2 2,-1.2 1,-1.3 2,-1.3 2,-1.4 2,-1.5 2,-1.4 1,-1.5 2,-1.6 2,-1.6 2,-1.6 2,-1.6 1,-1.7 2,-1.7 2,-1.7 2,-1.7 2,-1.7 1,-1.7 2,-1.7 2,-1.8 2,-1.7 2,-1.7 1,-1.7 2,-1.7 2,-1.6 2,-1.7 2,-1.6 1,-1.6 2,-1.6 2,-1.5 2,-1.6 2,-1.4 1,-1.5 2,-1.4 2,-1.3 2,-1.4 2,-1.2 1,-1.2 2,-1.2 2,-1.1 2,-1.1 2,-1 1,-1 2,-0.9 2,-0.8 2,-0.8 2,-0.7 1,-0.6 2,-0.6 2,-0.6 2,-0.4 2,-0.4 1,-0.3 2,-0.3 2,-0.2 2,-0.1 3,0 2,0.1 2,0.1 2,0.2 2,0.3 1,0.4 2,0.4 2,0.4 2,0.6 1,0.5 2,0.7 2,0.7 2,0.7 2,0.8 1,0.8 2,0.9 2,0.9 2,1 2,1 1,1 2,1 2,1.1 2,1.1 2,1 1,1.1 2,1.1 2,1.1 2,1.1 2,1.1 1,1.1 2,1"
             style="fill:none;stroke:#0000ff;stroke-opacity:1;stroke-width:10;stroke-linecap:butt;stroke-linejoin:bevel;stroke-miterlimit:10;stroke-dasharray:none"
             id="path4325" /><path
             d="m 2519,1834 2,1.1 2,1 2,0.9 1,1 2,0.8 2,0.9 2,0.8 2,0.7 1,0.7 2,0.7 2,0.6 2,0.5 2,0.4 1,0.4 2,0.4 2,0.2 2,0.2 2,0.1 3,0 2,-0.2 2,-0.2 2,-0.2 1,-0.4 2,-0.4 2,-0.5 2,-0.5 2,-0.6 1,-0.7 2,-0.8 2,-0.8 2,-0.9 2,-0.9 1,-1 2,-1 2,-1.1 2,-1.1 2,-1.1 1,-1.2 2,-1.2 2,-1.3 2,-1.2 2,-1.3 1,-1.3 2,-1.3 2,-1.3 2,-1.3 2,-1.3 1,-1.3 2,-1.3 2,-1.3 2,-1.2 2,-1.3 1,-1.2 2,-1.2 2,-1.1 2,-1.2 2,-1.1 1,-1 2,-1 2,-1 2,-0.9 2,-0.9 1,-0.8 2,-0.8 2,-0.8 2,-0.7 2,-0.6 1,-0.7 2,-0.5 2,-0.5 2,-0.5 2,-0.4 1,-0.4 2,-0.3 2,-0.3 2,-0.2 2,-0.2 1,-0.2 2,-0.1 2,-0.1 5,0 2,0.1 2,0.1 2,0.1 2,0.1 1,0.2 2,0.2 2,0.2 2,0.2 2,0.3 1,0.3 2,0.2 2,0.3 2,0.4 2,0.3 1,0.3 2,0.4 2,0.3 2,0.4 2,0.3 1,0.4 2,0.4 2,0.4 2,0.4 2,0.4 1,0.4 2,0.4 2,0.4 2,0.4 2,0.4 1,0.5 2,0.4 2,0.4 2,0.5 2,0.5 1,0.4 2,0.5 2,0.5 2,0.5 2,0.5 1,0.5 2,0.5 2,0.6 2,0.6 2,0.5 1,0.6 2,0.6 2,0.7 2,0.6 2,0.7 1,0.7 2,0.7 2,0.7 2,0.8 2,0.7 1,0.8 2,0.8 2,0.9 2,0.8 2,0.9 1,0.9 2,0.9 2,1 2,0.9 2,1 1,1 2,1 2,1.1 2,1 2,1.1 1,1 2,1.1 2,1.1 2,1.1 2,1.1 1,1.2 2,1.1 2,1.1 2,1.1 2,1.1 1,1.2 2,1.1 2,1.1 2,1.1 2,1.1 1,1 2,1.1 2,1 2,1.1 2,1 1,0.9 2,1 2,0.9 2,0.9 2,0.9 1,0.8 2,0.8 2,0.8 2,0.7 2,0.7 1,0.7 2,0.6 2,0.5 2,0.6 2,0.4 1,0.5 2,0.3 2,0.4 2,0.3 2,0.2 1,0.2 2,0.1 2,0.1 4,0 1,-0.1 2,-0.2"
             style="fill:none;stroke:#0000ff;stroke-opacity:1;stroke-width:10;stroke-linecap:butt;stroke-linejoin:bevel;stroke-miterlimit:10;stroke-dasharray:none"
             id="path4327" /><path
             d="m 2879,1867 2,-0.2 2,-0.2 1,-0.3 2,-0.4 2,-0.4 2,-0.4 2,-0.6 1,-0.5 2,-0.6 2,-0.7 2,-0.7 2,-0.8 1,-0.8 2,-0.8 2,-0.9 2,-1 2,-1 1,-1 2,-1.1 2,-1.1 2,-1.1 2,-1.2 1,-1.2 2,-1.3 2,-1.2 2,-1.3 2,-1.4 1,-1.3 2,-1.4 2,-1.4 2,-1.4 2,-1.4 1,-1.5 2,-1.4 2,-1.5 2,-1.4 2,-1.5 1,-1.4 2,-1.5 2,-1.5 2,-1.4 2,-1.4 1,-1.5 2,-1.4 2,-1.4 2,-1.3 2,-1.4 1,-1.3 2,-1.3 2,-1.2 2,-1.3 2,-1.1 1,-1.2 2,-1.1 2,-1.1 2,-1 2,-1 1,-0.9 2,-0.9 2,-0.8 2,-0.8 2,-0.7 1,-0.7 2,-0.6 2,-0.6 2,-0.5 2,-0.4 1,-0.4 2,-0.3 2,-0.3 2,-0.2 2,-0.2 1,-0.1 4,0 2,0.1 2,0.1 1,0.2 2,0.2 2,0.3 2,0.3 2,0.4 1,0.4 2,0.5 2,0.5 2,0.6 2,0.6 1,0.6 2,0.7 2,0.7 2,0.7 2,0.7 1,0.8 2,0.8 2,0.9 2,0.8 2,0.9 1,0.9 2,0.9 2,0.9 2,0.9 2,0.9 1,1 2,0.9 2,0.9 2,1 2,0.9 1,0.9 2,1 2,0.9 2,0.9 2,0.9 1,0.9 2,0.8 2,0.9 2,0.9 2,0.8 1,0.8 2,0.8 2,0.7 2,0.8 2,0.7 1,0.7 2,0.7 2,0.6 2,0.7 2,0.5 1,0.6 2,0.5 2,0.5 2,0.5 2,0.4 1,0.5 2,0.3 2,0.4 2,0.3 2,0.2 1,0.3 2,0.2 2,0.1 2,0.2 2,0 1,0.1 6,0 2,-0.1 1,-0.1 2,-0.2 2,-0.2 2,-0.2 2,-0.2 1,-0.3 2,-0.3 2,-0.4 2,-0.3 2,-0.4 1,-0.4 2,-0.5 2,-0.4 2,-0.5 2,-0.5 1,-0.6 2,-0.5 2,-0.6 2,-0.5 2,-0.6 1,-0.6 2,-0.6 2,-0.6 2,-0.6 2,-0.6 1,-0.7 2,-0.6 2,-0.6 2,-0.6 2,-0.6 1,-0.7 2,-0.6 2,-0.6 2,-0.5 2,-0.6 1,-0.6 2,-0.5 2,-0.5 2,-0.5 2,-0.5 1,-0.5 2,-0.5 2,-0.4 2,-0.4 2,-0.4 1,-0.3 2,-0.4 2,-0.3 2,-0.2 2,-0.3 1,-0.2 2,-0.2 2,-0.2"
             style="fill:none;stroke:#0000ff;stroke-opacity:1;stroke-width:10;stroke-linecap:butt;stroke-linejoin:bevel;stroke-miterlimit:10;stroke-dasharray:none"
             id="path4329" /><path
             d="m 3239,1814.6 2,-0.1 2,-0.1 1,-0.1 2,-0.1 4,0 2,0.1 1,0 2,0.1 2,0.2 2,0.1 2,0.2 1,0.2 2,0.2 2,0.3 2,0.2 2,0.3 1,0.4 2,0.3 2,0.4 2,0.3 2,0.4 1,0.5 2,0.4 2,0.4 2,0.5 1,0.4 2,0.5 2,0.5 2,0.5 2,0.4 1,0.5 2,0.5 2,0.5 2,0.5 2,0.5 1,0.5 2,0.5 2,0.4 2,0.5 2,0.5 1,0.4 2,0.5 2,0.4 2,0.4 2,0.4 1,0.4 2,0.4 2,0.4 2,0.3 2,0.4 1,0.3 2,0.3 2,0.3 2,0.3 2,0.3 1,0.2 2,0.3 2,0.2 2,0.2 2,0.3 1,0.1 2,0.2 2,0.2 2,0.2 2,0.1 1,0.2 2,0.1 2,0.1 2,0.1 2,0.1 1,0.1 2,0.1 2,0.1 2,0.1 2,0 1,0.1 2,0.1 2,0 2,0.1 2,0 1,0.1 2,0 2,0.1 4,0 1,0.1 4,0 2,0.1 5,0 2,0.1 25,0 2,-0.1 2,0 2,-0.1 1,0 2,-0.1 2,0 2,-0.1 2,-0.1 1,0 2,-0.1 2,-0.1 2,-0.1 2,-0.1 1,-0.2 2,-0.1 2,-0.1 2,-0.1 2,-0.2 1,-0.1 2,-0.2 2,-0.2 2,-0.1 2,-0.2 1,-0.2 2,-0.2 2,-0.2 2,-0.2 2,-0.2 1,-0.2 2,-0.2 2,-0.3 2,-0.2 2,-0.2 1,-0.3 2,-0.2 2,-0.3 2,-0.2 2,-0.3 1,-0.3 2,-0.2 2,-0.3 2,-0.3 2,-0.3 1,-0.3 2,-0.3 2,-0.2 2,-0.3 2,-0.3 1,-0.3 2,-0.3 2,-0.3 2,-0.3 2,-0.3 1,-0.3 2,-0.3 2,-0.3 2,-0.3 2,-0.3 1,-0.3 2,-0.3 2,-0.3 2,-0.3 2,-0.3 1,-0.3 2,-0.3 2,-0.3 2,-0.3 2,-0.3 1,-0.2 2,-0.3 2,-0.3 2,-0.2 2,-0.3 1,-0.2 2,-0.3 2,-0.2 2,-0.2 2,-0.3 1,-0.2 2,-0.2 2,-0.1 2,-0.2 2,-0.2 1,-0.1 2,-0.2 2,-0.1 2,-0.1 2,-0.1 1,-0.1 2,-0.1 2,-0.1 2,0"
             style="fill:none;stroke:#0000ff;stroke-opacity:1;stroke-width:10;stroke-linecap:butt;stroke-linejoin:bevel;stroke-miterlimit:10;stroke-dasharray:none"
             id="path4331" /><path
             d="m 3599,1817.3 9,0 2,0.1 1,0.1 2,0.1 2,0.1 2,0.2 2,0.1 1,0.2 2,0.2 2,0.2 2,0.3 2,0.2 1,0.3 2,0.3 2,0.3 2,0.4 2,0.3 1,0.4 2,0.4 2,0.4 2,0.4 2,0.4 1,0.5 2,0.4 2,0.5 2,0.5 2,0.5 1,0.5 2,0.5 2,0.5 2,0.6 2,0.5 1,0.5 2,0.5 2,0.6 2,0.5 2,0.5 1,0.6 2,0.5 2,0.5 2,0.5 1,0.5 2,0.5 2,0.5 2,0.4 2,0.5 1,0.4 2,0.4 2,0.4 2,0.4 2,0.3 1,0.3 2,0.3 2,0.3 2,0.2 2,0.3 1,0.2 2,0.1 2,0.2 2,0.1 2,0 1,0.1 4,0 2,-0.1 2,-0.1 1,-0.1 2,-0.2 2,-0.1 2,-0.3 2,-0.2 1,-0.3 2,-0.3 2,-0.3 2,-0.4 2,-0.4 1,-0.4 2,-0.5 2,-0.4 2,-0.5 2,-0.6 1,-0.5 2,-0.6 2,-0.5 2,-0.6 2,-0.6 1,-0.7 2,-0.6 2,-0.6 2,-0.7 2,-0.7 1,-0.6 2,-0.7 2,-0.6 2,-0.7 2,-0.6 1,-0.7 2,-0.6 2,-0.7 2,-0.6 2,-0.6 1,-0.6 2,-0.5 2,-0.6 2,-0.5 2,-0.5 1,-0.5 2,-0.4 2,-0.4 2,-0.4 2,-0.4 1,-0.3 2,-0.3 2,-0.3 2,-0.2 2,-0.2 1,-0.1 2,-0.1 2,-0.1 2,-0.1 2,0 1,0.1 2,0 2,0.1 2,0.2 2,0.1 1,0.2 2,0.3 2,0.2 2,0.3 2,0.4 1,0.3 2,0.4 2,0.4 2,0.4 2,0.5 1,0.4 2,0.5 2,0.5 2,0.5 2,0.6 1,0.5 2,0.6 2,0.5 2,0.6 2,0.5 1,0.6 2,0.5 2,0.6 2,0.5 2,0.6 1,0.5 2,0.5 2,0.5 2,0.5 2,0.5 1,0.5 2,0.4 2,0.4 2,0.4 2,0.4 1,0.4 2,0.3 2,0.3 2,0.3 2,0.3 1,0.2 2,0.3 2,0.1 2,0.2 2,0.1 1,0.1 2,0.1 2,0.1 5,0 2,-0.1 2,0 2,-0.1 2,-0.1 1,-0.2 2,-0.1 2,-0.2 2,-0.2 2,-0.2 1,-0.2 2,-0.3 2,-0.2 2,-0.3 2,-0.3 1,-0.3 2,-0.3 2,-0.3 2,-0.3 2,-0.4"
             style="fill:none;stroke:#0000ff;stroke-opacity:1;stroke-width:10;stroke-linecap:butt;stroke-linejoin:bevel;stroke-miterlimit:10;stroke-dasharray:none"
             id="path4333" /><path
             d="m 3959,1829.8 1,-0.3 2,-0.3 2,-0.4 2,-0.3 2,-0.4 1,-0.3 2,-0.4 2,-0.3 2,-0.4 2,-0.3 1,-0.3 2,-0.4 2,-0.3 2,-0.3 2,-0.4 1,-0.3 2,-0.3 2,-0.2 2,-0.3 2,-0.3 1,-0.2 2,-0.3 2,-0.2 2,-0.2 2,-0.3 1,-0.1 2,-0.2 2,-0.2 2,-0.1 2,-0.2 1,-0.1 2,-0.1 2,-0.1 2,0 2,-0.1 1,0 2,-0.1 4,0 2,0.1 1,0 2,0.1 2,0 2,0.1 2,0.1 1,0.2 2,0.1 2,0.1 2,0.2 2,0.2 1,0.1 2,0.2 2,0.2 2,0.3 2,0.2 1,0.2 2,0.3 2,0.2 2,0.3 2,0.3 1,0.2 2,0.3 2,0.3 2,0.3 2,0.3 1,0.3 2,0.3 2,0.3 2,0.3 1,0.3 2,0.3 2,0.3 2,0.3 2,0.2 1,0.3 2,0.3 2,0.3 2,0.2 2,0.3 1,0.3 2,0.2 2,0.2 2,0.3 2,0.2 1,0.2 2,0.2 2,0.2 2,0.1 2,0.2 1,0.1 2,0.2 2,0.1 2,0.1 2,0.1 1,0.1 2,0 2,0.1 9,0 2,-0.1 2,0 1,-0.1 2,-0.1 2,-0.1 2,-0.1 2,-0.2 1,-0.1 2,-0.2 2,-0.2 2,-0.2 2,-0.2 1,-0.2 2,-0.2 2,-0.3 2,-0.2 2,-0.3 1,-0.3 2,-0.3 2,-0.3 2,-0.3 2,-0.3 1,-0.4 2,-0.3 2,-0.3 2,-0.4 2,-0.3 1,-0.4 2,-0.3 2,-0.4 2,-0.4 2,-0.3 1,-0.4 2,-0.3 2,-0.4 2,-0.3 2,-0.3 1,-0.4 2,-0.3 2,-0.3 2,-0.3 2,-0.3 1,-0.3 2,-0.3 2,-0.2 2,-0.3 2,-0.2 1,-0.2 2,-0.2 2,-0.2 2,-0.2 2,-0.1 1,-0.2 2,-0.1 2,-0.1 2,-0.1 2,-0.1 3,0 2,-0.1 2,0 2,0.1 1,0 2,0.1 2,0 2,0.1 2,0.1 1,0.2 2,0.1 2,0.2 2,0.1 2,0.2 1,0.2 2,0.2 2,0.2 2,0.3 2,0.2 1,0.3 2,0.2 2,0.3 2,0.3 2,0.3 1,0.3 2,0.3 2,0.3 2,0.3 2,0.3 1,0.3 2,0.4 2,0.3 2,0.3 2,0.3 1,0.4 2,0.3 2,0.3 2,0.3 2,0.3 1,0.3"
             style="fill:none;stroke:#0000ff;stroke-opacity:1;stroke-width:10;stroke-linecap:butt;stroke-linejoin:bevel;stroke-miterlimit:10;stroke-dasharray:none"
             id="path4335" /><path
             d="m 4318,1827.3 2,0.3 2,0.3 2,0.3 2,0.3 1,0.3 2,0.2 2,0.3 2,0.2 2,0.3 1,0.2 2,0.2 2,0.2 2,0.2 2,0.2 1,0.1 2,0.2 2,0.1 2,0.2 2,0.1 1,0.1 2,0.1 2,0.1 2,0 2,0.1 10,0 2,-0.1 2,0 2,-0.1 2,-0.1 1,-0.1 2,-0.1 2,-0.1 2,-0.2 2,-0.1 1,-0.2 2,-0.2 2,-0.2 2,-0.2 2,-0.2 1,-0.3 2,-0.2 2,-0.2 2,-0.3 2,-0.3 1,-0.3 2,-0.3 2,-0.3 2,-0.3 2,-0.3 1,-0.3 2,-0.3 2,-0.3 2,-0.3 2,-0.4 1,-0.3 2,-0.3 2,-0.3 2,-0.3 2,-0.3 1,-0.3 2,-0.3 2,-0.3 2,-0.3 2,-0.3 1,-0.2 2,-0.3 2,-0.2 2,-0.3 2,-0.2 1,-0.2 2,-0.2 2,-0.1 2,-0.2 2,-0.1 1,-0.1 2,-0.2 2,-0.1 2,0 2,-0.1 1,0 2,-0.1 7,0 2,0.1 2,0.1 2,0 1,0.1 2,0.1 2,0.1 2,0.1 2,0.2 1,0.1 2,0.2 2,0.2 2,0.1 2,0.2 1,0.2 2,0.2 2,0.3 2,0.2 2,0.2 1,0.3 2,0.2 2,0.2 2,0.3 2,0.2 1,0.3 2,0.3 2,0.2 2,0.3 2,0.2 1,0.3 2,0.2 2,0.3 2,0.2 2,0.3 1,0.2 2,0.2 2,0.3 2,0.2 2,0.2 1,0.2 2,0.2 2,0.2 2,0.1 2,0.2 1,0.2 2,0.1 2,0.2 2,0.1 2,0.1 1,0.1 2,0.1 2,0.1 2,0.1 2,0.1 1,0 2,0.1 4,0 2,0.1 5,0 2,-0.1 3,0 2,-0.1 2,0 2,-0.1 2,-0.1 1,0 2,-0.1 2,-0.1 2,-0.1 2,-0.1 1,-0.2 2,-0.1 2,-0.1 2,-0.1 2,-0.2 1,-0.1 2,-0.2 2,-0.1 2,-0.2 2,-0.1 1,-0.2 2,-0.2 2,-0.1 2,-0.2 2,-0.1 1,-0.2 2,-0.2 2,-0.1 2,-0.2 2,-0.1 1,-0.2 2,-0.1 2,-0.2 2,-0.1 2,-0.1 1,-0.2 2,-0.1 2,-0.1 2,-0.1 2,-0.1 1,-0.1 2,-0.1 2,0 2,-0.1 2,-0.1 3,0"
             style="fill:none;stroke:#0000ff;stroke-opacity:1;stroke-width:10;stroke-linecap:butt;stroke-linejoin:bevel;stroke-miterlimit:10;stroke-dasharray:none"
             id="path4337" /><path
             d="m 4678,1824.4 2,-0.1 11,0 2,0.1 1,0 2,0.1 2,0 2,0.1 2,0 1,0.1 2,0.1 2,0.1 2,0.1 2,0.1 1,0.1 2,0.2 2,0.1 2,0.1 2,0.1 1,0.2 2,0.1 2,0.2 2,0.1 2,0.2 1,0.1 2,0.2 2,0.2 2,0.1 2,0.2 1,0.1 2,0.2 2,0.2 2,0.1 2,0.2 1,0.2 2,0.1 2,0.2 2,0.1 2,0.2 1,0.2 2,0.1 2,0.2 2,0.1 2,0.2 1,0.1 2,0.2 2,0.1 2,0.2 2,0.1 1,0.1 2,0.2 2,0.1 2,0.1 2,0.1 1,0.1 2,0.1 2,0.1 2,0.1 2,0.1 1,0 2,0.1 2,0 2,0.1 9,0 2,-0.1 1,0 2,-0.1 2,-0.1 2,0 2,-0.1 1,-0.1 2,-0.1 2,-0.2 2,-0.1 2,-0.1 1,-0.2 2,-0.1 2,-0.2 2,-0.1 2,-0.2 1,-0.2 2,-0.1 2,-0.2 2,-0.2 2,-0.2 1,-0.2 2,-0.1 2,-0.2 2,-0.2 2,-0.2 1,-0.2 2,-0.1 2,-0.2 2,-0.2 2,-0.1 1,-0.2 2,-0.2 2,-0.1 2,-0.2 2,-0.1 1,-0.1 2,-0.2 2,-0.1 2,-0.1 1,-0.1 2,-0.1 2,-0.1 2,-0.1 2,0 1,-0.1 2,-0.1 4,0 2,-0.1 16,0 2,0.1 1,0 2,0.1 2,0 2,0.1 2,0 1,0.1 2,0 2,0.1 2,0.1 2,0.1 1,0 2,0.1 2,0.1 2,0.1 2,0.1 1,0.1 2,0.1 2,0.1 2,0.1 2,0.1 1,0.1 2,0.1 2,0.1 2,0.1 2,0.1 1,0.1 2,0.1 2,0.1 2,0.1 2,0 1,0.1 2,0.1 2,0.1 2,0.1 2,0 1,0.1 2,0.1 2,0 2,0.1 2,0.1 1,0 2,0.1 2,0 2,0.1 2,0 1,0.1 2,0 2,0.1 4,0 1,0.1 2,0 2,0.1 4,0 1,0.1 4,0 2,0.1 5,0 2,0.1 9,0"
             style="fill:none;stroke:#0000ff;stroke-opacity:1;stroke-width:10;stroke-linecap:butt;stroke-linejoin:bevel;stroke-miterlimit:10;stroke-dasharray:none"
             id="path4339" /></g></g><g
         id="g4341"
         transform="scale(10,10)"><text
           transform="matrix(1,0,0,-1,104.108,92.1199)"
           id="text4343"><tspan
             style="fill:#000000;fill-opacity:1;fill-rule:nonzero;stroke:none;font-family:Helvetica;font-variant:normal;font-weight:normal;font-size:14;writing-mode:lr;-inkscape-font-specification:Helvetica"
             x="0 80.23008 88.01408 91.90608 99.69008 170.16986 177.95386 181.84586 189.62986 260.16984 267.95384 271.84584 279.62984 350.06986 357.85386 361.74586 369.52986"
             y="0"
             sodipodi:role="line"
             id="tspan4345">00.050.100.150.20</tspan></text>
</g><path
         d="m 1080,1080 0,-48.55 m 899.6,48.55 0,-48.55 m 899.4,48.55 0,-48.55 m 900,48.55 0,-48.55 m 899,48.55 0,-48.55"
         style="fill:none;stroke:#000000;stroke-opacity:1;stroke-width:10;stroke-linecap:butt;stroke-linejoin:miter;stroke-miterlimit:10;stroke-dasharray:none"
         id="path4347" /><path
         d="m 1080,1080 0,-24.28 m 899.6,24.28 0,-24.28 m 899.4,24.28 0,-24.28 m 900,24.28 0,-24.28 m 899,24.28 0,-24.28"
         style="fill:none;stroke:#000000;stroke-opacity:1;stroke-width:10;stroke-linecap:butt;stroke-linejoin:miter;stroke-miterlimit:10;stroke-dasharray:none"
         id="path4349" /><g
         id="g4351"
         transform="scale(10,10)"><text
           transform="matrix(1,0,0,-1,256.508,75.9398)"
           id="text4353"><tspan
             style="fill:#000000;fill-opacity:1;fill-rule:nonzero;stroke:none;font-family:Helvetica;font-variant:normal;font-weight:normal;font-size:14;writing-mode:lr;-inkscape-font-specification:Helvetica"
             x="0 8.554 11.662 23.324 31.108 35 39.662 51.324 58.324"
             y="0"
             sodipodi:role="line"
             id="tspan4355">Time (ms)</tspan><tspan
             style="fill:#000000;fill-opacity:1;fill-rule:nonzero;stroke:none;font-family:Helvetica;font-variant:normal;font-weight:normal;font-size:14;writing-mode:lr;-inkscape-font-specification:Helvetica"
             x="-164.045"
             y="-102.69"
             id="tspan4357">0</tspan></text>
</g><path
         d="m 1080,1826.8 -48.55,0"
         style="fill:none;stroke:#000000;stroke-opacity:1;stroke-width:10;stroke-linecap:butt;stroke-linejoin:miter;stroke-miterlimit:10;stroke-dasharray:none"
         id="path4359" /><path
         d="m 1080,1826.8 -24.28,0"
         style="fill:none;stroke:#000000;stroke-opacity:1;stroke-width:10;stroke-linecap:butt;stroke-linejoin:miter;stroke-miterlimit:10;stroke-dasharray:none"
         id="path4361" /><g
         id="g4363"
         transform="scale(10,10)"><text
           transform="matrix(0,1,1,0,75.7602,106.379)"
           id="text4365"><tspan
             style="fill:#000000;fill-opacity:1;fill-rule:nonzero;stroke:none;font-family:Helvetica;font-variant:normal;font-weight:normal;font-size:14;writing-mode:lr;-inkscape-font-specification:Helvetica"
             x="0 9.338 21 28.784 31.892 35 38.892 46.676 54.46 62.244 66.136 70.798 78.582 86.366 91.028 102.69 106.582"
             y="0"
             sodipodi:role="line"
             id="tspan4367">Amplitude (norm.)</tspan></text>
</g><path
         d="m 1080,1080 3600,0 0,1080 -3600,0 0,-1080"
         style="fill:none;stroke:#000000;stroke-opacity:1;stroke-width:10;stroke-linecap:butt;stroke-linejoin:miter;stroke-miterlimit:10;stroke-dasharray:none"
         id="path4369" /></g></g></svg>